<svg width="17" height="16" viewBox="0 0 17 16" fill="none" xmlns="http://www.w3.org/2000/svg">
<path d="M15.7552 8.85308C15.0857 8.68128 14.4368 8.43731 13.82 8.12546C13.6295 8.03023 13.4543 7.9388 13.2943 7.85118C12.9781 7.67594 12.7266 7.51975 12.5628 7.41308C12.5535 7.40651 12.5432 7.40137 12.5323 7.39785C12.4116 7.32745 12.2738 7.29164 12.134 7.29433C11.9943 7.29702 11.8579 7.3381 11.74 7.41308C10.757 8.05586 9.68001 8.54168 8.5476 8.85308C8.38089 8.89359 8.23255 8.98874 8.12622 9.12338C8.01989 9.25802 7.9617 9.42438 7.96094 9.59594V10.2474C7.96054 11.1881 8.19264 12.1144 8.6366 12.9439C9.08056 13.7733 9.72263 14.4802 10.5057 15.0016L10.86 15.2378L11.7285 15.8169C11.7974 15.8622 11.8734 15.8957 11.9533 15.9159H11.9571C12.0196 15.9374 12.0853 15.9478 12.1514 15.9464C12.3019 15.9451 12.4488 15.9001 12.5743 15.8169L13.7971 15.0016C14.5802 14.4802 15.2222 13.7733 15.6662 12.9439C16.1102 12.1144 16.3423 11.1881 16.3419 10.2474V9.59594C16.3411 9.42438 16.2829 9.25802 16.1766 9.12338C16.0703 8.98874 15.9219 8.89359 15.7552 8.85308ZM13.5647 10.9369L12.0409 12.4607C11.9687 12.5315 11.8716 12.5712 11.7704 12.5712C11.6693 12.5712 11.5722 12.5315 11.5 12.4607L10.7381 11.6988C10.6663 11.6271 10.626 11.5298 10.626 11.4283C10.626 11.3269 10.6663 11.2296 10.7381 11.1578C10.8098 11.0861 10.9071 11.0458 11.0085 11.0458C11.11 11.0458 11.2073 11.0861 11.279 11.1578L11.7704 11.6531L13.0238 10.3959C13.0593 10.3604 13.1015 10.3322 13.1479 10.313C13.1943 10.2938 13.244 10.2839 13.2943 10.2839C13.3445 10.2839 13.3942 10.2938 13.4406 10.313C13.487 10.3322 13.5292 10.3604 13.5647 10.3959C13.6002 10.4315 13.6284 10.4736 13.6476 10.52C13.6669 10.5664 13.6768 10.6162 13.6768 10.6664C13.6768 10.7166 13.6669 10.7664 13.6476 10.8128C13.6284 10.8592 13.6002 10.9014 13.5647 10.9369Z" fill="white"/>
<path d="M12.7532 3.90099L9.49605 0.571476C9.37914 0.453174 9.24722 0.350714 9.10367 0.266715V3.04766C9.10457 3.35048 9.22527 3.64065 9.4394 3.85478C9.65353 4.06891 9.9437 4.18961 10.2465 4.19051H12.9856C12.9168 4.08731 12.8391 3.99042 12.7532 3.90099ZM13.2713 4.95242H10.2465C9.74135 4.95242 9.25687 4.75174 8.89966 4.39453C8.54245 4.03731 8.34177 3.55283 8.34177 3.04766V0.0152874C8.27373 0.00453315 8.20493 -0.000563638 8.13605 4.93674e-05H2.24655C1.74138 4.93674e-05 1.2569 0.200728 0.899687 0.55794C0.542476 0.915151 0.341797 1.39963 0.341797 1.90481V14.0952C0.341797 14.6004 0.542476 15.0849 0.899687 15.4421C1.2569 15.7993 1.74138 16 2.24655 16H10.6313L10.0827 15.6343C9.1951 15.0439 8.46729 14.2431 7.96414 13.3032C7.46099 12.3634 7.19811 11.3137 7.19891 10.2476V9.59621C7.19906 9.36061 7.25383 9.12826 7.35893 8.9174C7.46403 8.70654 7.61659 8.52292 7.80463 8.38098H3.00845C2.90742 8.38098 2.81052 8.34084 2.73908 8.2694C2.66764 8.19796 2.6275 8.10106 2.6275 8.00002C2.6275 7.89899 2.66764 7.80209 2.73908 7.73065C2.81052 7.65921 2.90742 7.61907 3.00845 7.61907H9.76652C10.306 7.37582 10.8267 7.09315 11.3246 6.77336C11.548 6.63146 11.8042 6.54955 12.0684 6.53553C12.3327 6.52152 12.5961 6.57588 12.8332 6.69336L12.8598 6.70479L12.9741 6.77336C13.0541 6.8267 13.1608 6.89146 13.2941 6.97146V5.23432C13.2942 5.13988 13.2866 5.0456 13.2713 4.95242ZM7.19891 12.5714C7.19891 12.6725 7.15878 12.7694 7.08734 12.8408C7.01589 12.9123 6.919 12.9524 6.81796 12.9524H3.00845C2.90742 12.9524 2.81052 12.9123 2.73908 12.8408C2.66764 12.7694 2.6275 12.6725 2.6275 12.5714C2.6275 12.4704 2.66764 12.3735 2.73908 12.3021C2.81052 12.2306 2.90742 12.1905 3.00845 12.1905H6.81796C6.919 12.1905 7.01589 12.2306 7.08734 12.3021C7.15878 12.3735 7.19891 12.4704 7.19891 12.5714ZM3.00845 9.90478H6.05606C6.1571 9.90478 6.25399 9.94492 6.32543 10.0164C6.39688 10.0878 6.43701 10.1847 6.43701 10.2857C6.43701 10.3868 6.39688 10.4837 6.32543 10.5551C6.25399 10.6265 6.1571 10.6667 6.05606 10.6667H3.00845C2.90742 10.6667 2.81052 10.6265 2.73908 10.5551C2.66764 10.4837 2.6275 10.3868 2.6275 10.2857C2.6275 10.1847 2.66764 10.0878 2.73908 10.0164C2.81052 9.94492 2.90742 9.90478 3.00845 9.90478ZM3.00845 3.04766H6.05606C6.1571 3.04766 6.25399 3.0878 6.32543 3.15924C6.39688 3.23068 6.43701 3.32758 6.43701 3.42861C6.43701 3.52964 6.39688 3.62654 6.32543 3.69798C6.25399 3.76943 6.1571 3.80956 6.05606 3.80956H3.00845C2.90742 3.80956 2.81052 3.76943 2.73908 3.69798C2.66764 3.62654 2.6275 3.52964 2.6275 3.42861C2.6275 3.32758 2.66764 3.23068 2.73908 3.15924C2.81052 3.0878 2.90742 3.04766 3.00845 3.04766ZM8.34177 6.09527H3.00845C2.90742 6.09527 2.81052 6.05513 2.73908 5.98369C2.66764 5.91225 2.6275 5.81535 2.6275 5.71432C2.6275 5.61328 2.66764 5.51639 2.73908 5.44494C2.81052 5.3735 2.90742 5.33337 3.00845 5.33337H8.34177C8.4428 5.33337 8.5397 5.3735 8.61114 5.44494C8.68258 5.51639 8.72272 5.61328 8.72272 5.71432C8.72272 5.81535 8.68258 5.91225 8.61114 5.98369C8.5397 6.05513 8.4428 6.09527 8.34177 6.09527Z" fill="white"/>
</svg>
