<svg width="17" height="16" viewBox="0 0 17 16" fill="none" xmlns="http://www.w3.org/2000/svg">
<path d="M11.1167 5.6875C8.27354 5.6875 5.96045 8.00059 5.96045 10.8438C5.96045 13.6869 8.27354 16 11.1167 16C13.9599 16 16.2729 13.6869 16.2729 10.8438C16.2729 8.00059 13.9599 5.6875 11.1167 5.6875ZM11.1167 10.375C11.8921 10.375 12.5229 11.0058 12.5229 11.7812C12.5229 12.3916 12.1299 12.907 11.5854 13.1012V14.125H10.6479V13.1012C10.1035 12.907 9.71045 12.3916 9.71045 11.7812H10.6479C10.6479 12.0399 10.8581 12.25 11.1167 12.25C11.3753 12.25 11.5854 12.0399 11.5854 11.7812C11.5854 11.5226 11.3753 11.3125 11.1167 11.3125C10.3413 11.3125 9.71045 10.6817 9.71045 9.90625C9.71045 9.29594 10.1035 8.7805 10.6479 8.58634V7.5625H11.5854V8.58634C12.1299 8.7805 12.5229 9.29594 12.5229 9.90625H11.5854C11.5854 9.64762 11.3753 9.4375 11.1167 9.4375C10.8581 9.4375 10.6479 9.64762 10.6479 9.90625C10.6479 10.1649 10.8581 10.375 11.1167 10.375Z" fill="white"/>
<path d="M5.4917 5.6875C8.38295 5.6875 10.6479 4.452 10.6479 2.875C10.6479 1.298 8.38295 0 5.4917 0C2.60045 0 0.272949 1.298 0.272949 2.875C0.272949 4.452 2.60045 5.6875 5.4917 5.6875Z" fill="white"/>
<path d="M0.272949 10.5488V11.3126C0.272949 12.8896 2.60045 14.1251 5.4917 14.1251C5.6557 14.1251 5.81461 14.11 5.97607 14.1021C5.61651 13.5368 5.34836 12.9095 5.19045 12.2388C3.09967 12.1811 1.28426 11.5386 0.272949 10.5488Z" fill="white"/>
<path d="M5.04548 11.2887C5.03473 11.1413 5.02295 10.994 5.02295 10.8439C5.02295 10.3552 5.08698 9.88227 5.19617 9.42658C3.10279 9.36986 1.28517 8.72705 0.272949 7.73633V8.50011C0.272949 9.99345 2.37489 11.167 5.04548 11.2887Z" fill="white"/>
<path d="M5.4917 8.50011C5.4922 8.50011 5.49261 8.50005 5.49314 8.50005C5.80229 7.76117 6.2517 7.09511 6.80979 6.53705C6.38645 6.59055 5.94895 6.62511 5.4917 6.62511C3.26617 6.62511 1.33314 5.96145 0.272949 4.92383V5.68761C0.272949 7.26461 2.60045 8.50011 5.4917 8.50011Z" fill="white"/>
</svg>
