<svg width="15" height="16" viewBox="0 0 15 16" fill="none" xmlns="http://www.w3.org/2000/svg">
<path d="M5.27852 10.4C5.27852 9.36 4.63852 8.48 3.67852 8.16V0.8C3.67852 0.32 3.35852 0 2.87852 0C2.39852 0 2.07852 0.32 2.07852 0.8V8.16C1.11852 8.48 0.478516 9.36 0.478516 10.4C0.478516 11.44 1.11852 12.32 2.07852 12.64V15.2C2.07852 15.68 2.39852 16 2.87852 16C3.35852 16 3.67852 15.68 3.67852 15.2V12.64C4.63852 12.32 5.27852 11.44 5.27852 10.4Z" fill="white"/>
<path d="M10.0783 5.6C10.0783 4.56 9.43832 3.68 8.47832 3.36V0.8C8.47832 0.32 8.15832 0 7.67832 0C7.19832 0 6.87832 0.32 6.87832 0.8V3.36C5.91832 3.68 5.27832 4.56 5.27832 5.6C5.27832 6.64 5.91832 7.52 6.87832 7.84V15.2C6.87832 15.68 7.19832 16 7.67832 16C8.15832 16 8.47832 15.68 8.47832 15.2V7.84C9.43832 7.52 10.0783 6.64 10.0783 5.6Z" fill="white"/>
<path d="M14.8791 10.4C14.8791 9.36 14.2391 8.48 13.2791 8.16V0.8C13.2791 0.32 12.9591 0 12.4791 0C11.9991 0 11.6791 0.32 11.6791 0.8V8.16C10.7191 8.48 10.0791 9.36 10.0791 10.4C10.0791 11.44 10.7191 12.32 11.6791 12.64V15.2C11.6791 15.68 11.9991 16 12.4791 16C12.9591 16 13.2791 15.68 13.2791 15.2V12.64C14.2391 12.32 14.8791 11.44 14.8791 10.4Z" fill="white"/>
</svg>
