<svg width="16" height="16" viewBox="0 0 16 16" fill="none" xmlns="http://www.w3.org/2000/svg">
<g clip-path="url(#clip0_3240_33852)">
<path d="M8.00001 8.87999C8.48799 8.87999 8.88002 8.48399 8.88002 7.99998C8.88002 7.51597 8.48803 7.11997 8.00001 7.11997C7.51599 7.11997 7.12 7.51597 7.12 7.99998C7.12 8.48399 7.51603 8.87999 8.00001 8.87999Z" fill="white"/>
<path d="M7.99998 0C3.58001 0 0 3.58001 0 7.99998C0 12.416 3.58001 16 7.99998 16C12.42 16 16 12.416 16 7.99998C16 3.58001 12.42 0 7.99998 0ZM9.75198 9.75198L3.19999 12.8L6.24798 6.24798L12.8 3.19999L9.75198 9.75198Z" fill="white"/>
</g>
<defs>
<clipPath id="clip0_3240_33852">
<rect width="16" height="16" fill="white"/>
</clipPath>
</defs>
</svg>
