<svg width="20" height="16" viewBox="0 0 20 16" fill="none" xmlns="http://www.w3.org/2000/svg">
<path d="M6.27953 9.12992C6.54217 8.82864 6.32822 8.35821 5.92851 8.35821H4.73178C4.72398 8.2398 4.71962 8.12047 4.71962 8.00014C4.71962 5.01844 7.14537 2.59269 10.127 2.59269C11.5599 2.59269 12.8642 3.15308 13.8328 4.06595L15.5203 2.09179C14.0431 0.740442 12.142 0.000244141 10.127 0.000244141C7.9902 0.000244141 5.98127 0.832398 4.47028 2.34335C2.95933 3.85433 2.12718 5.86326 2.12718 8.0001C2.12718 8.11992 2.13017 8.23925 2.13538 8.35817H1.12737C0.727656 8.35817 0.51367 8.8286 0.77635 9.12989L3.05029 11.7382L3.52792 12.2861L5.24277 10.319L6.27953 9.12992Z" fill="white"/>
<path d="M19.4778 7.6081L17.7817 5.66264L16.7262 4.4519L15.2192 6.18053L13.9746 7.6081C13.712 7.90939 13.926 8.37981 14.3257 8.37981H15.521C15.3254 11.185 12.9811 13.4075 10.1271 13.4075C8.88127 13.4075 7.73264 12.9838 6.81732 12.2732L5.1297 14.2475C6.54348 15.3829 8.28774 16 10.1271 16C12.264 16 14.2729 15.1679 15.7839 13.6569C17.205 12.2357 18.0254 10.3741 18.118 8.37985H19.1268C19.5265 8.37981 19.7404 7.90939 19.4778 7.6081Z" fill="white"/>
</svg>
