<svg width="18" height="16" viewBox="0 0 18 16" fill="none" xmlns="http://www.w3.org/2000/svg">
<path d="M15.988 5.64379C14.4539 5.64379 13.8267 4.55892 14.5895 3.22826C15.0302 2.45698 14.7675 1.47382 13.9962 1.03309L12.53 0.194007C11.8604 -0.204345 10.9959 0.0329711 10.5975 0.702541L10.5043 0.863576C9.7415 2.19424 8.48711 2.19424 7.71584 0.863576L7.62261 0.702541C7.2412 0.0329711 6.3767 -0.204345 5.70713 0.194007L4.24086 1.03309C3.46958 1.47382 3.20684 2.46546 3.64757 3.23673C4.41884 4.55892 3.79165 5.64379 2.25757 5.64379C1.37612 5.64379 0.647217 6.36422 0.647217 7.25415V8.74585C0.647217 9.62731 1.36764 10.3562 2.25757 10.3562C3.79165 10.3562 4.41884 11.4411 3.64757 12.7717C3.20684 13.543 3.46958 14.5262 4.24086 14.9669L5.70713 15.806C6.3767 16.2043 7.24121 15.967 7.63956 15.2975L7.73279 15.1364C8.49559 13.8058 9.74997 13.8058 10.5212 15.1364L10.6145 15.2975C11.0128 15.967 11.8773 16.2043 12.5469 15.806L14.0132 14.9669C14.7845 14.5262 15.0472 13.5345 14.6065 12.7717C13.8352 11.4411 14.4624 10.3562 15.9965 10.3562C16.8779 10.3562 17.6068 9.63578 17.6068 8.74585V7.25415C17.5983 6.37269 16.8779 5.64379 15.988 5.64379ZM9.12278 10.7546C7.60565 10.7546 6.36822 9.51713 6.36822 8C6.36822 6.48287 7.60565 5.24544 9.12278 5.24544C10.6399 5.24544 11.8773 6.48287 11.8773 8C11.8773 9.51713 10.6399 10.7546 9.12278 10.7546Z" fill="white"/>
</svg>
