<svg width="17" height="16" viewBox="0 0 17 16" fill="none" xmlns="http://www.w3.org/2000/svg">
<path d="M8.12705 0.0833435C3.76497 0.0833435 0.210388 3.63792 0.210388 8C0.210388 12.3621 3.76497 15.9167 8.12705 15.9167C12.4891 15.9167 16.0437 12.3621 16.0437 8C16.0437 3.63792 12.4891 0.0833435 8.12705 0.0833435ZM7.5333 4.83334C7.5333 4.50876 7.80247 4.23959 8.12705 4.23959C8.45163 4.23959 8.7208 4.50876 8.7208 4.83334V8.79167C8.7208 9.11625 8.45163 9.38542 8.12705 9.38542C7.80247 9.38542 7.5333 9.11625 7.5333 8.79167V4.83334ZM8.85538 11.4675C8.8158 11.5704 8.76038 11.6496 8.68913 11.7288C8.60996 11.8 8.52288 11.8554 8.42788 11.895C8.33288 11.9346 8.22997 11.9583 8.12705 11.9583C8.02413 11.9583 7.92122 11.9346 7.82622 11.895C7.73122 11.8554 7.64413 11.8 7.56497 11.7288C7.49372 11.6496 7.4383 11.5704 7.39872 11.4675C7.35913 11.3725 7.33538 11.2696 7.33538 11.1667C7.33538 11.0638 7.35913 10.9608 7.39872 10.8658C7.4383 10.7708 7.49372 10.6838 7.56497 10.6046C7.64413 10.5333 7.73122 10.4779 7.82622 10.4383C8.01622 10.3592 8.23788 10.3592 8.42788 10.4383C8.52288 10.4779 8.60996 10.5333 8.68913 10.6046C8.76038 10.6838 8.8158 10.7708 8.85538 10.8658C8.89496 10.9608 8.91871 11.0638 8.91871 11.1667C8.91871 11.2696 8.89496 11.3725 8.85538 11.4675Z" fill="#84909A"/>
</svg>
