<svg width="17" height="16" viewBox="0 0 17 16" fill="none" xmlns="http://www.w3.org/2000/svg">
<path d="M6.29355 0.000244141H1.29362C0.650322 0.000244141 0.127014 0.523552 0.127014 1.16685V4.16681C0.127014 4.81023 0.650322 5.33354 1.29362 5.33354H6.29355C6.93697 5.33354 7.46028 4.81023 7.46028 4.16681V1.16685C7.46028 0.523552 6.93697 0.000244141 6.29355 0.000244141Z" fill="white"/>
<path d="M6.29355 6.66675H1.29362C0.650322 6.66675 0.127014 7.19006 0.127014 7.83348V14.8334C0.127014 15.4767 0.650322 16 1.29362 16H6.29355C6.93697 16 7.46028 15.4767 7.46028 14.8334V7.83348C7.46028 7.19006 6.93697 6.66675 6.29355 6.66675Z" fill="white"/>
<path d="M14.9602 10.6667H9.96031C9.31689 10.6667 8.79358 11.1901 8.79358 11.8335V14.8334C8.79358 15.4767 9.31689 16 9.96031 16H14.9602C15.6035 16 16.1268 15.4767 16.1268 14.8334V11.8335C16.1268 11.1901 15.6035 10.6667 14.9602 10.6667Z" fill="white"/>
<path d="M14.9602 0.000244141H9.96031C9.31689 0.000244141 8.79358 0.523552 8.79358 1.16685V8.16675C8.79358 8.81017 9.31689 9.33348 9.96031 9.33348H14.9602C15.6035 9.33348 16.1268 8.81017 16.1268 8.16675V1.16685C16.1268 0.523552 15.6035 0.000244141 14.9602 0.000244141Z" fill="white"/>
</svg>
