<svg width="21" height="21" viewBox="0 0 21 21" fill="none" xmlns="http://www.w3.org/2000/svg">
<path d="M10.097 0.899995C4.57702 0.919995 0.10702 5.41 0.12702 10.93C0.14702 16.45 4.63702 20.92 10.157 20.9C15.677 20.88 20.147 16.39 20.127 10.87C20.107 5.35 15.617 0.889995 10.097 0.899995ZM12.387 11C13.167 11.27 14.217 11.85 14.217 13.64C14.217 15.18 13.007 16.42 11.527 16.42H10.877V17C10.877 17.41 10.537 17.75 10.127 17.75C9.71702 17.75 9.37702 17.41 9.37702 17V16.42H9.01702C7.37702 16.42 6.04702 15.04 6.04702 13.34C6.04702 12.93 6.38702 12.59 6.79702 12.59C7.20702 12.59 7.54702 12.93 7.54702 13.34C7.54702 14.21 8.20702 14.92 9.01702 14.92H9.37702V11.54L7.86702 11C7.08702 10.73 6.03702 10.15 6.03702 8.35999C6.03702 6.81999 7.24702 5.58 8.72702 5.58H9.37702V5C9.37702 4.59 9.71702 4.25 10.127 4.25C10.537 4.25 10.877 4.59 10.877 5V5.58H11.237C12.877 5.58 14.207 6.96 14.207 8.66C14.207 9.07 13.867 9.41 13.457 9.41C13.047 9.41 12.707 9.07 12.707 8.66C12.707 7.79 12.047 7.08 11.237 7.08H10.877V10.46L12.387 11Z" fill="white"/>
</svg>
