<svg width="17" height="16" viewBox="0 0 17 16" fill="none" xmlns="http://www.w3.org/2000/svg">
<path d="M7.37074 7.2359C7.3789 7.22774 7.38589 7.21959 7.39288 7.21143C7.39288 7.21026 7.39522 7.20909 7.39522 7.20793C7.40104 7.20094 7.40688 7.19278 7.4127 7.18462C7.4127 7.18462 7.41387 7.18229 7.41504 7.18112C7.44884 7.12867 7.46865 7.06689 7.46865 7.00045C7.46865 6.90487 7.42785 6.81864 7.36374 6.75803L4.7039 4.09815C4.57335 3.96761 4.36238 3.96761 4.233 4.09815C4.10246 4.2287 4.10246 4.43967 4.233 4.56905L6.33104 6.66594H0.46934C0.285179 6.66594 0.135986 6.81512 0.135986 6.99928C0.135986 7.18345 0.285179 7.33265 0.46934 7.33265H6.33104L4.233 9.43071C4.10246 9.56125 4.10246 9.77223 4.233 9.90161C4.29827 9.96572 4.38336 9.9995 4.46845 9.9995C4.55354 9.9995 4.63863 9.96688 4.7039 9.90161L7.37074 7.23473V7.2359Z" fill="white"/>
<path fill-rule="evenodd" clip-rule="evenodd" d="M7.13724 0H14.8032H14.8044C15.5399 0 16.1378 0.597939 16.1378 1.33342V13.3331C16.1378 13.9054 15.7707 14.4136 15.2229 14.5955L11.2226 15.9289C11.0944 15.9755 10.951 16 10.8042 16C10.0687 16 9.47072 15.402 9.47072 14.6665V13.9998H7.13724C6.21877 13.9998 5.47046 13.2515 5.47046 12.333V10.9996C5.47046 10.8155 5.61965 10.6663 5.80381 10.6663C5.98797 10.6663 6.13717 10.8155 6.13717 10.9996V12.333C6.13717 12.8844 6.58592 13.3331 7.13724 13.3331H9.47072V2.66685C9.47072 2.09338 9.83789 1.58634 10.3857 1.40334L12.5956 0.666712H7.13724C6.58592 0.666712 6.13717 1.11544 6.13717 1.66677V3.00022C6.13717 3.18438 5.98797 3.33356 5.80381 3.33356C5.61965 3.33356 5.47046 3.18438 5.47046 3.00022V1.66677C5.47046 0.748283 6.21877 0 7.13724 0Z" fill="white"/>
</svg>
