<svg width="14" height="16" viewBox="0 0 14 16" fill="none" xmlns="http://www.w3.org/2000/svg">
<path d="M8.59723 14.9025C8.27723 15.552 7.60524 16 6.83074 16C6.05624 16 5.38124 15.552 5.06123 14.9025C5.59574 14.944 6.11073 14.96 6.57798 14.96H7.08048C7.54773 14.96 8.06298 14.944 8.59723 14.9025ZM12.4045 9.925C11.1295 8.4 11.2795 6.775 11.1795 5.7C11.042 4.072 10.797 1.79375 7.72948 1.427V0.9C7.72948 0.4 7.32948 0 6.82948 0C6.32948 0 5.92948 0.4 5.92948 0.9V1.42725C2.86198 1.794 2.61699 4.07425 2.47949 5.725C2.37949 6.775 2.52949 8.425 1.25449 9.95C0.254485 11.125 0.529485 12.425 1.37949 12.975C2.57949 13.725 4.62949 14.025 6.82948 14C9.02948 14.025 11.0795 13.725 12.2795 12.975C13.1295 12.4 13.3795 11.1 12.4045 9.925Z" fill="white"/>
</svg>
