<svg width="19" height="16" viewBox="0 0 19 16" fill="none" xmlns="http://www.w3.org/2000/svg">
<path fill-rule="evenodd" clip-rule="evenodd" d="M5.03558 13.0203C5.34033 13.0203 5.63571 13.1262 5.87111 13.3199C6.76624 14.0564 8.8271 15.752 8.8271 15.752C9.22902 16.0827 9.80869 16.0827 10.2106 15.752C10.2106 15.752 12.2714 14.0564 13.1666 13.3199C13.4019 13.1262 13.6973 13.0203 14.0021 13.0203H16.5457C17.0253 13.0203 17.4852 12.8298 17.8244 12.4907C18.1636 12.1516 18.354 11.6916 18.354 11.2119C18.354 8.34909 18.354 4.67126 18.354 1.80841C18.354 1.32875 18.1636 0.868792 17.8244 0.529668C17.4852 0.190543 17.0253 0 16.5457 0C13.2308 0 5.80683 0 2.49201 0C2.01241 0 1.55246 0.190543 1.21326 0.529668C0.874137 0.868792 0.683594 1.32875 0.683594 1.80841V11.2119C0.683594 11.6916 0.874137 12.1516 1.21326 12.4907C1.55246 12.8298 2.01241 13.0203 2.49201 13.0203H5.03558Z" fill="white"/>
<path fill-rule="evenodd" clip-rule="evenodd" d="M10.8884 1.74377C10.8884 2.08618 10.6108 2.36376 10.2684 2.36376C9.92602 2.36376 9.64844 2.08618 9.64844 1.74377C9.64844 1.40136 9.92602 1.12378 10.2684 1.12378C10.6108 1.12378 10.8884 1.40136 10.8884 1.74377ZM12.8519 2.36376C13.1943 2.36376 13.4719 2.08618 13.4719 1.74377C13.4719 1.40136 13.1943 1.12378 12.8519 1.12378C12.5095 1.12378 12.2319 1.40136 12.2319 1.74377C12.2319 2.08618 12.5095 2.36376 12.8519 2.36376ZM15.4353 2.36393C15.7777 2.36393 16.0552 2.08635 16.0552 1.74393C16.0552 1.40152 15.7777 1.12394 15.4353 1.12394C15.0928 1.12394 14.8153 1.40152 14.8153 1.74393C14.8153 2.08635 15.0928 2.36393 15.4353 2.36393Z" fill="url(#paint0_linear_3221_49446)"/>
<path fill-rule="evenodd" clip-rule="evenodd" d="M3.1374 1.89866H5.41075C5.49631 1.89866 5.5658 1.82916 5.5658 1.7436C5.5658 1.65804 5.49631 1.58862 5.41075 1.58862H3.1374C3.05184 1.58862 2.98242 1.65804 2.98242 1.7436C2.98242 1.82916 3.05184 1.89866 3.1374 1.89866Z" fill="url(#paint1_linear_3221_49446)"/>
<defs>
<linearGradient id="paint0_linear_3221_49446" x1="9.64844" y1="1.12378" x2="12.8586" y2="5.00671" gradientUnits="userSpaceOnUse">
<stop stop-color="#832FEE"/>
<stop offset="1" stop-color="#EE2FB8"/>
</linearGradient>
<linearGradient id="paint1_linear_3221_49446" x1="2.98242" y1="1.58862" x2="3.64579" y2="2.88281" gradientUnits="userSpaceOnUse">
<stop stop-color="#832FEE"/>
<stop offset="1" stop-color="#EE2FB8"/>
</linearGradient>
</defs>
</svg>
