<svg width="20" height="16" viewBox="0 0 20 16" fill="none" xmlns="http://www.w3.org/2000/svg">
<path d="M0.20459 6.26695L7.0303 10.1749L8.80355 7.94998L1.61627 4.15503L0.20459 6.26695Z" fill="white"/>
<path d="M10.4956 7.94077L12.2754 10.174L19.1137 6.25887L17.6828 4L10.4956 7.94077Z" fill="white"/>
<path d="M2.65234 3.44954L9.64819 7.1434L16.6541 3.30206L9.66342 0L2.65234 3.44954Z" fill="white"/>
<path d="M1.9873 12.2446L9.09988 16.0001V9.35463L7.60032 11.2361C7.43014 11.4497 7.12974 11.5072 6.89273 11.3715L1.9873 8.56299V12.2446Z" fill="white"/>
<path d="M10.2065 9.35467V15.9829L17.3191 12.0776V8.56299L12.4137 11.3715C12.1767 11.5071 11.8763 11.4497 11.7061 11.2361L10.2065 9.35467Z" fill="white"/>
</svg>
