<svg width="23" height="16" viewBox="0 0 23 16" fill="none" xmlns="http://www.w3.org/2000/svg">
<path d="M22.7384 7.68L20.9703 3.68C20.9084 3.53814 20.8067 3.41729 20.6775 3.33209C20.5483 3.24689 20.3971 3.20101 20.2423 3.2H15.9622L16.2182 0.888C16.2308 0.775765 16.2195 0.662134 16.1851 0.554583C16.1506 0.447033 16.0937 0.348 16.0182 0.264C15.9434 0.181126 15.8521 0.114823 15.7502 0.0693561C15.6482 0.023889 15.5379 0.000263863 15.4262 0H4.41002C4.19784 0 3.99436 0.0842856 3.84433 0.234315C3.69429 0.384344 3.61001 0.587826 3.61001 0.8C3.61001 1.01217 3.69429 1.21566 3.84433 1.36568C3.99436 1.51571 4.19784 1.6 4.41002 1.6H8.4101C8.62228 1.6 8.82576 1.68428 8.97579 1.83431C9.12583 1.98434 9.21011 2.18783 9.21011 2.4C9.21011 2.61217 9.12583 2.81565 8.97579 2.96568C8.82576 3.11571 8.62228 3.2 8.4101 3.2H2.80999C2.59781 3.2 2.39433 3.28428 2.2443 3.43431C2.09426 3.58434 2.00998 3.78782 2.00998 4C2.00998 4.21217 2.09426 4.41565 2.2443 4.56568C2.39433 4.71571 2.59781 4.8 2.80999 4.8H10.8101C11.0223 4.8 11.2258 4.88428 11.3758 5.03431C11.5259 5.18434 11.6102 5.38782 11.6102 5.6C11.6102 5.81217 11.5259 6.01565 11.3758 6.16568C11.2258 6.31571 11.0223 6.4 10.8101 6.4H5.21004C4.99786 6.4 4.79437 6.48428 4.64434 6.63431C4.49431 6.78434 4.41002 6.98782 4.41002 7.2C4.41002 7.41217 4.49431 7.61565 4.64434 7.76568C4.79437 7.91571 4.99786 8 5.21004 8H8.4101C8.62228 8 8.82576 8.08428 8.97579 8.23431C9.12583 8.38434 9.21011 8.58782 9.21011 8.8C9.21011 9.01217 9.12583 9.21565 8.97579 9.36568C8.82576 9.51571 8.62228 9.59999 8.4101 9.59999H2.00998C1.7978 9.59999 1.59431 9.68428 1.44428 9.83431C1.29425 9.98434 1.20996 10.1878 1.20996 10.4C1.20996 10.6122 1.29425 10.8157 1.44428 10.9657C1.59431 11.1157 1.7978 11.2 2.00998 11.2H3.61001C3.82218 11.2 4.02567 11.2843 4.1757 11.4343C4.32573 11.5843 4.41002 11.7878 4.41002 12C4.41002 12.2122 4.32573 12.4157 4.1757 12.5657C4.02567 12.7157 3.82218 12.8 3.61001 12.8H2.80999C2.59781 12.8 2.39433 12.8843 2.2443 13.0343C2.09426 13.1843 2.00998 13.3878 2.00998 13.6C2.00998 13.8122 2.09426 14.0156 2.2443 14.1657C2.39433 14.3157 2.59781 14.4 2.80999 14.4H5.09003C5.17642 14.7374 5.34084 15.0498 5.57004 15.312C5.76427 15.5291 6.00228 15.7027 6.2684 15.8213C6.53452 15.9399 6.82273 16.0008 7.11407 16C7.60708 15.9859 8.08495 15.8265 8.48773 15.5419C8.89051 15.2573 9.20026 14.86 9.37812 14.4H15.4902C15.5766 14.7374 15.741 15.0498 15.9702 15.312C16.1645 15.5291 16.4025 15.7027 16.6686 15.8213C16.9347 15.9399 17.2229 16.0008 17.5143 16C18.0073 15.9859 18.4851 15.8265 18.8879 15.5419C19.2907 15.2573 19.6005 14.86 19.7783 14.4H21.3783C21.5761 14.4012 21.7673 14.3291 21.9151 14.1976C22.0628 14.0661 22.1566 13.8846 22.1784 13.688L22.7944 8.088C22.8163 7.94945 22.7968 7.80751 22.7384 7.68ZM7.11407 14.4C7.04773 14.4029 6.9816 14.3907 6.92064 14.3643C6.85968 14.338 6.80547 14.2982 6.76207 14.248C6.69927 14.1703 6.65332 14.0804 6.62715 13.984C6.60098 13.8876 6.59516 13.7868 6.61006 13.688C6.6305 13.4634 6.72748 13.2526 6.88476 13.0909C7.04205 12.9293 7.2501 12.8266 7.47408 12.8C7.54042 12.7971 7.60655 12.8093 7.66751 12.8356C7.72847 12.862 7.78269 12.9017 7.82609 12.952C7.88889 13.0297 7.93483 13.1196 7.961 13.216C7.98717 13.3124 7.99299 13.4132 7.97809 13.512C7.95766 13.7366 7.86068 13.9474 7.70339 14.109C7.5461 14.2707 7.33805 14.3734 7.11407 14.4ZM17.5143 14.4C17.4479 14.4029 17.3818 14.3907 17.3208 14.3643C17.2599 14.338 17.2057 14.2982 17.1623 14.248C17.0995 14.1703 17.0535 14.0804 17.0274 13.984C17.0012 13.8876 16.9954 13.7868 17.0103 13.688C17.0307 13.4634 17.1277 13.2526 17.285 13.0909C17.4423 12.9293 17.6503 12.8266 17.8743 12.8C17.9406 12.7971 18.0067 12.8093 18.0677 12.8356C18.1287 12.862 18.1829 12.9017 18.2263 12.952C18.2891 13.0297 18.335 13.1196 18.3612 13.216C18.3874 13.3124 18.3932 13.4132 18.3783 13.512C18.3579 13.7366 18.2609 13.9474 18.1036 14.109C17.9463 14.2707 17.7382 14.3734 17.5143 14.4ZM21.1143 8.8H17.5783C17.4666 8.79973 17.3563 8.77611 17.2543 8.73064C17.1524 8.68517 17.0611 8.61887 16.9863 8.536C16.9108 8.452 16.8539 8.35296 16.8194 8.24541C16.785 8.13786 16.7737 8.02423 16.7863 7.912L17.0503 5.512C17.0738 5.31687 17.1684 5.13725 17.316 5.00741C17.4635 4.87756 17.6537 4.80658 17.8503 4.808H19.7143L21.2103 8.128L21.1143 8.8Z" fill="white"/>
<path d="M2.01019 8.00015C2.22236 8.00015 2.42585 7.91586 2.57588 7.76583C2.72591 7.6158 2.8102 7.41232 2.8102 7.20015C2.8102 6.98797 2.72591 6.78449 2.57588 6.63446C2.42585 6.48443 2.22236 6.40015 2.01019 6.40015H1.21017C0.997994 6.40015 0.794507 6.48443 0.644475 6.63446C0.494443 6.78449 0.410156 6.98797 0.410156 7.20015C0.410156 7.41232 0.494443 7.6158 0.644475 7.76583C0.794507 7.91586 0.997994 8.00015 1.21017 8.00015H2.01019Z" fill="white"/>
</svg>
