<svg width="17" height="16" viewBox="0 0 17 16" fill="none" xmlns="http://www.w3.org/2000/svg">
<path d="M15.9308 4.549L11.519 0.137313C11.4311 0.0494063 11.3119 0 11.1876 0H4.94874C4.8244 0 4.70518 0.049375 4.61727 0.137281L0.205396 4.549C0.11749 4.63697 0.0681152 4.75619 0.0681152 4.8805V11.1196C0.0681152 11.2439 0.11749 11.3631 0.205396 11.451L4.61727 15.8627C4.70518 15.9506 4.82443 16 4.94874 16H11.1876C11.312 16 11.4311 15.9506 11.5191 15.8627L15.9308 11.451C16.0187 11.3631 16.0681 11.2439 16.0681 11.1196V4.8805C16.0681 4.75619 16.0187 4.63697 15.9308 4.549ZM7.59937 3.98334C7.59937 3.72447 7.80921 3.51459 8.06812 3.51459C8.32696 3.51459 8.53687 3.72447 8.53687 3.98334V9.00416C8.53687 9.26303 8.32696 9.47291 8.06812 9.47291C7.80921 9.47291 7.59937 9.26303 7.59937 9.00416V3.98334ZM8.39946 12.3482C8.3123 12.4353 8.19133 12.4853 8.06824 12.4853C7.94477 12.4853 7.82386 12.4353 7.73668 12.3482C7.64949 12.2609 7.59949 12.14 7.59949 12.0166C7.59949 11.8935 7.64949 11.7725 7.73668 11.6853C7.82386 11.5978 7.94477 11.5478 8.06824 11.5478C8.19133 11.5478 8.3123 11.5978 8.39946 11.6853C8.48668 11.7725 8.53696 11.8931 8.53696 12.0166C8.53699 12.14 8.48668 12.2609 8.39946 12.3482Z" fill="white"/>
</svg>
