<svg width="18" height="16" viewBox="0 0 18 16" fill="none" xmlns="http://www.w3.org/2000/svg">
<path fill-rule="evenodd" clip-rule="evenodd" d="M0.546875 13.6309C0.546875 14.9393 1.60754 16 2.91593 16H11.1693C12.4776 16 13.5383 14.9393 13.5383 13.6309V2.36912C13.5383 1.0607 12.4776 0 11.1693 0H2.91593C1.60754 0 0.546875 1.0607 0.546875 2.36912V13.6309ZM8.88904 4.90238C8.51395 4.59614 8.09226 4.40069 7.66628 4.30691V3.67681C7.66628 3.35588 7.40611 3.09571 7.08519 3.09571C6.76425 3.09571 6.5041 3.35588 6.5041 3.67681V4.30128C5.88596 4.43719 5.31571 4.80684 5.02834 5.41584C4.73241 6.04298 4.74942 6.69051 5.12125 7.2648C5.46592 7.79716 6.07394 8.20206 6.82388 8.5132C7.50809 8.79706 7.87464 9.09893 8.04488 9.3606C8.19491 9.59124 8.2239 9.83624 8.1084 10.1467C8.00472 10.4254 7.69585 10.6407 7.17003 10.6593C6.6502 10.6778 6.08824 10.484 5.73664 10.1479C5.50465 9.92609 5.13682 9.93438 4.91507 10.1664C4.6933 10.3983 4.70159 10.7662 4.93355 10.9879C5.36316 11.3987 5.92943 11.6593 6.5041 11.7666V12.3231C6.5041 12.6441 6.76425 12.9042 7.08519 12.9042C7.40611 12.9042 7.66628 12.6441 7.66628 12.3231V11.7678C8.30925 11.6387 8.93017 11.2709 9.19765 10.5519C9.4278 9.93328 9.3903 9.29753 9.01905 8.72684C8.66801 8.18717 8.05851 7.76714 7.26922 7.43969C6.61332 7.16758 6.25633 6.87957 6.09678 6.63314C5.96438 6.42864 5.93796 6.2115 6.07937 5.91181C6.19387 5.6692 6.47131 5.46579 6.87888 5.41487C7.2793 5.36483 7.7525 5.47484 8.15408 5.80267C8.40267 6.00564 8.76874 5.96862 8.97169 5.72002C9.17465 5.47142 9.13764 5.10535 8.88904 4.90238Z" fill="white"/>
<path d="M14.6504 13.7324C14.6504 14.0533 14.9106 14.3135 15.2315 14.3135H16.0535C16.8682 14.3135 17.5286 13.6531 17.5286 12.8384V5.67677C17.5286 4.86209 16.8682 4.20166 16.0535 4.20166H15.2315C15.0774 4.20166 14.9296 4.26288 14.8206 4.37186C14.7116 4.48084 14.6504 4.62864 14.6504 4.78277V13.7324Z" fill="white"/>
</svg>
