<svg xmlns="http://www.w3.org/2000/svg" width="24" height="24" viewBox="0 0 24 24" fill="none">
<path d="M8.15245 13.1299C8.41509 12.8286 8.20114 12.3582 7.80143 12.3582H6.6047C6.59691 12.2398 6.59255 12.1205 6.59255 12.0001C6.59255 9.01844 9.0183 6.59269 12 6.59269C13.4328 6.59269 14.7371 7.15308 15.7057 8.06595L17.3932 6.09179C15.916 4.74044 14.015 4.00024 12 4.00024C9.86312 4.00024 7.85419 4.8324 6.34321 6.34335C4.83226 7.85433 4.0001 9.86327 4.0001 12.0001C4.0001 12.1199 4.0031 12.2392 4.0083 12.3582H3.00029C2.60058 12.3582 2.38659 12.8286 2.64928 13.1299L4.92322 15.7382L5.40084 16.2861L7.11569 14.319L8.15245 13.1299Z" fill="#ffffff"/>
<path d="M21.3507 11.6081L19.6547 9.66264L18.5991 8.4519L17.0921 10.1805L15.8476 11.6081C15.5849 11.9094 15.7989 12.3798 16.1986 12.3798H17.3939C17.1984 15.185 14.854 17.4075 12 17.4075C10.7542 17.4075 9.60556 16.9838 8.69025 16.2732L7.00262 18.2475C8.41641 19.3829 10.1607 20 12.0001 20C14.1369 20 16.1458 19.1679 17.6568 17.6569C19.0779 16.2357 19.8984 14.3741 19.9909 12.3798H20.9997C21.3994 12.3798 21.6134 11.9094 21.3507 11.6081Z" fill="#ffffff"/>
</svg>