<svg width="28" height="28" viewBox="0 0 28 28" fill="none" xmlns="http://www.w3.org/2000/svg">
<path d="M9.38354 25.4741C9.06854 25.4741 8.74228 25.3954 8.44978 25.2379C7.80853 24.9004 7.41479 24.2254 7.41479 23.5054V21.908C4.01729 21.5592 1.78979 19.0616 1.78979 15.4841V8.73419C1.78979 4.86419 4.38854 2.26544 8.25854 2.26544H19.5085C23.3785 2.26544 25.9773 4.86419 25.9773 8.73419V15.4841C25.9773 19.3541 23.3785 21.9529 19.5085 21.9529H15.2673L10.4748 25.148C10.1485 25.3617 9.76605 25.4741 9.38354 25.4741ZM8.25854 3.94168C5.35605 3.94168 3.47729 5.82043 3.47729 8.72293V15.473C3.47729 18.3755 5.35605 20.2542 8.25854 20.2542C8.71979 20.2542 9.10229 20.6367 9.10229 21.098V23.4943C9.10229 23.6405 9.1923 23.708 9.24855 23.7417C9.3048 23.7755 9.41731 23.8092 9.54106 23.7305L14.5473 20.4005C14.6823 20.3105 14.8511 20.2542 15.0198 20.2542H19.5198C22.4223 20.2542 24.3011 18.3755 24.3011 15.473V8.72293C24.3011 5.82043 22.4223 3.94168 19.5198 3.94168H8.25854Z" fill="#4F4F4F"/>
<path d="M13.8833 13.988C13.4221 13.988 13.0396 13.6055 13.0396 13.1442V12.908C13.0396 11.603 13.9958 10.9618 14.3558 10.7143C14.7721 10.433 14.9071 10.2418 14.9071 9.94928C14.9071 9.38678 14.4458 8.92549 13.8833 8.92549C13.3208 8.92549 12.8596 9.38678 12.8596 9.94928C12.8596 10.4105 12.4771 10.793 12.0159 10.793C11.5546 10.793 11.1721 10.4105 11.1721 9.94928C11.1721 8.45303 12.3871 7.23799 13.8833 7.23799C15.3796 7.23799 16.5946 8.45303 16.5946 9.94928C16.5946 11.2318 15.6496 11.873 15.3008 12.1093C14.8621 12.4018 14.7271 12.593 14.7271 12.908V13.1442C14.7271 13.6167 14.3446 13.988 13.8833 13.988Z" fill="#4F4F4F"/>
<path d="M13.8835 16.7892C13.411 16.7892 13.0398 16.4067 13.0398 15.9455C13.0398 15.4842 13.4223 15.1017 13.8835 15.1017C14.3448 15.1017 14.7273 15.4842 14.7273 15.9455C14.7273 16.4067 14.356 16.7892 13.8835 16.7892Z" fill="#4F4F4F"/>
</svg>
