<svg width="16" height="16" viewBox="0 0 16 16" fill="none" xmlns="http://www.w3.org/2000/svg">
<path d="M15.4133 8.8532C14.7438 8.6814 14.0949 8.43744 13.478 8.12559C13.2876 8.03035 13.1123 7.93892 12.9523 7.8513C12.6361 7.67606 12.3847 7.51987 12.2209 7.41321C12.2116 7.40663 12.2013 7.4015 12.1904 7.39797C12.0697 7.32758 11.9319 7.29176 11.7921 7.29445C11.6523 7.29714 11.516 7.33822 11.3981 7.41321C10.4151 8.05598 9.33809 8.5418 8.20568 8.8532C8.03897 8.89371 7.89063 8.98887 7.7843 9.1235C7.67797 9.25814 7.61979 9.4245 7.61902 9.59606V10.2475C7.61862 11.1883 7.85072 12.1146 8.29468 12.944C8.73865 13.7735 9.38071 14.4803 10.1638 15.0018L10.5181 15.2379L11.3866 15.817C11.4555 15.8623 11.5315 15.8958 11.6114 15.916H11.6152C11.6777 15.9376 11.7434 15.9479 11.8095 15.9465C11.96 15.9452 12.1069 15.9002 12.2323 15.817L13.4552 15.0018C14.2382 14.4803 14.8803 13.7735 15.3243 12.944C15.7682 12.1146 16.0003 11.1883 15.9999 10.2475V9.59606C15.9992 9.4245 15.941 9.25814 15.8347 9.1235C15.7283 8.98887 15.58 8.89371 15.4133 8.8532ZM13.2228 10.937L11.699 12.4608C11.6268 12.5316 11.5297 12.5713 11.4285 12.5713C11.3274 12.5713 11.2303 12.5316 11.1581 12.4608L10.3962 11.6989C10.3244 11.6272 10.2841 11.5299 10.2841 11.4284C10.2841 11.327 10.3244 11.2297 10.3962 11.158C10.4679 11.0862 10.5652 11.0459 10.6666 11.0459C10.7681 11.0459 10.8654 11.0862 10.9371 11.158L11.4285 11.6532L12.6819 10.3961C12.7174 10.3605 12.7595 10.3324 12.806 10.3131C12.8524 10.2939 12.9021 10.284 12.9523 10.284C13.0026 10.284 13.0523 10.2939 13.0987 10.3131C13.1451 10.3324 13.1873 10.3605 13.2228 10.3961C13.2583 10.4316 13.2865 10.4737 13.3057 10.5201C13.3249 10.5666 13.3348 10.6163 13.3348 10.6665C13.3348 10.7168 13.3249 10.7665 13.3057 10.8129C13.2865 10.8593 13.2583 10.9015 13.2228 10.937Z" fill="#84909A"/>
<path d="M12.4114 3.90099L9.15425 0.571476C9.03734 0.453174 8.90543 0.350714 8.76187 0.266715V3.04766C8.76278 3.35048 8.88347 3.64065 9.0976 3.85478C9.31174 4.06891 9.6019 4.18961 9.90473 4.19051H12.6438C12.575 4.08731 12.4973 3.99042 12.4114 3.90099ZM12.9295 4.95242H9.90473C9.39955 4.95242 8.91507 4.75174 8.55786 4.39453C8.20065 4.03731 7.99997 3.55283 7.99997 3.04766V0.0152874C7.93194 0.00453315 7.86313 -0.000563638 7.79426 4.93674e-05H1.90475C1.39958 4.93674e-05 0.915101 0.200728 0.55789 0.55794C0.200679 0.915151 0 1.39963 0 1.90481V14.0952C0 14.6004 0.200679 15.0849 0.55789 15.4421C0.915101 15.7993 1.39958 16 1.90475 16H10.2895L9.74092 15.6343C8.8533 15.0439 8.1255 14.2431 7.62234 13.3032C7.11919 12.3634 6.85631 11.3137 6.85712 10.2476V9.59621C6.85726 9.36061 6.91204 9.12826 7.01714 8.9174C7.12223 8.70654 7.27479 8.52292 7.46283 8.38098H2.66666C2.56562 8.38098 2.46873 8.34084 2.39728 8.2694C2.32584 8.19796 2.28571 8.10106 2.28571 8.00002C2.28571 7.89899 2.32584 7.80209 2.39728 7.73065C2.46873 7.65921 2.56562 7.61907 2.66666 7.61907H9.42473C9.96416 7.37582 10.4849 7.09315 10.9828 6.77336C11.2062 6.63146 11.4624 6.54955 11.7266 6.53553C11.9909 6.52152 12.2543 6.57588 12.4914 6.69336L12.518 6.70479L12.6323 6.77336C12.7123 6.8267 12.819 6.89146 12.9523 6.97146V5.23432C12.9525 5.13988 12.9448 5.0456 12.9295 4.95242ZM6.85712 12.5714C6.85712 12.6725 6.81698 12.7694 6.74554 12.8408C6.6741 12.9123 6.5772 12.9524 6.47617 12.9524H2.66666C2.56562 12.9524 2.46873 12.9123 2.39728 12.8408C2.32584 12.7694 2.28571 12.6725 2.28571 12.5714C2.28571 12.4704 2.32584 12.3735 2.39728 12.3021C2.46873 12.2306 2.56562 12.1905 2.66666 12.1905H6.47617C6.5772 12.1905 6.6741 12.2306 6.74554 12.3021C6.81698 12.3735 6.85712 12.4704 6.85712 12.5714ZM2.66666 9.90478H5.71426C5.8153 9.90478 5.9122 9.94492 5.98364 10.0164C6.05508 10.0878 6.09522 10.1847 6.09522 10.2857C6.09522 10.3868 6.05508 10.4837 5.98364 10.5551C5.9122 10.6265 5.8153 10.6667 5.71426 10.6667H2.66666C2.56562 10.6667 2.46873 10.6265 2.39728 10.5551C2.32584 10.4837 2.28571 10.3868 2.28571 10.2857C2.28571 10.1847 2.32584 10.0878 2.39728 10.0164C2.46873 9.94492 2.56562 9.90478 2.66666 9.90478ZM2.66666 3.04766H5.71426C5.8153 3.04766 5.9122 3.0878 5.98364 3.15924C6.05508 3.23068 6.09522 3.32758 6.09522 3.42861C6.09522 3.52964 6.05508 3.62654 5.98364 3.69798C5.9122 3.76943 5.8153 3.80956 5.71426 3.80956H2.66666C2.56562 3.80956 2.46873 3.76943 2.39728 3.69798C2.32584 3.62654 2.28571 3.52964 2.28571 3.42861C2.28571 3.32758 2.32584 3.23068 2.39728 3.15924C2.46873 3.0878 2.56562 3.04766 2.66666 3.04766ZM7.99997 6.09527H2.66666C2.56562 6.09527 2.46873 6.05513 2.39728 5.98369C2.32584 5.91225 2.28571 5.81535 2.28571 5.71432C2.28571 5.61328 2.32584 5.51639 2.39728 5.44494C2.46873 5.3735 2.56562 5.33337 2.66666 5.33337H7.99997C8.101 5.33337 8.1979 5.3735 8.26934 5.44494C8.34079 5.51639 8.38092 5.61328 8.38092 5.71432C8.38092 5.81535 8.34079 5.91225 8.26934 5.98369C8.1979 6.05513 8.101 6.09527 7.99997 6.09527Z" fill="#84909A"/>
</svg>
