<svg width="27" height="22" viewBox="0 0 27 22" fill="none" xmlns="http://www.w3.org/2000/svg">
<rect x="0.846191" y="0.540405" width="26.1015" height="21.3557" rx="4" fill="#FFF1D8"/>
<path d="M18.4682 15.5039H9.3254C8.85283 15.5039 8.46826 15.8885 8.46826 16.361C8.46826 16.8336 8.85283 17.2182 9.3254 17.2182H18.4682C18.9407 17.2182 19.3253 16.8336 19.3253 16.361C19.3253 15.8885 18.9407 15.5039 18.4682 15.5039Z" fill="#FFB229"/>
<path d="M19.8966 6.93243C19.2664 6.93243 18.7538 7.44501 18.7538 8.07528C18.7538 8.49872 18.9881 8.86499 19.3315 9.0627C18.6704 10.6284 17.6389 11.589 16.6749 11.5021C15.603 11.4147 14.7287 10.1473 14.2464 8.02671C14.8647 7.87012 15.3252 7.31298 15.3252 6.64671C15.3252 5.85871 14.6847 5.21814 13.8967 5.21814C13.1087 5.21814 12.4681 5.85871 12.4681 6.64671C12.4681 7.31301 12.9287 7.87015 13.5469 8.02671C13.0647 10.1473 12.1904 11.4147 11.1184 11.5021C10.1584 11.589 9.12241 10.6284 8.46187 9.0627C8.80528 8.86499 9.03957 8.49869 9.03957 8.07528C9.03957 7.44501 8.52699 6.93243 7.89672 6.93243C7.26648 6.93243 6.75391 7.44501 6.75391 8.07528C6.75391 8.66158 7.19961 9.14043 7.76874 9.20556L8.86932 14.9324H18.9241L20.0246 9.20556C20.5938 9.14043 21.0395 8.66158 21.0395 8.07528C21.0395 7.44501 20.5269 6.93243 19.8966 6.93243Z" fill="#FFB229"/>
</svg>
