<svg width="16" height="16" viewBox="0 0 16 16" fill="none" xmlns="http://www.w3.org/2000/svg">
<path d="M10.8439 5.68762C8.00072 5.68762 5.68762 8.00072 5.68762 10.8439C5.68762 13.687 8.00072 16.0001 10.8439 16.0001C13.687 16.0001 16.0001 13.687 16.0001 10.8439C16.0001 8.00072 13.687 5.68762 10.8439 5.68762ZM10.8439 10.3751C11.6193 10.3751 12.2501 11.0059 12.2501 11.7814C12.2501 12.3917 11.8571 12.9071 11.3126 13.1013V14.1251H10.3751V13.1013C9.83068 12.9071 9.43762 12.3917 9.43762 11.7814H10.3751C10.3751 12.04 10.5852 12.2501 10.8439 12.2501C11.1025 12.2501 11.3126 12.04 11.3126 11.7814C11.3126 11.5227 11.1025 11.3126 10.8439 11.3126C10.0684 11.3126 9.43762 10.6818 9.43762 9.90637C9.43762 9.29606 9.83068 8.78062 10.3751 8.58647V7.56262H11.3126V8.58647C11.8571 8.78062 12.2501 9.29606 12.2501 9.90637H11.3126C11.3126 9.64775 11.1025 9.43762 10.8439 9.43762C10.5852 9.43762 10.3751 9.64775 10.3751 9.90637C10.3751 10.165 10.5852 10.3751 10.8439 10.3751Z" fill="#84909A"/>
<path d="M5.21875 5.6875C8.11 5.6875 10.375 4.452 10.375 2.875C10.375 1.298 8.11 0 5.21875 0C2.3275 0 0 1.298 0 2.875C0 4.452 2.3275 5.6875 5.21875 5.6875Z" fill="#84909A"/>
<path d="M0.00012207 10.5487V11.3125C0.00012207 12.8895 2.32762 14.125 5.21887 14.125C5.38287 14.125 5.54178 14.1099 5.70325 14.102C5.34368 13.5366 5.07553 12.9093 4.91762 12.2387C2.82684 12.181 1.01143 11.5385 0.00012207 10.5487Z" fill="#84909A"/>
<path d="M4.77265 11.2886C4.7619 11.1412 4.75012 10.9939 4.75012 10.8437C4.75012 10.3551 4.81415 9.88214 4.92334 9.42646C2.82997 9.36974 1.01234 8.72692 0.00012207 7.73621V8.49999C0.00012207 9.99333 2.10206 11.1669 4.77265 11.2886Z" fill="#84909A"/>
<path d="M5.21887 8.49999C5.21937 8.49999 5.21978 8.49992 5.22031 8.49992C5.52947 7.76105 5.97887 7.09499 6.53697 6.53693C6.11362 6.59043 5.67612 6.62499 5.21887 6.62499C2.99334 6.62499 1.06031 5.96133 0.00012207 4.92371V5.68749C0.00012207 7.26449 2.32762 8.49999 5.21887 8.49999Z" fill="#84909A"/>
</svg>
