<svg width="15" height="16" viewBox="0 0 15 16" fill="none" xmlns="http://www.w3.org/2000/svg">
<path d="M4.8 10.4001C4.8 9.36012 4.16 8.48012 3.2 8.16012V0.800122C3.2 0.320122 2.88 0.00012207 2.4 0.00012207C1.92 0.00012207 1.6 0.320122 1.6 0.800122V8.16012C0.64 8.48012 0 9.36012 0 10.4001C0 11.4401 0.64 12.3201 1.6 12.6401V15.2001C1.6 15.6801 1.92 16.0001 2.4 16.0001C2.88 16.0001 3.2 15.6801 3.2 15.2001V12.6401C4.16 12.3201 4.8 11.4401 4.8 10.4001Z" fill="#84909A"/>
<path d="M9.59981 5.60012C9.59981 4.56012 8.95981 3.68012 7.99981 3.36012V0.800122C7.99981 0.320122 7.67981 0.00012207 7.19981 0.00012207C6.71981 0.00012207 6.39981 0.320122 6.39981 0.800122V3.36012C5.4398 3.68012 4.7998 4.56012 4.7998 5.60012C4.7998 6.64012 5.4398 7.52012 6.39981 7.84012V15.2001C6.39981 15.6801 6.71981 16.0001 7.19981 16.0001C7.67981 16.0001 7.99981 15.6801 7.99981 15.2001V7.84012C8.95981 7.52012 9.59981 6.64012 9.59981 5.60012Z" fill="#84909A"/>
<path d="M14.4002 10.4C14.4002 9.36 13.7602 8.48 12.8002 8.16V0.8C12.8002 0.32 12.4802 0 12.0002 0C11.5202 0 11.2002 0.32 11.2002 0.8V8.16C10.2402 8.48 9.60016 9.36 9.60016 10.4C9.60016 11.44 10.2402 12.32 11.2002 12.64V15.2C11.2002 15.68 11.5202 16 12.0002 16C12.4802 16 12.8002 15.68 12.8002 15.2V12.64C13.7602 12.32 14.4002 11.44 14.4002 10.4Z" fill="#84909A"/>
</svg>
