<svg width="16" height="16" viewBox="0 0 16 16" fill="none" xmlns="http://www.w3.org/2000/svg">
<g clip-path="url(#clip0_3614_4583)">
<path d="M7.99988 8.88002C8.48787 8.88002 8.8799 8.48402 8.8799 8.00001C8.8799 7.51599 8.48791 7.12 7.99988 7.12C7.51587 7.12 7.11987 7.51599 7.11987 8.00001C7.11987 8.48402 7.51591 8.88002 7.99988 8.88002Z" fill="#84909A"/>
<path d="M7.99998 0C3.58001 0 0 3.58001 0 7.99998C0 12.416 3.58001 16 7.99998 16C12.42 16 16 12.416 16 7.99998C16 3.58001 12.42 0 7.99998 0ZM9.75198 9.75198L3.19999 12.8L6.24798 6.24798L12.8 3.19999L9.75198 9.75198Z" fill="#84909A"/>
</g>
<defs>
<clipPath id="clip0_3614_4583">
<rect width="16" height="16" fill="white"/>
</clipPath>
</defs>
</svg>
