<svg width="18" height="19" viewBox="0 0 18 19" fill="none" xmlns="http://www.w3.org/2000/svg">
<path d="M14.3858 6.20784L13.3158 7.27782L11.1615 5.1235L12.2315 4.05352C12.5331 3.75191 12.9209 3.60829 13.3086 3.60829C13.6964 3.60829 14.0842 3.75191 14.3858 4.05352C14.9818 4.64955 14.9818 5.61181 14.3858 6.20784Z" fill="#84909A"/>
<path d="M12.8131 7.78768L5.05032 15.5433C4.45429 16.1393 3.49203 16.1393 2.896 15.5433C2.29997 14.9472 2.29997 13.985 2.896 13.3889L10.6588 5.63335L12.8131 7.78768Z" fill="#84909A"/>
<path d="M7.52797 3.33541L7.82239 2.33724C7.85112 2.24388 7.82239 2.14335 7.75776 2.07154C7.69313 1.99972 7.57824 1.971 7.48488 1.99972L6.48671 2.29415L5.48854 1.99972C5.39518 1.971 5.29465 1.99972 5.22284 2.06435C5.15103 2.13617 5.12948 2.2367 5.15821 2.33005L5.44545 3.33541L5.15103 4.33358C5.1223 4.42693 5.15103 4.52747 5.21566 4.59928C5.28747 4.67109 5.388 4.69263 5.48136 4.66391L6.48671 4.37667L7.48488 4.67109C7.51361 4.67827 7.53515 4.68545 7.56387 4.68545C7.63568 4.68545 7.70031 4.65673 7.75776 4.60646C7.82957 4.53465 7.85112 4.43411 7.82239 4.34076L7.52797 3.33541Z" fill="#84909A"/>
<path d="M4.65541 7.64406L4.94983 6.64589C4.97856 6.55253 4.94983 6.452 4.8852 6.38019C4.81339 6.30838 4.71286 6.28683 4.6195 6.31556L3.61415 6.6028L2.61598 6.30838C2.52263 6.27965 2.42209 6.30838 2.35028 6.37301C2.27847 6.44482 2.25693 6.54535 2.28565 6.63871L2.57289 7.64406L2.27847 8.64223C2.24974 8.73558 2.27847 8.83612 2.3431 8.90793C2.41491 8.97974 2.51544 9.00129 2.6088 8.97256L3.60697 8.67814L4.60514 8.97256C4.62669 8.97974 4.65541 8.97974 4.68413 8.97974C4.75594 8.97974 4.82057 8.95102 4.87802 8.90075C4.94983 8.82894 4.97138 8.7284 4.94265 8.63505L4.65541 7.64406Z" fill="#84909A"/>
<path d="M15.4271 11.2346L15.7216 10.2364C15.7503 10.1431 15.7216 10.0425 15.6569 9.97073C15.5851 9.89892 15.4846 9.87737 15.3912 9.9061L14.3931 10.2005L13.3949 9.9061C13.3015 9.87737 13.201 9.9061 13.1292 9.97073C13.0574 10.0425 13.0358 10.1431 13.0646 10.2364L13.359 11.2346L13.0646 12.2328C13.0358 12.3261 13.0646 12.4267 13.1292 12.4985C13.201 12.5703 13.3015 12.5918 13.3949 12.5631L14.3931 12.2687L15.3912 12.5631C15.4128 12.5703 15.4415 12.5703 15.4702 12.5703C15.542 12.5703 15.6067 12.5416 15.6641 12.4913C15.7359 12.4195 15.7575 12.3189 15.7287 12.2256L15.4271 11.2346Z" fill="#84909A"/>
</svg>
