<svg width="25" height="24" viewBox="0 0 25 24" fill="none" xmlns="http://www.w3.org/2000/svg">
<path d="M5.89706 18.49V15.57C5.89706 14.6 6.65706 13.73 7.73706 13.73C8.70706 13.73 9.57706 14.49 9.57706 15.57V18.38C9.57706 20.33 7.95706 21.9501 6.00706 21.9501C4.05706 21.9501 2.43706 20.32 2.43706 18.38V12.22C2.32706 6.60005 6.76706 2.05005 12.3871 2.05005C18.0071 2.05005 22.4371 6.60005 22.4371 12.11V18.2701C22.4371 20.2201 20.8171 21.84 18.8671 21.84C16.9171 21.84 15.2971 20.2201 15.2971 18.2701V15.46C15.2971 14.49 16.0571 13.62 17.1371 13.62C18.1071 13.62 18.9771 14.38 18.9771 15.46V18.49" stroke="#292D32" stroke-width="1.5" stroke-linecap="round" stroke-linejoin="round"/>
</svg>
