<svg width="25" height="24" viewBox="0 0 25 24" fill="none" xmlns="http://www.w3.org/2000/svg">
<path d="M3.18707 18.65C2.77707 18.65 2.43707 18.31 2.43707 17.9V12.2C2.38707 9.49005 3.39707 6.93005 5.27707 5.01005C7.15707 3.10005 9.67707 2.05005 12.3871 2.05005C17.9271 2.05005 22.4371 6.56005 22.4371 12.1V17.8C22.4371 18.21 22.0971 18.55 21.6871 18.55C21.2771 18.55 20.9371 18.21 20.9371 17.8V12.1C20.9371 7.39005 17.1071 3.55005 12.3871 3.55005C10.0771 3.55005 7.93707 4.44005 6.34707 6.06005C4.74707 7.69005 3.89707 9.86005 3.93707 12.18V17.89C3.93707 18.31 3.60707 18.65 3.18707 18.65Z" fill="white"/>
<path d="M6.37701 12.45H6.24701C4.14701 12.45 2.43701 14.16 2.43701 16.26V18.14C2.43701 20.24 4.14701 21.95 6.24701 21.95H6.37701C8.47701 21.95 10.187 20.24 10.187 18.14V16.26C10.187 14.16 8.47701 12.45 6.37701 12.45Z" fill="white"/>
<path d="M18.627 12.45H18.497C16.397 12.45 14.687 14.16 14.687 16.26V18.14C14.687 20.24 16.397 21.95 18.497 21.95H18.627C20.727 21.95 22.437 20.24 22.437 18.14V16.26C22.437 14.16 20.727 12.45 18.627 12.45Z" fill="white"/>
</svg>
