<svg width="17" height="16" viewBox="0 0 17 16" fill="none" xmlns="http://www.w3.org/2000/svg">
<path d="M7.23488 7.2359C7.24304 7.22774 7.25003 7.21959 7.25702 7.21143C7.25702 7.21026 7.25935 7.20909 7.25935 7.20793C7.26518 7.20094 7.27101 7.19278 7.27684 7.18462C7.27684 7.18462 7.27801 7.18229 7.27917 7.18112C7.31297 7.12867 7.33278 7.06689 7.33278 7.00045C7.33278 6.90487 7.29199 6.81864 7.22788 6.75803L4.56803 4.09815C4.43749 3.96761 4.22651 3.96761 4.09714 4.09815C3.96659 4.2287 3.96659 4.43967 4.09714 4.56905L6.19518 6.66594H0.333476C0.149314 6.66594 0.00012207 6.81512 0.00012207 6.99928C0.00012207 7.18345 0.149314 7.33265 0.333476 7.33265H6.19518L4.09714 9.43071C3.96659 9.56125 3.96659 9.77223 4.09714 9.90161C4.16241 9.96572 4.2475 9.9995 4.33258 9.9995C4.41767 9.9995 4.50276 9.96688 4.56803 9.90161L7.23488 7.23473V7.2359Z" fill="#84909A"/>
<path fill-rule="evenodd" clip-rule="evenodd" d="M7.00126 0H14.6673H14.6684C15.4039 0 16.0019 0.597939 16.0019 1.33342V13.3331C16.0019 13.9054 15.6347 14.4136 15.0869 14.5955L11.0866 15.9289C10.9584 15.9755 10.815 16 10.6682 16C9.93268 16 9.33473 15.402 9.33473 14.6665V13.9998H7.00126C6.08278 13.9998 5.33447 13.2515 5.33447 12.333V10.9996C5.33447 10.8155 5.48367 10.6663 5.66783 10.6663C5.85199 10.6663 6.00118 10.8155 6.00118 10.9996V12.333C6.00118 12.8844 6.44994 13.3331 7.00126 13.3331H9.33473V2.66685C9.33473 2.09338 9.7019 1.58634 10.2497 1.40334L12.4597 0.666712H7.00126C6.44994 0.666712 6.00118 1.11544 6.00118 1.66677V3.00022C6.00118 3.18438 5.85199 3.33356 5.66783 3.33356C5.48367 3.33356 5.33447 3.18438 5.33447 3.00022V1.66677C5.33447 0.748283 6.08278 0 7.00126 0Z" fill="#84909A"/>
</svg>
