<svg width="25" height="22" viewBox="0 0 25 22" fill="none" xmlns="http://www.w3.org/2000/svg">
<path d="M19.937 3.01245C19.937 2.41572 20.1741 1.84342 20.596 1.42146C21.018 0.999504 21.5903 0.762451 22.187 0.762451C22.7838 0.762451 23.3561 0.999504 23.778 1.42146C24.2 1.84342 24.437 2.41572 24.437 3.01245V19.5125C24.437 20.1092 24.2 20.6815 23.778 21.1035C23.3561 21.5254 22.7838 21.7625 22.187 21.7625C21.5903 21.7625 21.018 21.5254 20.596 21.1035C20.1741 20.6815 19.937 20.1092 19.937 19.5125V19.1912C16.6945 17.3287 13.202 16.4275 9.56952 16.0662L10.177 20.135C10.2174 20.3517 10.2095 20.5746 10.1541 20.788C10.0986 21.0013 9.99691 21.1998 9.85615 21.3695C9.71539 21.5391 9.53902 21.6757 9.33957 21.7695C9.14011 21.8634 8.92245 21.9122 8.70202 21.9125H7.88077C7.589 21.9126 7.30353 21.8277 7.05931 21.668C6.81508 21.5084 6.62272 21.281 6.50577 21.0137L3.73076 15.7787L3.42826 15.7737C2.63382 15.7662 1.87435 15.4458 1.31443 14.8822C0.754524 14.3185 0.439278 13.5569 0.437012 12.7625V9.76246C0.439883 8.96811 0.754579 8.20666 1.31334 7.64205C1.8721 7.07745 2.63024 6.75484 3.42451 6.74371C4.66672 6.72688 5.90856 6.68937 7.14952 6.63121C11.7145 6.39996 16.372 5.35621 19.937 3.3312V3.01245ZM21.437 3.01245V19.5125C21.437 19.7114 21.5161 19.9021 21.6567 20.0428C21.7974 20.1835 21.9881 20.2625 22.187 20.2625C22.3859 20.2625 22.5767 20.1835 22.7174 20.0428C22.858 19.9021 22.937 19.7114 22.937 19.5125V3.01245C22.937 2.81354 22.858 2.62278 22.7174 2.48212C22.5767 2.34147 22.3859 2.26245 22.187 2.26245C21.9881 2.26245 21.7974 2.34147 21.6567 2.48212C21.5161 2.62278 21.437 2.81354 21.437 3.01245ZM19.937 5.03746C16.422 6.84496 12.1245 7.79996 7.93702 8.08746V14.4362C8.20702 14.4512 8.47577 14.4687 8.74327 14.49C12.5945 14.7737 16.382 15.6062 19.937 17.48V5.03746ZM6.43702 14.36V8.16496C5.44202 8.20121 4.44577 8.22746 3.44951 8.24246C3.0485 8.24704 2.66531 8.40889 2.38244 8.69316C2.09956 8.97744 1.93961 9.36143 1.93701 9.76246V12.7625C1.93701 13.5875 2.60951 14.265 3.44701 14.275C4.44452 14.2875 5.44077 14.315 6.43702 14.36ZM5.45202 15.8225L7.86452 20.3775L7.88077 20.415H8.70202L8.69952 20.3925L8.03452 15.9437C7.17424 15.8919 6.31334 15.8523 5.45202 15.8225Z" fill="#292D32"/>
</svg>
