<svg width="25" height="22" viewBox="0 0 25 22" fill="none" xmlns="http://www.w3.org/2000/svg">
<path d="M19.937 3.01245C19.937 2.41572 20.1741 1.84342 20.596 1.42146C21.018 0.999504 21.5903 0.762451 22.187 0.762451C22.7838 0.762451 23.3561 0.999504 23.778 1.42146C24.2 1.84342 24.437 2.41572 24.437 3.01245V19.5125C24.437 20.1092 24.2 20.6815 23.778 21.1035C23.3561 21.5254 22.7838 21.7625 22.187 21.7625C21.5903 21.7625 21.018 21.5254 20.596 21.1035C20.1741 20.6815 19.937 20.1092 19.937 19.5125V3.01245ZM18.437 4.0987C15.337 5.52371 11.6283 6.31996 7.93702 6.58246V15.9375C8.48202 15.9687 9.02702 16.0112 9.56952 16.065C12.6483 16.3712 15.627 17.0675 18.437 18.405V4.0987ZM6.43702 15.86V6.66371C5.41702 6.70371 4.33952 6.72746 3.42451 6.74246C2.62981 6.7536 1.8713 7.07655 1.31247 7.6417C0.753635 8.20684 0.439229 8.96893 0.437012 9.76371V12.7637C0.439274 13.5583 0.754479 14.32 1.31436 14.8839C1.87423 15.4477 2.6337 15.7683 3.42826 15.7762C4.43154 15.7902 5.43456 15.8186 6.43702 15.8612V15.86ZM8.52202 17.4812C8.94952 17.5125 9.37577 17.5512 9.79702 17.5987L10.177 20.1337C10.2185 20.3507 10.2115 20.5741 10.1565 20.7881C10.1015 21.002 9.99986 21.2012 9.85892 21.3713C9.71798 21.5413 9.54118 21.6782 9.34118 21.772C9.14117 21.8657 8.92292 21.9141 8.70202 21.9137H7.88077C7.589 21.9139 7.30353 21.8289 7.05931 21.6693C6.81508 21.5097 6.62272 21.2823 6.50577 21.015L4.53702 17.295C5.38322 17.3164 6.22912 17.3485 7.07452 17.3912C7.56577 17.4162 8.04952 17.4462 8.52452 17.4812H8.52202Z" fill="white"/>
</svg>
