<svg width="25" height="24" viewBox="0 0 25 24" fill="none" xmlns="http://www.w3.org/2000/svg">
<path d="M22.0969 10.44L21.1169 14.62C20.2769 18.23 18.6169 19.69 15.4969 19.39C14.9969 19.35 14.4569 19.26 13.8769 19.12L12.1969 18.72C8.02695 17.73 6.73695 15.67 7.71695 11.49L8.69695 7.30001C8.89695 6.45001 9.13695 5.71001 9.43695 5.10001C10.6069 2.68001 12.5969 2.03001 15.9369 2.82001L17.6069 3.21001C21.7969 4.19001 23.0769 6.26001 22.0969 10.44Z" stroke="#292D32" stroke-width="1.5" stroke-linecap="round" stroke-linejoin="round"/>
<path d="M15.4971 19.3901C14.8771 19.8101 14.0971 20.1601 13.1471 20.4701L11.5671 20.9901C7.59711 22.2701 5.50711 21.2001 4.21711 17.2301L2.93711 13.2801C1.65711 9.3101 2.71711 7.2101 6.68711 5.9301L8.26711 5.4101C8.67711 5.2801 9.06711 5.1701 9.43711 5.1001C9.13711 5.7101 8.89711 6.4501 8.69711 7.3001L7.71711 11.4901C6.73711 15.6701 8.02711 17.7301 12.1971 18.7201L13.8771 19.1201C14.4571 19.2601 14.9971 19.3501 15.4971 19.3901Z" stroke="#292D32" stroke-width="1.5" stroke-linecap="round" stroke-linejoin="round"/>
<path d="M13.0769 8.53003L17.9269 9.76003" stroke="#292D32" stroke-width="1.5" stroke-linecap="round" stroke-linejoin="round"/>
<path d="M12.0969 12.3999L14.9969 13.1399" stroke="#292D32" stroke-width="1.5" stroke-linecap="round" stroke-linejoin="round"/>
</svg>
