<svg width="25" height="24" viewBox="0 0 25 24" fill="none" xmlns="http://www.w3.org/2000/svg">
<path d="M13.1148 19.957C13.3895 20.0209 13.4147 20.3807 13.1471 20.4699L11.5671 20.9899C7.59711 22.2699 5.50711 21.1999 4.21711 17.2299L2.93711 13.2799C1.65711 9.30992 2.71711 7.20992 6.68711 5.92992L7.21111 5.75639C7.61397 5.62297 8.00603 6.02703 7.89164 6.43571C7.83494 6.63828 7.78039 6.84968 7.72711 7.06992L6.74711 11.2599C5.64711 15.9699 7.25711 18.5699 11.9671 19.6899L13.1148 19.957Z" fill="white"/>
<path d="M17.6069 3.21001L15.9369 2.82001C12.5969 2.03001 10.6069 2.68001 9.43695 5.10001C9.13695 5.71001 8.89695 6.45001 8.69695 7.30001L7.71695 11.49C6.73695 15.67 8.02695 17.73 12.1969 18.72L13.8769 19.12C14.4569 19.26 14.9969 19.35 15.4969 19.39C18.6169 19.69 20.2769 18.23 21.1169 14.62L22.0969 10.44C23.0769 6.26001 21.7969 4.19001 17.6069 3.21001ZM15.7269 13.33C15.6369 13.67 15.3369 13.89 14.9969 13.89C14.9369 13.89 14.8769 13.88 14.8069 13.87L11.8969 13.13C11.4969 13.03 11.2569 12.62 11.3569 12.22C11.4569 11.82 11.8669 11.58 12.2669 11.68L15.1769 12.42C15.5869 12.52 15.8269 12.93 15.7269 13.33ZM18.6569 9.95001C18.5669 10.29 18.2669 10.51 17.9269 10.51C17.8669 10.51 17.8069 10.5 17.7369 10.49L12.8869 9.26001C12.4869 9.16001 12.2469 8.75001 12.3469 8.35001C12.4469 7.95001 12.8569 7.71001 13.2569 7.81001L18.1069 9.04001C18.5169 9.13001 18.7569 9.54001 18.6569 9.95001Z" fill="white"/>
</svg>
