<svg width="13" height="16" viewBox="0 0 13 16" fill="none" xmlns="http://www.w3.org/2000/svg">
<path d="M7.982 14.9025C7.662 15.552 6.99 16 6.2155 16C5.441 16 4.766 15.552 4.446 14.9025C4.9805 14.944 5.4955 14.96 5.96275 14.96H6.46525C6.9325 14.96 7.44775 14.944 7.982 14.9025ZM11.7892 9.925C10.5142 8.4 10.6642 6.775 10.5642 5.7C10.4267 4.072 10.1818 1.79375 7.11425 1.427V0.9C7.11425 0.4 6.71425 0 6.21425 0C5.71425 0 5.31425 0.4 5.31425 0.9V1.42725C2.24675 1.794 2.00175 4.07425 1.86425 5.725C1.76425 6.775 1.91425 8.425 0.639251 9.95C-0.360749 11.125 -0.0857492 12.425 0.764251 12.975C1.96425 13.725 4.01425 14.025 6.21425 14C8.41425 14.025 10.4642 13.725 11.6642 12.975C12.5142 12.4 12.7642 11.1 11.7892 9.925Z" fill="#84909A"/>
</svg>
