<svg width="18" height="16" viewBox="0 0 18 16" fill="none" xmlns="http://www.w3.org/2000/svg">
<path fill-rule="evenodd" clip-rule="evenodd" d="M4.35199 13.0203C4.65674 13.0203 4.95211 13.1262 5.18752 13.3199C6.08265 14.0564 8.14351 15.752 8.14351 15.752C8.54543 16.0827 9.12509 16.0827 9.52701 15.752C9.52701 15.752 11.5878 14.0564 12.483 13.3199C12.7183 13.1262 13.0137 13.0203 13.3185 13.0203H15.8621C16.3417 13.0203 16.8017 12.8298 17.1408 12.4907C17.48 12.1516 17.6704 11.6916 17.6704 11.2119C17.6704 8.34909 17.6704 4.67126 17.6704 1.80841C17.6704 1.32875 17.48 0.868792 17.1408 0.529668C16.8017 0.190543 16.3417 0 15.8621 0C12.5472 0 5.12324 0 1.80841 0C1.32882 0 0.868865 0.190543 0.529667 0.529668C0.190543 0.868792 0 1.32875 0 1.80841V11.2119C0 11.6916 0.190543 12.1516 0.529667 12.4907C0.868865 12.8298 1.32882 13.0203 1.80841 13.0203H4.35199Z" fill="#84909A"/>
<path fill-rule="evenodd" clip-rule="evenodd" d="M10.2045 1.74365C10.2045 2.08606 9.92694 2.36364 9.58453 2.36364C9.24212 2.36364 8.96454 2.08606 8.96454 1.74365C8.96454 1.40124 9.24212 1.12366 9.58453 1.12366C9.92694 1.12366 10.2045 1.40124 10.2045 1.74365ZM12.168 2.36364C12.5104 2.36364 12.788 2.08606 12.788 1.74365C12.788 1.40124 12.5104 1.12366 12.168 1.12366C11.8256 1.12366 11.548 1.40124 11.548 1.74365C11.548 2.08606 11.8256 2.36364 12.168 2.36364ZM14.7514 2.3638C15.0938 2.3638 15.3713 2.08622 15.3713 1.74381C15.3713 1.4014 15.0938 1.12382 14.7514 1.12382C14.4089 1.12382 14.1314 1.4014 14.1314 1.74381C14.1314 2.08622 14.4089 2.3638 14.7514 2.3638Z" fill="white"/>
<path fill-rule="evenodd" clip-rule="evenodd" d="M2.45411 1.89853H4.72746C4.81302 1.89853 4.88252 1.82904 4.88252 1.74348C4.88252 1.65792 4.81302 1.5885 4.72746 1.5885H2.45411C2.36855 1.5885 2.29913 1.65792 2.29913 1.74348C2.29913 1.82904 2.36855 1.89853 2.45411 1.89853Z" fill="white"/>
</svg>
