<svg width="19" height="16" viewBox="0 0 19 16" fill="none" xmlns="http://www.w3.org/2000/svg">
<path d="M-6.10352e-05 6.26683L6.82564 10.1748L8.5989 7.94986L1.41162 4.15491L-6.10352e-05 6.26683Z" fill="#84909A"/>
<path d="M10.2908 7.94077L12.0707 10.174L18.9089 6.25887L17.478 4L10.2908 7.94077Z" fill="#84909A"/>
<path d="M2.44788 3.44942L9.44372 7.14328L16.4496 3.30194L9.45896 -0.00012207L2.44788 3.44942Z" fill="#84909A"/>
<path d="M1.78247 12.2446L8.89505 16.0001V9.35463L7.39549 11.2361C7.22531 11.4497 6.9249 11.5072 6.68789 11.3715L1.78247 8.56299V12.2446Z" fill="#84909A"/>
<path d="M10.0018 9.35467V15.9829L17.1143 12.0776V8.56299L12.2089 11.3715C11.972 11.5071 11.6715 11.4497 11.5014 11.2361L10.0018 9.35467Z" fill="#84909A"/>
</svg>
