<svg width="23" height="16" viewBox="0 0 23 16" fill="none" xmlns="http://www.w3.org/2000/svg">
<path d="M22.3278 7.67987L20.5598 3.67988C20.4978 3.53802 20.3961 3.41717 20.2669 3.33197C20.1377 3.24677 19.9865 3.20089 19.8317 3.19988H15.5517L15.8077 0.887878C15.8203 0.775643 15.809 0.662012 15.7745 0.554461C15.74 0.446911 15.6832 0.347878 15.6077 0.263878C15.5329 0.181004 15.4415 0.114701 15.3396 0.0692341C15.2376 0.0237669 15.1273 0.000141793 15.0156 -0.00012207H3.99944C3.78726 -0.00012207 3.58377 0.0841635 3.43374 0.234193C3.28371 0.384222 3.19942 0.587704 3.19942 0.799878C3.19942 1.01205 3.28371 1.21553 3.43374 1.36556C3.58377 1.51559 3.78726 1.59988 3.99944 1.59988H7.99952C8.21169 1.59988 8.41518 1.68416 8.56521 1.83419C8.71524 1.98422 8.79953 2.1877 8.79953 2.39988C8.79953 2.61205 8.71524 2.81553 8.56521 2.96556C8.41518 3.11559 8.21169 3.19988 7.99952 3.19988H2.39941C2.18723 3.19988 1.98374 3.28416 1.83371 3.43419C1.68368 3.58422 1.59939 3.7877 1.59939 3.99988C1.59939 4.21205 1.68368 4.41553 1.83371 4.56556C1.98374 4.71559 2.18723 4.79988 2.39941 4.79988H10.3996C10.6117 4.79988 10.8152 4.88416 10.9653 5.03419C11.1153 5.18422 11.1996 5.3877 11.1996 5.59987C11.1996 5.81205 11.1153 6.01553 10.9653 6.16556C10.8152 6.31559 10.6117 6.39987 10.3996 6.39987H4.79945C4.58728 6.39987 4.38379 6.48416 4.23376 6.63419C4.08373 6.78422 3.99944 6.9877 3.99944 7.19987C3.99944 7.41205 4.08373 7.61553 4.23376 7.76556C4.38379 7.91559 4.58728 7.99987 4.79945 7.99987H7.99952C8.21169 7.99987 8.41518 8.08416 8.56521 8.23419C8.71524 8.38422 8.79953 8.5877 8.79953 8.79987C8.79953 9.01205 8.71524 9.21553 8.56521 9.36556C8.41518 9.51559 8.21169 9.59987 7.99952 9.59987H1.59939C1.38722 9.59987 1.18373 9.68416 1.0337 9.83419C0.883664 9.98422 0.799377 10.1877 0.799377 10.3999C0.799377 10.612 0.883664 10.8155 1.0337 10.9656C1.18373 11.1156 1.38722 11.1999 1.59939 11.1999H3.19942C3.4116 11.1999 3.61509 11.2842 3.76512 11.4342C3.91515 11.5842 3.99944 11.7877 3.99944 11.9999C3.99944 12.212 3.91515 12.4155 3.76512 12.5656C3.61509 12.7156 3.4116 12.7999 3.19942 12.7999H2.39941C2.18723 12.7999 1.98374 12.8842 1.83371 13.0342C1.68368 13.1842 1.59939 13.3877 1.59939 13.5999C1.59939 13.812 1.68368 14.0155 1.83371 14.1656C1.98374 14.3156 2.18723 14.3999 2.39941 14.3999H4.67945C4.76584 14.7373 4.93025 15.0496 5.15946 15.3119C5.35369 15.529 5.59169 15.7026 5.85781 15.8212C6.12393 15.9398 6.41215 16.0007 6.70349 15.9999C7.1965 15.9858 7.67437 15.8264 8.07715 15.5418C8.47993 15.2571 8.78967 14.8599 8.96753 14.3999H15.0796C15.166 14.7373 15.3305 15.0496 15.5597 15.3119C15.7539 15.529 15.9919 15.7026 16.258 15.8212C16.5241 15.9398 16.8123 16.0007 17.1037 15.9999C17.5967 15.9858 18.0746 15.8264 18.4773 15.5418C18.8801 15.2571 19.1899 14.8599 19.3677 14.3999H20.9678C21.1655 14.4011 21.3567 14.329 21.5045 14.1975C21.6522 14.066 21.746 13.8844 21.7678 13.6879L22.3838 8.08787C22.4057 7.94933 22.3862 7.80739 22.3278 7.67987ZM6.70349 14.3999C6.63715 14.4027 6.57102 14.3906 6.51006 14.3642C6.4491 14.3379 6.39488 14.2981 6.35148 14.2479C6.28868 14.1702 6.24274 14.0803 6.21657 13.9839C6.1904 13.8875 6.18458 13.7867 6.19948 13.6879C6.21991 13.4633 6.31689 13.2525 6.47418 13.0908C6.63147 12.9292 6.83952 12.8264 7.0635 12.7999C7.12984 12.797 7.19597 12.8092 7.25693 12.8355C7.31789 12.8618 7.3721 12.9016 7.4155 12.9519C7.4783 13.0296 7.52425 13.1195 7.55042 13.2159C7.57659 13.3123 7.58241 13.4131 7.56751 13.5119C7.54707 13.7365 7.45009 13.9473 7.29281 14.1089C7.13552 14.2706 6.92747 14.3733 6.70349 14.3999ZM17.1037 14.3999C17.0373 14.4027 16.9712 14.3906 16.9103 14.3642C16.8493 14.3379 16.7951 14.2981 16.7517 14.2479C16.6889 14.1702 16.6429 14.0803 16.6168 13.9839C16.5906 13.8875 16.5848 13.7867 16.5997 13.6879C16.6201 13.4633 16.7171 13.2525 16.8744 13.0908C17.0317 12.9292 17.2397 12.8264 17.4637 12.7999C17.53 12.797 17.5962 12.8092 17.6571 12.8355C17.7181 12.8618 17.7723 12.9016 17.8157 12.9519C17.8785 13.0296 17.9244 13.1195 17.9506 13.2159C17.9768 13.3123 17.9826 13.4131 17.9677 13.5119C17.9473 13.7365 17.8503 13.9473 17.693 14.1089C17.5357 14.2706 17.3277 14.3733 17.1037 14.3999ZM20.7038 8.79987H17.1677C17.0561 8.79961 16.9457 8.77598 16.8437 8.73052C16.7418 8.68505 16.6505 8.61875 16.5757 8.53587C16.5002 8.45187 16.4433 8.35284 16.4089 8.24529C16.3744 8.13774 16.3631 8.02411 16.3757 7.91187L16.6397 5.51188C16.6633 5.31675 16.7578 5.13713 16.9054 5.00728C17.053 4.87744 17.2431 4.80646 17.4397 4.80788H19.3037L20.7998 8.12787L20.7038 8.79987Z" fill="#84909A"/>
<path d="M1.59991 8.00002C1.81209 8.00002 2.01557 7.91574 2.1656 7.76571C2.31564 7.61568 2.39992 7.4122 2.39992 7.20002C2.39992 6.98785 2.31564 6.78437 2.1656 6.63434C2.01557 6.48431 1.81209 6.40002 1.59991 6.40002H0.799893C0.587716 6.40002 0.384229 6.48431 0.234197 6.63434C0.084165 6.78437 -0.00012207 6.98785 -0.00012207 7.20002C-0.00012207 7.4122 0.084165 7.61568 0.234197 7.76571C0.384229 7.91574 0.587716 8.00002 0.799893 8.00002H1.59991Z" fill="#84909A"/>
</svg>
