<svg width="16" height="16" viewBox="0 0 16 16" fill="none" xmlns="http://www.w3.org/2000/svg">
<path d="M15.8627 4.549L11.4509 0.137313C11.363 0.0494063 11.2438 0 11.1195 0H4.88062C4.75628 0 4.63706 0.049375 4.54916 0.137281L0.137281 4.549C0.049375 4.63697 0 4.75619 0 4.8805V11.1196C0 11.2439 0.049375 11.3631 0.137281 11.451L4.54916 15.8627C4.63706 15.9506 4.75631 16 4.88062 16H11.1195C11.2438 16 11.363 15.9506 11.4509 15.8627L15.8627 11.451C15.9506 11.3631 16 11.2439 16 11.1196V4.8805C16 4.75619 15.9506 4.63697 15.8627 4.549ZM7.53125 3.98334C7.53125 3.72447 7.74109 3.51459 8 3.51459C8.25884 3.51459 8.46875 3.72447 8.46875 3.98334V9.00416C8.46875 9.26303 8.25884 9.47291 8 9.47291C7.74109 9.47291 7.53125 9.26303 7.53125 9.00416V3.98334ZM8.33134 12.3482C8.24419 12.4353 8.12322 12.4853 8.00012 12.4853C7.87666 12.4853 7.75575 12.4353 7.66856 12.3482C7.58137 12.2609 7.53137 12.14 7.53137 12.0166C7.53137 11.8935 7.58137 11.7725 7.66856 11.6853C7.75575 11.5978 7.87666 11.5478 8.00012 11.5478C8.12322 11.5478 8.24419 11.5978 8.33134 11.6853C8.41856 11.7725 8.46884 11.8931 8.46884 12.0166C8.46887 12.14 8.41856 12.2609 8.33134 12.3482Z" fill="#84909A"/>
</svg>
