<svg width="17" height="16" viewBox="0 0 17 16" fill="none" xmlns="http://www.w3.org/2000/svg">
<path fill-rule="evenodd" clip-rule="evenodd" d="M0 13.6309C0 14.9393 1.06066 16 2.36905 16H10.6224C11.9308 16 12.9914 14.9393 12.9914 13.6309V2.36912C12.9914 1.0607 11.9308 0 10.6224 0H2.36905C1.06066 0 0 1.0607 0 2.36912V13.6309ZM8.34217 4.90238C7.96708 4.59614 7.54538 4.40069 7.1194 4.30691V3.67681C7.1194 3.35588 6.85923 3.09571 6.53831 3.09571C6.21738 3.09571 5.95723 3.35588 5.95723 3.67681V4.30128C5.33908 4.43719 4.76883 4.80684 4.48146 5.41584C4.18553 6.04298 4.20254 6.69051 4.57437 7.2648C4.91905 7.79716 5.52706 8.20206 6.277 8.5132C6.96121 8.79706 7.32777 9.09893 7.498 9.3606C7.64804 9.59124 7.67702 9.83624 7.56152 10.1467C7.45784 10.4254 7.14897 10.6407 6.62315 10.6593C6.10333 10.6778 5.54137 10.484 5.18976 10.1479C4.95778 9.92609 4.58995 9.93438 4.3682 10.1664C4.14642 10.3983 4.15471 10.7662 4.38668 10.9879C4.81628 11.3987 5.38255 11.6593 5.95723 11.7666V12.3231C5.95723 12.6441 6.21738 12.9042 6.53831 12.9042C6.85923 12.9042 7.1194 12.6441 7.1194 12.3231V11.7678C7.76238 11.6387 8.38329 11.2709 8.65077 10.5519C8.88093 9.93328 8.84342 9.29753 8.47218 8.72684C8.12113 8.18717 7.51164 7.76714 6.72234 7.43969C6.06645 7.16758 5.70946 6.87957 5.54991 6.63314C5.41751 6.42864 5.39109 6.2115 5.5325 5.91181C5.64699 5.6692 5.92444 5.46579 6.33201 5.41487C6.73242 5.36483 7.20563 5.47484 7.6072 5.80267C7.8558 6.00564 8.22186 5.96862 8.42482 5.72002C8.62777 5.47142 8.59076 5.10535 8.34217 4.90238Z" fill="#84909A"/>
<path d="M14.1031 13.7325C14.1031 14.0535 14.3633 14.3136 14.6842 14.3136H15.5063C16.3209 14.3136 16.9813 13.6532 16.9813 12.8385V5.6769C16.9813 4.86221 16.3209 4.20178 15.5063 4.20178H14.6842C14.5301 4.20178 14.3823 4.263 14.2734 4.37198C14.1644 4.48096 14.1031 4.62876 14.1031 4.78289V13.7325Z" fill="#84909A"/>
</svg>
