<svg width="20" height="20" viewBox="0 0 20 20" fill="none" xmlns="http://www.w3.org/2000/svg">
<path d="M9.99997 2.08337C5.63789 2.08337 2.08331 5.63795 2.08331 10C2.08331 14.3621 5.63789 17.9167 9.99997 17.9167C14.3621 17.9167 17.9166 14.3621 17.9166 10C17.9166 5.63795 14.3621 2.08337 9.99997 2.08337ZM9.40622 6.83337C9.40622 6.50879 9.67539 6.23962 9.99997 6.23962C10.3246 6.23962 10.5937 6.50879 10.5937 6.83337V10.7917C10.5937 11.1163 10.3246 11.3855 9.99997 11.3855C9.67539 11.3855 9.40622 11.1163 9.40622 10.7917V6.83337ZM10.7283 13.4675C10.6887 13.5704 10.6333 13.6496 10.5621 13.7288C10.4829 13.8 10.3958 13.8554 10.3008 13.895C10.2058 13.9346 10.1029 13.9584 9.99997 13.9584C9.89706 13.9584 9.79414 13.9346 9.69914 13.895C9.60414 13.8554 9.51706 13.8 9.43789 13.7288C9.36664 13.6496 9.31122 13.5704 9.27164 13.4675C9.23206 13.3725 9.20831 13.2696 9.20831 13.1667C9.20831 13.0638 9.23206 12.9609 9.27164 12.8659C9.31122 12.7709 9.36664 12.6838 9.43789 12.6046C9.51706 12.5334 9.60414 12.4779 9.69914 12.4384C9.88914 12.3592 10.1108 12.3592 10.3008 12.4384C10.3958 12.4779 10.4829 12.5334 10.5621 12.6046C10.6333 12.6838 10.6887 12.7709 10.7283 12.8659C10.7679 12.9609 10.7916 13.0638 10.7916 13.1667C10.7916 13.2696 10.7679 13.3725 10.7283 13.4675Z" fill="#84909A"/>
</svg>
