<svg width="145" height="131" viewBox="0 0 145 131" fill="none" xmlns="http://www.w3.org/2000/svg">
<path d="M95.6934 79.0768L92.721 90.1485C92.1434 92.2882 90.1899 93.776 87.9582 93.776H60.0342" stroke="#EE2EB8" stroke-width="4.56141" stroke-miterlimit="10" stroke-linecap="round" stroke-linejoin="round"/>
<path d="M57.0404 64.3777H39.4515C38.3414 64.3777 37.4414 63.2808 37.4414 61.9278V59.478C37.4414 56.772 39.2414 54.5782 41.4616 54.5782H54.216" stroke="#8A2FEB" stroke-width="4.56141" stroke-miterlimit="10" stroke-linecap="round" stroke-linejoin="round"/>
<path d="M63.5731 93.776H54.7998C52.6084 93.776 50.69 92.2613 50.1228 90.0829L43.4297 64.3777" stroke="url(#paint0_linear_2977_10752)" stroke-width="4.56141" stroke-miterlimit="10" stroke-linecap="round" stroke-linejoin="round"/>
<path fill-rule="evenodd" clip-rule="evenodd" d="M61.292 52.1284C61.292 38.9923 71.941 28.3433 85.0771 28.3433C98.2133 28.3433 108.862 38.9923 108.862 52.1284C108.862 65.2645 98.2133 75.9134 85.0771 75.9134C71.941 75.9134 61.292 65.2645 61.292 52.1284Z" fill="url(#paint1_linear_2977_10752)"/>
<path fill-rule="evenodd" clip-rule="evenodd" d="M95.1263 44.796C96.0188 45.6848 96.0218 47.1289 95.133 48.0214L83.2055 59.9985C82.7776 60.4282 82.196 60.6698 81.5895 60.6698C80.983 60.6698 80.4014 60.4282 79.9734 59.9985L75.024 55.0285C74.1352 54.136 74.1382 52.6919 75.0307 51.8031C75.9233 50.9143 77.3673 50.9173 78.2561 51.8098L81.5895 55.157L91.9009 44.8027C92.7897 43.9102 94.2338 43.9072 95.1263 44.796Z" fill="white"/>
<path d="M143.611 50.0053C142.464 49.0767 140.797 49.2657 139.877 50.4162L134.803 56.81C134.404 53.3173 133.729 49.8491 132.761 46.4468C123.213 12.8015 88.3556 -6.72484 55.0594 2.92331C38.3789 7.7556 24.2845 19.4911 16.4037 35.1221C15.7368 36.4452 16.2574 38.0561 17.5668 38.73C18.8762 39.4039 20.4701 38.878 21.137 37.5549C28.359 23.247 41.2578 12.5057 56.5233 8.07613C87.0054 -0.758422 118.911 17.1161 127.654 47.9179C128.605 51.2627 129.248 54.6733 129.598 58.1003L122.489 52.3229C121.351 51.3943 119.675 51.5751 118.756 52.7338C117.837 53.8926 118.016 55.5772 119.163 56.5058L130.874 66.0226C130.972 66.1048 131.086 66.1705 131.192 66.2363C131.216 66.2527 131.232 66.2692 131.257 66.2774C131.338 66.3267 131.427 66.3595 131.517 66.3923C131.566 66.417 131.614 66.4417 131.663 66.4582C131.745 66.4828 131.818 66.4993 131.899 66.5157C131.964 66.5322 132.029 66.5567 132.094 66.5649C132.241 66.5896 132.387 66.5978 132.534 66.5978C132.924 66.5978 133.306 66.5158 133.664 66.3432C133.672 66.3432 133.68 66.335 133.688 66.3267C133.778 66.2857 133.851 66.228 133.941 66.1704C133.981 66.1458 134.03 66.1213 134.071 66.0884C134.103 66.0637 134.136 66.0472 134.168 66.0226C134.217 65.9815 134.258 65.9322 134.298 65.8912C134.38 65.8172 134.453 65.7514 134.518 65.6693C134.534 65.6528 134.559 65.6363 134.575 65.6117C134.583 65.6034 134.591 65.5952 134.599 65.587L144.009 53.7447C144.928 52.5859 144.741 50.9011 143.602 49.9724L143.611 50.0053Z" fill="url(#paint2_linear_2977_10752)"/>
<path d="M127.183 92.1837C125.874 91.5099 124.28 92.0359 123.613 93.3588C116.391 107.664 103.492 118.403 88.2266 122.832C73.4654 127.113 57.9315 125.322 44.496 117.795C31.0604 110.269 21.3334 97.9108 17.0961 82.9974C16.1446 79.6532 15.5021 76.2433 15.1524 72.8169L22.2605 78.5934C22.7485 78.996 23.3422 79.1849 23.9197 79.1849C24.7004 79.1849 25.4649 78.8399 25.9936 78.1825C26.9126 77.024 26.7337 75.3394 25.5869 74.4109L13.8755 64.8959C13.7454 64.7891 13.599 64.6988 13.4526 64.6166C13.4445 64.6166 13.4363 64.6002 13.4282 64.6002C13.3062 64.5345 13.1761 64.4932 13.0541 64.4521C13.0134 64.4439 12.9809 64.4194 12.9484 64.4112C12.8589 64.3866 12.7695 64.3783 12.6882 64.3619C12.6068 64.3454 12.5255 64.3207 12.4441 64.3207C12.4035 64.3207 12.3546 64.3207 12.314 64.3207C12.1839 64.3207 12.0619 64.3125 11.9318 64.3207C11.9155 64.3207 11.8911 64.329 11.8749 64.329C11.7285 64.3454 11.5739 64.3784 11.4357 64.4194C11.4113 64.4194 11.395 64.4359 11.3706 64.4441C11.3056 64.4688 11.2404 64.4933 11.1754 64.5262C11.1754 64.5262 11.1673 64.5262 11.1592 64.5262C11.0941 64.559 11.0209 64.5755 10.9558 64.6084C10.8908 64.6413 10.8257 64.6987 10.7607 64.7398C10.7281 64.7562 10.7036 64.7809 10.6711 64.7974C10.6223 64.8302 10.5654 64.863 10.5248 64.8959C10.4841 64.9287 10.4434 64.9782 10.4028 65.0192C10.3458 65.0686 10.2971 65.126 10.2401 65.1835C10.2076 65.2164 10.1751 65.2492 10.1426 65.282L0.732727 77.1225C-0.186292 78.2811 0.000765041 79.9654 1.13937 80.8939C1.62735 81.2883 2.21295 81.4857 2.79852 81.4857C3.57928 81.4857 4.34371 81.1404 4.87235 80.483L9.94738 74.0906C10.3459 77.5827 11.0208 81.0501 11.9886 84.4518C16.6163 100.746 27.246 114.246 41.9178 122.471C51.3682 127.762 61.7702 130.457 72.2779 130.457C78.0929 130.457 83.9405 129.636 89.6823 127.968C106.363 123.136 120.457 111.403 128.338 95.7745C129.005 94.4516 128.484 92.8412 127.175 92.1675L127.183 92.1837Z" fill="url(#paint3_linear_2977_10752)"/>
<defs>
<linearGradient id="paint0_linear_2977_10752" x1="43.4297" y1="64.3777" x2="67.6655" y2="68.2657" gradientUnits="userSpaceOnUse">
<stop stop-color="#832FEE"/>
<stop offset="1" stop-color="#EE2FB8"/>
</linearGradient>
<linearGradient id="paint1_linear_2977_10752" x1="61.292" y1="28.3433" x2="116.949" y2="41.3744" gradientUnits="userSpaceOnUse">
<stop stop-color="#832FEE"/>
<stop offset="1" stop-color="#EE2FB8"/>
</linearGradient>
<linearGradient id="paint2_linear_2977_10752" x1="16.1109" y1="33.5443" x2="144.603" y2="33.5443" gradientUnits="userSpaceOnUse">
<stop stop-color="#9747FF"/>
<stop offset="1" stop-color="#EE2FB8"/>
</linearGradient>
<linearGradient id="paint3_linear_2977_10752" x1="0.147157" y1="97.385" x2="128.639" y2="97.385" gradientUnits="userSpaceOnUse">
<stop stop-color="#9747FF"/>
<stop offset="1" stop-color="#EE2FB8"/>
</linearGradient>
</defs>
</svg>
