<svg width="56" height="51" viewBox="0 0 56 51" fill="none" xmlns="http://www.w3.org/2000/svg">
<path d="M17.0813 41.4573L17.0814 41.4574L22.749 46.1207L25.2687 48.1939L26.0365 48.8256L26.2457 48.9977L26.3001 49.0425L26.314 49.0539L26.3175 49.0568L26.3184 49.0575L26.3186 49.0577L25.7098 49.7978L26.3187 49.0577C27.2209 49.8 28.5221 49.8 29.4244 49.0577L30.0332 49.7978L29.4244 49.0577L29.4246 49.0575L29.4255 49.0568L29.429 49.0539L29.4429 49.0425L29.4973 48.9977L29.7065 48.8256L30.4742 48.1939L32.9939 46.1207L38.6616 41.4574C39.5686 40.711 40.7069 40.303 41.8815 40.303H49.8301C51.0746 40.303 52.2682 39.8086 53.1482 38.9285L53.1483 38.9284C54.0285 38.0485 54.5227 36.8549 54.5227 35.61V35.5576V35.5051V35.4525V35.3999V35.3472V35.2945V35.2417V35.1888V35.1359V35.083V35.0299V34.9769V34.9237V34.8706V34.8173V34.764V34.7107V34.6573V34.6038V34.5503V34.4967V34.4431V34.3894V34.3357V34.2819V34.2281V34.1742V34.1203V34.0663V34.0122V33.9581V33.904V33.8498V33.7956V33.7413V33.6869V33.6325V33.5781V33.5236V33.469V33.4144V33.3598V33.3051V33.2504V33.1956V33.1407V33.0858V33.0309V32.9759V32.9209V32.8658V32.8107V32.7556V32.7003V32.6451V32.5898V32.5344V32.479V32.4236V32.3681V32.3126V32.257V32.2014V32.1457V32.09V32.0343V31.9785V31.9226V31.8668V31.8108V31.7549V31.6989V31.6428V31.5867V31.5306V31.4744V31.4182V31.362V31.3057V31.2493V31.1929V31.1365V31.0801V31.0236V30.9671V30.9105V30.8539V30.7972V30.7405V30.6838V30.627V30.5702V30.5134V30.4565V30.3996V30.3427V30.2857V30.2287V30.1716V30.1145V30.0574V30.0002V29.943V29.8858V29.8285V29.7712V29.7139V29.6565V29.5991V29.5417V29.4842V29.4267V29.3692V29.3116V29.254V29.1963V29.1387V29.081V29.0233V28.9655V28.9077V28.8499V28.792V28.7341V28.6762V28.6183V28.5603V28.5023V28.4443V28.3862V28.3281V28.27V28.2119V28.1537V28.0955V28.0373V27.979V27.9207V27.8624V27.8041V27.7457V27.6873V27.6289V27.5705V27.512V27.4535V27.395V27.3365V27.2779V27.2193V27.1607V27.1021V27.0434V26.9847V26.926V26.8673V26.8085V26.7497V26.6909V26.6321V26.5733V26.5144V26.4555V26.3966V26.3377V26.2787V26.2198V26.1608V26.1018V26.0427V25.9837V25.9246V25.8655V25.8064V25.7473V25.6882V25.629V25.5698V25.5106V25.4514V25.3922V25.3329V25.2736V25.2144V25.1551V25.0957V25.0364V24.9771V24.9177V24.8583V24.7989V24.7395V24.6801V24.6207V24.5612V24.5017V24.4423V24.3828V24.3233V24.2638V24.2042V24.1447V24.0851V24.0256V23.966V23.9064V23.8468V23.7872V23.7275V23.6679V23.6083V23.5486V23.4889V23.4293V23.3696V23.3099V23.2502V23.1905V23.1307V23.071V23.0113V22.9515V22.8918V22.832V22.7722V22.7125V22.6527V22.5929V22.5331V22.4733V22.4135V22.3537V22.2939V22.234V22.1742V22.1144V22.0545V21.9947V21.9348V21.875V21.8151V21.7553V21.6954V21.6356V21.5757V21.5158V21.456V21.3961V21.3362V21.2763V21.2164V21.1566V21.0967V21.0368V20.9769V20.917V20.8572V20.7973V20.7374V20.6775V20.6176V20.5578V20.4979V20.438V20.3781V20.3183V20.2584V20.1985V20.1387V20.0788V20.0189V19.9591V19.8992V19.8394V19.7796V19.7197V19.6599V19.6001V19.5402V19.4804V19.4206V19.3608V19.301V19.2412V19.1814V19.1216V19.0618V19.0021V18.9423V18.8826V18.8228V18.7631V18.7033V18.6436V18.5839V18.5242V18.4645V18.4048V18.3451V18.2855V18.2258V18.1662V18.1065V18.0469V17.9873V17.9277V17.8681V17.8085V17.749V17.6894V17.6299V17.5703V17.5108V17.4513V17.3918V17.3323V17.2729V17.2134V17.154V17.0946V17.0352V16.9758V16.9164V16.857V16.7977V16.7383V16.679V16.6197V16.5604V16.5012V16.4419V16.3827V16.3235V16.2643V16.2051V16.1459V16.0868V16.0277V15.9686V15.9095V15.8504V15.7914V15.7323V15.6733V15.6143V15.5554V15.4964V15.4375V15.3786V15.3197V15.2608V15.202V15.1432V15.0844V15.0256V14.9668V14.9081V14.8494V14.7907V14.732V14.6734V14.6148V14.5562V14.4976V14.4391V14.3806V14.3221V14.2636V14.2052V14.1468V14.0884V14.03V13.9717V13.9134V13.8551V13.7968V13.7386V13.6804V13.6222V13.5641V13.506V13.4479V13.3898V13.3318V13.2738V13.2158V13.1579V13.0999V13.0421V12.9842V12.9264V12.8686V12.8108V12.7531V12.6954V12.6377V12.5801V12.5225V12.4649V12.4074V12.3499V12.2924V12.235V12.1776V12.1202V12.0629V12.0056V11.9483V11.8911V11.8339V11.7767V11.7196V11.6625V11.6054V11.5484V11.4914V11.4345V11.3776V11.3207V11.2638V11.207V11.1503V11.0936V11.0369V10.9802V10.9236V10.867V10.8105V10.754V10.6976V10.6411V10.5848V10.5284V10.4721V10.4159V10.3597V10.3035V10.2474V10.1913V10.1352V10.0792V10.0233V9.96734V9.91146V9.85562V9.79983V9.74408V9.68838V9.63271V9.57709V9.52152V9.46599V9.4105V9.35506V9.29967V9.24432V9.18901V9.13375V9.07854V9.02337V8.96825V8.91318V8.85815V8.80317V8.74824V8.69336V8.63852V8.58373V8.52899V8.4743V8.41966V8.36506V8.31052V8.25602V8.20157V8.14718V8.09283V8.03854V7.98429V7.9301V7.87595V7.82186V7.76782V7.71383V7.65989V7.60601V7.55218V7.4984V7.44467V7.391V7.33737V7.28381V7.23029V7.17683V7.12343V7.07008V7.01678V6.96354V6.91035V6.85722V6.80415V6.75113V6.69816V6.64526V6.59241V6.53961V6.48687V6.43419V6.38157V6.32901V6.2765V6.22405C54.5227 4.97916 54.0285 3.78563 53.1483 2.90567L53.1482 2.9056C52.2682 2.02554 51.0746 1.53108 49.8301 1.53108H49.7693H49.7081H49.6467H49.585H49.523H49.4607H49.3981H49.3352H49.2721H49.2086H49.1449H49.0809H49.0166H48.9521H48.8872H48.8221H48.7567H48.6911H48.6251H48.5589H48.4924H48.4257H48.3587H48.2914H48.2238H48.156H48.0879H48.0196H47.951H47.8821H47.813H47.7436H47.674H47.6041H47.5339H47.4635H47.3928H47.3219H47.2508H47.1794H47.1077H47.0358H46.9636H46.8912H46.8186H46.7457H46.6726H46.5992H46.5256H46.4518H46.3777H46.3034H46.2289H46.1541H46.0791H46.0038H45.9284H45.8527H45.7768H45.7006H45.6242H45.5476H45.4708H45.3938H45.3165H45.239H45.1613H45.0834H45.0052H44.9269H44.8483H44.7696H44.6906H44.6114H44.532H44.4524H44.3725H44.2925H44.2123H44.1318H44.0512H43.9704H43.8893H43.8081H43.7267H43.645H43.5632H43.4812H43.399H43.3166H43.234H43.1512H43.0682H42.9851H42.9017H42.8182H42.7345H42.6506H42.5665H42.4823H42.3978H42.3132H42.2284H42.1435H42.0583H41.973H41.8875H41.8019H41.716H41.63H41.5439H41.4575H41.371H41.2844H41.1976H41.1106H41.0234H40.9361H40.8487H40.761H40.6733H40.5853H40.4973H40.409H40.3206H40.2321H40.1434H40.0546H39.9656H39.8764H39.7872H39.6978H39.6082H39.5185H39.4286H39.3387H39.2486H39.1583H39.0679H38.9774H38.8867H38.7959H38.705H38.614H38.5228H38.4315H38.34H38.2485H38.1568H38.065H37.9731H37.881H37.7889H37.6966H37.6042H37.5117H37.419H37.3263H37.2334H37.1404H37.0474H36.9542H36.8609H36.7675H36.674H36.5803H36.4866H36.3928H36.2989H36.2049H36.1107H36.0165H35.9222H35.8278H35.7333H35.6387H35.544H35.4492H35.3544H35.2594H35.1644H35.0692H34.974H34.8787H34.7834H34.6879H34.5923H34.4967H34.401H34.3052H34.2094H34.1135H34.0175H33.9214H33.8252H33.729H33.6327H33.5364H33.44H33.3435H33.2469H33.1503H33.0537H32.9569H32.8601H32.7633H32.6664H32.5694H32.4724H32.3753H32.2782H32.181H32.0838H31.9865H31.8892H31.7918H31.6944H31.5969H31.4994H31.4019H31.3043H31.2066H31.109H31.0113H30.9135H30.8157H30.7179H30.6201H30.5222H30.4243H30.3263H30.2284H30.1304H30.0323H29.9343H29.8362H29.7381H29.64H29.5418H29.4437H29.3455H29.2473H29.1491H29.0509H28.9526H28.8544H28.7561H28.6579H28.5596H28.4613H28.363H28.2647H28.1664H28.0681H27.9697H27.8714H27.7731H27.6748H27.5765H27.4782H27.3799H27.2816H27.1833H27.085H26.9867H26.8885H26.7902H26.692H26.5937H26.4955H26.3973H26.2992H26.201H26.1029H26.0047H25.9066H25.8086H25.7105H25.6125H25.5145H25.4165H25.3186H25.2207H25.1228H25.0249H24.9271H24.8293H24.7316H24.6339H24.5362H24.4386H24.341H24.2434H24.1459H24.0485H23.951H23.8537H23.7563H23.6591H23.5618H23.4647H23.3675H23.2705H23.1734H23.0765H22.9796H22.8827H22.7859H22.6892H22.5925H22.4959H22.3994H22.3029H22.2065H22.1101H22.0138H21.9176H21.8215H21.7254H21.6294H21.5335H21.4376H21.3418H21.2461H21.1505H21.055H20.9595H20.8641H20.7688H20.6736H20.5785H20.4834H20.3885H20.2936H20.1988H20.1042H20.0096H19.9151H19.8207H19.7263H19.6321H19.538H19.444H19.3501H19.2562H19.1625H19.0689H18.9754H18.882H18.7887H18.6955H18.6024H18.5095H18.4166H18.3239H18.2312H18.1387H18.0463H17.954H17.8619H17.7698H17.6779H17.5861H17.4944H17.4028H17.3114H17.2201H17.1289H17.0379H16.947H16.8562H16.7655H16.675H16.5846H16.4943H16.4042H16.3142H16.2244H16.1347H16.0451H15.9557H15.8664H15.7773H15.6883H15.5995H15.5108H15.4223H15.3339H15.2456H15.1576H15.0696H14.9818H14.8942H14.8068H14.7195H14.6323H14.5453H14.4585H14.3719H14.2854H14.199H14.1129H14.0269H13.941H13.8554H13.7699H13.6846H13.5995H13.5145H13.4297H13.3451H13.2606H13.1764H13.0923H13.0084H12.9247H12.8412H12.7578H12.6747H12.5917H12.5089H12.4263H12.3439H12.2617H12.1797H12.0979H12.0163H11.9348H11.8536H11.7726H11.6917H11.6111H11.5307H11.4504H11.3704H11.2906H11.211H11.1316H11.0524H10.9734H10.8946H10.816H10.7377H10.6596H10.5816H10.5039H10.4265H10.3492H10.2721H10.1953H10.1187H10.0423H9.9662H9.89027H9.81458H9.73911H9.66387H9.58886H9.51408H9.43954H9.36523H9.29116H9.21732H9.14372H9.07036H8.99724H8.92436H8.85172H8.77933H8.70718H8.63528H8.56362H8.49221H8.42105H8.35014H8.27948H8.20908H8.13893H8.06903H7.99939H7.93H7.86088H7.79201H7.72341H7.65506H7.58698H7.51917H7.45161H7.38433H7.31731H7.25056H7.18408H7.11788H7.05194H6.98628H6.92089H6.85577H6.79094H6.72638H6.6621H6.5981H6.53438H6.47095H6.4078H6.34493H6.28235H6.22005H6.15805H6.09633H6.0349H5.97377H5.91293C4.66847 1.53108 3.47487 2.0255 2.59455 2.9056C2.59452 2.90562 2.5945 2.90565 2.59448 2.90567M17.0813 41.4573L2.59448 2.90567M17.0813 41.4573C16.1742 40.711 15.0359 40.303 13.8615 40.303H5.91293C4.66847 40.303 3.47487 39.8086 2.59455 38.9285M17.0813 41.4573L2.59455 38.9285M2.59448 2.90567C1.71449 3.78572 1.22005 4.97929 1.22005 6.22405V35.61C1.22005 36.8548 1.71451 38.0484 2.59455 38.9285M2.59448 2.90567L2.59455 38.9285" stroke="url(#paint0_linear_3276_1265)" stroke-width="1.91665"/>
<path d="M36.5391 14.8951C36.4624 14.2792 36.1676 13.7159 35.7138 13.3091C35.2606 12.9028 34.6797 12.6801 34.0801 12.679H19.6933C19.0937 12.68 18.5127 12.9026 18.0595 13.3089C17.6059 13.7155 17.3111 14.2787 17.2345 14.8943C17.2345 14.8945 17.2344 14.8947 17.2344 14.8949L15.173 31.6388C15.173 31.6388 15.173 31.6388 15.173 31.6388C15.1289 31.9968 15.1604 32.3602 15.2651 32.7045C15.3698 33.0489 15.5451 33.3656 15.7786 33.6342C16.012 33.9026 16.2981 34.1166 16.6173 34.2629C16.9365 34.4091 17.2819 34.4844 17.631 34.4845L36.5391 14.8951ZM36.5391 14.8951L38.6005 31.6388C38.6446 31.9968 38.6131 32.3602 38.5084 32.7045L39.4253 32.9833L38.5084 32.7045C38.4037 33.0489 38.2284 33.3656 37.9949 33.6342C37.7615 33.9026 37.4754 34.1166 37.1562 34.2629C36.837 34.4091 36.4915 34.4844 36.1425 34.4845C36.1425 34.4845 36.1424 34.4845 36.1424 34.4845H17.6311L36.5391 14.8951Z" stroke="url(#paint1_linear_3276_1265)" stroke-width="1.91665"/>
<path d="M37.2555 36.688C42.1514 36.688 46.1204 32.719 46.1204 27.823C46.1204 22.927 42.1514 18.958 37.2555 18.958C32.3596 18.958 28.3906 22.927 28.3906 27.823C28.3906 32.719 32.3596 36.688 37.2555 36.688Z" fill="url(#paint2_linear_3276_1265)"/>
<g clip-path="url(#clip0_3276_1265)">
<path fill-rule="evenodd" clip-rule="evenodd" d="M30.9166 16.9816C31.1236 17.1886 31.4044 17.3049 31.6972 17.3049C31.9899 17.3049 32.2707 17.1886 32.4777 16.9816C32.6847 16.7745 32.801 16.4938 32.801 16.201V12.0778C32.801 10.5093 32.1779 9.00495 31.0688 7.89582C29.9597 6.78668 28.4554 6.16357 26.8868 6.16357C25.3183 6.16357 23.814 6.78668 22.7049 7.89582C21.5958 9.00495 20.9727 10.5093 20.9727 12.0778V16.201C20.9727 16.4938 21.089 16.7745 21.296 16.9816C21.503 17.1886 21.7837 17.3049 22.0765 17.3049C22.3693 17.3049 22.65 17.1886 22.857 16.9816C23.0641 16.7745 23.1804 16.4938 23.1804 16.201V12.0778C23.1804 11.0948 23.5709 10.152 24.266 9.45692C24.9611 8.76181 25.9038 8.3713 26.8868 8.3713C27.8699 8.3713 28.8126 8.76181 29.5077 9.45692C30.2028 10.152 30.5933 11.0948 30.5933 12.0778V16.201C30.5933 16.4938 30.7096 16.7745 30.9166 16.9816ZM31.7858 16.8825C31.9353 16.863 32.0753 16.7947 32.1831 16.6869C32.3119 16.5581 32.3843 16.3833 32.3843 16.201V12.0778C32.3843 10.6198 31.8051 9.22144 30.7742 8.19044C29.7432 7.15945 28.3449 6.58024 26.8868 6.58024C26.649 6.58024 26.4127 6.59566 26.1793 6.62594C26.4125 6.5957 26.6486 6.58031 26.8863 6.58031C28.3444 6.58031 29.7427 7.15951 30.7737 8.19051C31.8047 9.2215 32.3839 10.6198 32.3839 12.0779V16.2011C32.3839 16.3833 32.3115 16.5581 32.1826 16.687C32.0749 16.7947 31.9351 16.8629 31.7858 16.8825ZM22.1651 16.8825C22.3146 16.863 22.4546 16.7947 22.5624 16.6869C22.6913 16.5581 22.7637 16.3833 22.7637 16.201V12.0778C22.7637 10.9843 23.1981 9.93554 23.9713 9.16229C24.6192 8.51445 25.4604 8.10446 26.3593 7.98851C25.4602 8.10437 24.6188 8.5144 23.9708 9.16235C23.1976 9.9356 22.7632 10.9843 22.7632 12.0779V16.2011C22.7632 16.3833 22.6908 16.5581 22.5619 16.687C22.4542 16.7947 22.3145 16.863 22.1651 16.8825Z" fill="url(#paint3_linear_3276_1265)"/>
</g>
<path d="M37.2564 35.4427C41.4647 35.4427 44.8761 32.0312 44.8761 27.8229C44.8761 23.6146 41.4647 20.2031 37.2564 20.2031C33.0482 20.2031 29.6367 23.6146 29.6367 27.8229C29.6367 32.0312 33.0482 35.4427 37.2564 35.4427Z" fill="url(#paint4_linear_3276_1265)"/>
<path d="M37.2554 31.9227C36.9836 31.9227 36.7229 31.8147 36.5307 31.6225C36.3385 31.4303 36.2305 31.1696 36.2305 30.8978V24.7481C36.2305 24.4763 36.3385 24.2156 36.5307 24.0233C36.7229 23.8311 36.9836 23.7231 37.2554 23.7231C37.5272 23.7231 37.7879 23.8311 37.9801 24.0233C38.1724 24.2156 38.2803 24.4763 38.2803 24.7481V30.8978C38.2803 31.1696 38.1724 31.4303 37.9801 31.6225C37.7879 31.8147 37.5272 31.9227 37.2554 31.9227Z" fill="#F4F4F4"/>
<path d="M40.3308 28.8477H34.1812C33.9094 28.8477 33.6487 28.7398 33.4564 28.5475C33.2642 28.3553 33.1562 28.0946 33.1562 27.8228C33.1562 27.551 33.2642 27.2903 33.4564 27.0981C33.6487 26.9058 33.9094 26.7979 34.1812 26.7979H40.3308C40.6026 26.7979 40.8633 26.9058 41.0555 27.0981C41.2477 27.2903 41.3557 27.551 41.3557 27.8228C41.3557 28.0946 41.2477 28.3553 41.0555 28.5475C40.8633 28.7398 40.6026 28.8477 40.3308 28.8477Z" fill="#F4F4F4"/>
<defs>
<linearGradient id="paint0_linear_3276_1265" x1="0.261719" y1="0.572754" x2="64.1389" y2="17.0896" gradientUnits="userSpaceOnUse">
<stop stop-color="#832FEE"/>
<stop offset="1" stop-color="#EE2FB8"/>
</linearGradient>
<linearGradient id="paint1_linear_3276_1265" x1="14.1953" y1="11.7207" x2="43.6711" y2="19.105" gradientUnits="userSpaceOnUse">
<stop stop-color="#832FEE"/>
<stop offset="1" stop-color="#EE2FB8"/>
</linearGradient>
<linearGradient id="paint2_linear_3276_1265" x1="28.3906" y1="18.958" x2="49.1344" y2="23.8147" gradientUnits="userSpaceOnUse">
<stop stop-color="#832FEE"/>
<stop offset="1" stop-color="#EE2FB8"/>
</linearGradient>
<linearGradient id="paint3_linear_3276_1265" x1="20.9727" y1="6.16357" x2="34.7209" y2="9.58098" gradientUnits="userSpaceOnUse">
<stop stop-color="#832FEE"/>
<stop offset="1" stop-color="#EE2FB8"/>
</linearGradient>
<linearGradient id="paint4_linear_3276_1265" x1="29.6367" y1="20.2031" x2="47.4668" y2="24.3776" gradientUnits="userSpaceOnUse">
<stop stop-color="#832FEE"/>
<stop offset="1" stop-color="#EE2FB8"/>
</linearGradient>
<clipPath id="clip0_3276_1265">
<rect width="12.4998" height="5.83333" fill="white" transform="translate(20.4727 5.88281)"/>
</clipPath>
</defs>
</svg>
