<svg width="77" height="131" viewBox="0 0 77 131" fill="none" xmlns="http://www.w3.org/2000/svg">
<path d="M2.406 25.5154C3.45783 25.5154 4.31004 24.6654 4.31004 23.6163V10.8206C4.31004 7.15261 7.3043 4.16618 10.9819 4.16618H16.5865V5.52156C16.5865 9.69491 19.9954 13.0949 24.1797 13.0949H38.8516C43.0358 13.0949 46.4447 9.69491 46.4447 5.52156V4.16618H52.0493C55.7269 4.16618 58.7212 7.15261 58.7212 10.8206V51.6429C58.7212 52.6919 59.5734 53.5419 60.6252 53.5419C61.6771 53.5419 62.5293 52.6919 62.5293 51.6429V10.8206C62.5293 5.06211 57.8306 0.368042 52.0493 0.368042H10.9819C5.20064 0.368042 0.501953 5.05445 0.501953 10.8206V23.6163C0.501953 24.6654 1.35417 25.5154 2.406 25.5154ZM42.6366 5.52156C42.6366 7.60441 40.9399 9.29672 38.8516 9.29672H24.1797C22.0914 9.29672 20.3946 7.60441 20.3946 5.52156V4.16618H42.6366V5.52156Z" fill="url(#paint0_linear_2977_10724)"/>
<path d="M41.0394 75.4042C39.9875 75.4042 39.1353 76.2541 39.1353 77.3032C39.1353 78.3523 39.9875 79.2023 41.0394 79.2023H46.0989C48.0874 79.2023 49.6997 77.5942 49.6997 75.6109V68.1831C49.6997 66.1998 48.0874 64.5917 46.0989 64.5917H16.924C14.9355 64.5917 13.3232 66.1998 13.3232 68.1831V75.6109C13.3232 77.5942 14.9355 79.2023 16.924 79.2023H41.0394C42.0912 79.2023 42.9434 78.3523 42.9434 77.3032C42.9434 76.2541 42.0912 75.4042 41.0394 75.4042H17.1313V68.3899H45.8916V75.4042H41.0394Z" fill="url(#paint1_linear_2977_10724)"/>
<path d="M50.2747 25.6379C49.5453 24.8875 48.34 24.8645 47.5799 25.592L40.1019 32.8207C39.457 32.4455 38.7122 32.231 37.9138 32.231H25.1075C22.6891 32.231 20.7236 34.1914 20.7236 36.6035V48.5875C20.7236 50.9996 22.6891 52.96 25.1075 52.96H37.9138C40.3322 52.96 42.2977 50.9996 42.2977 48.5875V36.6035C42.2977 36.4044 42.2823 36.213 42.2516 36.0292L50.2286 28.318C50.981 27.5906 51.0041 26.3884 50.2747 25.6303V25.6379ZM38.4896 48.5875C38.4896 48.9091 38.2286 49.1618 37.9138 49.1618H25.1075C24.7851 49.1618 24.5317 48.9015 24.5317 48.5875V36.6035C24.5317 36.2819 24.7928 36.0292 25.1075 36.0292H36.7852L30.9041 41.7111L29.7371 40.7003C28.9463 40.0111 27.741 40.0953 27.05 40.8841C26.359 41.6728 26.4434 42.875 27.2342 43.5642L29.7141 45.7236C30.0749 46.0376 30.5202 46.1907 30.9655 46.1907C31.4416 46.1907 31.9253 46.0146 32.2861 45.6547L38.4819 39.6665V48.5875H38.4896Z" fill="url(#paint2_linear_2977_10724)"/>
<path d="M71.77 118.983C71.5781 118.194 67.9483 106.826 67.2189 106.473L66.3206 106.045C65.9382 108.211 69.2228 108.178 67.2189 102.918L69.8688 93.9154L72.5186 84.9131L70.5936 58.9212C71.6454 58.9212 61.6981 59.9702 61.6981 58.9212C61.6981 58.2293 66.5414 66.0535 49.9501 85.5858C45.8373 90.4276 40.3683 99.1195 46.0091 99.1195H10.9819C7.30431 99.1195 4.31004 96.1331 4.31004 92.4651V23.0553C4.31004 22.0062 3.45783 21.1562 2.406 21.1562C1.35417 21.1562 0.501953 22.0062 0.501953 23.0553V92.4651C0.501953 98.2312 5.20064 102.918 10.9819 102.918H23.3351L24.5635 106.149C26.9129 112.329 31.4964 117.314 37.4619 120.185L37.8995 120.392L39.9725 128.746C40.1875 129.612 40.9629 130.194 41.8151 130.194C41.9687 130.194 42.1222 130.178 42.2758 130.14C43.2969 129.887 74.8945 130.931 74.6411 129.912L71.77 118.991V118.983Z" fill="url(#paint3_linear_2977_10724)"/>
<path d="M68.9316 62.8075V78.7352C68.9316 81.7752 68.7781 84.8612 68.471 87.9012C68.3635 88.9427 69.1312 89.8769 70.1754 89.9764C71.2195 90.0836 72.1562 89.3179 72.256 88.2765C72.5708 85.1063 72.732 81.8977 72.732 78.7352V62.7999C72.732 58.9711 69.6073 55.8622 65.7761 55.8622C62.1753 55.8622 59.1273 58.6648 58.8433 62.2409L57.8145 74.9677C50.467 80.596 45.2769 88.644 43.204 97.6569L41.8297 103.615C41.5917 104.633 42.2366 105.651 43.2577 105.889C43.4036 105.919 43.5418 105.935 43.6877 105.935C44.5553 105.935 45.3384 105.337 45.538 104.464L46.9123 98.5069C48.8086 90.2674 53.5764 82.9239 60.3404 77.8163L60.7934 77.4794C61.2233 77.1501 61.4997 76.66 61.5458 76.1163L62.6437 62.5395C62.7742 60.9161 64.1562 59.645 65.7838 59.645C67.5189 59.645 68.9393 61.054 68.9393 62.7922L68.9316 62.8075Z" fill="url(#paint4_linear_2977_10724)"/>
<path d="M76.1567 127.697L69.316 105.919C69.2776 105.782 69.2699 105.636 69.3007 105.498L72.0104 89.5518C72.0488 89.345 72.0872 89.1459 72.1256 88.9392L72.187 88.5946C72.379 87.5608 72.0253 86.5836 70.9888 86.3921C69.9524 86.2007 68.7304 86.8541 68.5384 87.8878L68.4693 88.2554C68.4386 88.4392 68.4002 88.623 68.3695 88.8067L65.5693 104.763C65.4235 105.498 65.4542 106.264 65.6691 106.984L72.5099 128.762C72.7479 129.589 73.508 130.133 74.3372 130.133C74.5137 130.133 74.6903 130.11 74.8669 130.056C75.8727 129.765 76.4562 128.708 76.1644 127.705L76.1567 127.697Z" fill="url(#paint5_linear_2977_10724)"/>
<defs>
<linearGradient id="paint0_linear_2977_10724" x1="0.501953" y1="26.955" x2="62.5216" y2="26.955" gradientUnits="userSpaceOnUse">
<stop stop-color="#9747FF"/>
<stop offset="1" stop-color="#EE2FB8"/>
</linearGradient>
<linearGradient id="paint1_linear_2977_10724" x1="13.3232" y1="71.897" x2="49.6997" y2="71.897" gradientUnits="userSpaceOnUse">
<stop stop-color="#9747FF"/>
<stop offset="1" stop-color="#EE2FB8"/>
</linearGradient>
<linearGradient id="paint2_linear_2977_10724" x1="20.7236" y1="39.0156" x2="50.8121" y2="39.0156" gradientUnits="userSpaceOnUse">
<stop stop-color="#9747FF"/>
<stop offset="1" stop-color="#EE2FB8"/>
</linearGradient>
<linearGradient id="paint3_linear_2977_10724" x1="0.486199" y1="85.6434" x2="74.6007" y2="85.6434" gradientUnits="userSpaceOnUse">
<stop stop-color="#9747FF"/>
<stop offset="1" stop-color="#EE2FB8"/>
</linearGradient>
<linearGradient id="paint4_linear_2977_10724" x1="-14.3085" y1="84.5155" x2="75.1211" y2="85.1845" gradientUnits="userSpaceOnUse">
<stop offset="0.157373" stop-color="#9747FF"/>
<stop offset="1" stop-color="#EE2FB8"/>
</linearGradient>
<linearGradient id="paint5_linear_2977_10724" x1="32.3026" y1="112.504" x2="76.2335" y2="112.206" gradientUnits="userSpaceOnUse">
<stop stop-color="#9747FF"/>
<stop offset="1" stop-color="#EE2FB8"/>
</linearGradient>
</defs>
</svg>
