<svg width="41" height="41" viewBox="0 0 41 41" fill="none" xmlns="http://www.w3.org/2000/svg">
<path d="M34.0155 9.79927H2.01546C1.27848 9.79927 0.682129 10.3963 0.682129 11.1326V29.7993C0.682129 30.5356 1.27848 31.1326 2.01546 31.1326H34.0155C34.7524 31.1326 35.3488 30.5356 35.3488 29.7993V11.1326C35.3488 10.3963 34.7524 9.79927 34.0155 9.79927Z" fill="#66BB6A"/>
<path d="M18.0155 15.1326C15.0741 15.1326 12.6821 17.5252 12.6821 20.4659C12.6821 23.4067 15.0741 25.7993 18.0155 25.7993C20.9569 25.7993 23.3488 23.4067 23.3488 20.4659C23.3488 17.5252 20.9569 15.1326 18.0155 15.1326Z" fill="white"/>
<path d="M8.68213 24.4659H7.3488C6.61182 24.4659 6.01546 23.8689 6.01546 23.1326V17.7993C6.01546 17.0629 6.61182 16.4659 7.3488 16.4659H8.68213C9.41911 16.4659 10.0155 17.0629 10.0155 17.7993C10.0155 18.5356 9.41911 19.1326 8.68213 19.1326V21.7993C9.41911 21.7993 10.0155 22.3963 10.0155 23.1326C10.0155 23.8689 9.41911 24.4659 8.68213 24.4659Z" fill="white"/>
<path d="M28.6821 24.4659H27.3488C26.6118 24.4659 26.0155 23.8689 26.0155 23.1326C26.0155 22.3963 26.6118 21.7993 27.3488 21.7993V19.1326C26.6118 19.1326 26.0155 18.5356 26.0155 17.7993C26.0155 17.0629 26.6118 16.4659 27.3488 16.4659H28.6821C29.4191 16.4659 30.0155 17.0629 30.0155 17.7993V23.1326C30.0155 23.8689 29.4191 24.4659 28.6821 24.4659Z" fill="white"/>
<path d="M31.3488 20.4659C26.203 20.4659 22.0155 24.6528 22.0155 29.7993C22.0155 34.9458 26.203 39.1326 31.3488 39.1326C36.4946 39.1326 40.6821 34.9458 40.6821 29.7993C40.6821 24.6528 36.4946 20.4659 31.3488 20.4659Z" fill="#FFCA28"/>
<path d="M31.3488 28.4659C30.9816 28.4659 30.6821 28.1671 30.6821 27.7993C30.6821 27.4314 30.9816 27.1326 31.3488 27.1326C31.6248 27.1326 31.88 27.3116 31.9686 27.5675C32.2082 28.2635 32.9647 28.632 33.6639 28.393C34.3605 28.1528 34.729 27.3937 34.4894 26.6977C34.1717 25.7765 33.4673 25.0727 32.5988 24.7198C32.423 24.1886 31.9386 23.7993 31.3488 23.7993C30.7603 23.7993 30.2772 24.186 30.1001 24.7133C28.88 25.2094 28.0155 26.4034 28.0155 27.7993C28.0155 29.6372 29.5103 31.1326 31.3488 31.1326C31.716 31.1326 32.0155 31.4314 32.0155 31.7993C32.0155 32.1671 31.716 32.4659 31.3488 32.4659C31.0728 32.4659 30.8175 32.2869 30.729 32.031C30.4894 31.3351 29.729 30.9646 29.0337 31.2055C28.3371 31.4458 27.9686 32.2049 28.2082 32.9008C28.5259 33.8221 29.2303 34.5258 30.0988 34.8787C30.2746 35.4099 30.759 35.7993 31.3488 35.7993C31.9373 35.7993 32.4204 35.4126 32.5975 34.8852C33.8175 34.3891 34.6821 33.1951 34.6821 31.7993C34.6821 29.9614 33.1873 28.4659 31.3488 28.4659Z" fill="#FF8F00"/>
<path d="M21.7069 37.7628C19.0493 37.9516 16.4347 37.479 14.0285 36.4633C14.759 36.4555 15.3488 35.8644 15.3488 35.1326C15.3488 34.3963 14.7524 33.7993 14.0155 33.7993H10.0155C9.27848 33.7993 8.68213 34.3963 8.68213 35.1326V39.1326C8.68213 39.8689 9.27848 40.4659 10.0155 40.4659C10.7524 40.4659 11.3488 39.8689 11.3488 39.1326V38.1352C14.2121 39.6573 17.3931 40.4659 20.6821 40.4659C21.0871 40.4659 21.492 40.4516 21.897 40.423C22.6313 40.3702 23.1847 39.7322 23.1313 38.9978C23.0793 38.2641 22.4491 37.7088 21.7069 37.7628Z" fill="#66BB6A"/>
<path d="M31.3488 0.465942C30.6118 0.465942 30.0155 1.06295 30.0155 1.79928V2.79667C27.1522 1.27454 23.9712 0.465942 20.6821 0.465942C16.1626 0.465942 11.8892 1.94771 8.32406 4.7511C7.74463 5.20618 7.64437 6.04472 8.1001 6.62349C8.36312 6.95813 8.75374 7.13261 9.14958 7.13261C9.43734 7.13261 9.7277 7.03951 9.97249 6.84745C13.0623 4.41711 16.7668 3.13261 20.6821 3.13261C22.9946 3.13261 25.2446 3.59355 27.3358 4.46855C26.6053 4.47571 26.0155 5.06751 26.0155 5.79928C26.0155 6.5356 26.6118 7.13261 27.3488 7.13261H31.3488C32.0858 7.13261 32.6821 6.5356 32.6821 5.79928V1.79928C32.6821 1.06295 32.0858 0.465942 31.3488 0.465942Z" fill="#66BB6A"/>
</svg>
