<svg width="131" height="131" viewBox="0 0 131 131" fill="none" xmlns="http://www.w3.org/2000/svg">
<path d="M44.6306 130.279C35.8766 130.278 27.3193 127.682 20.0408 122.818C12.7623 117.954 7.08948 111.042 3.73974 102.954C0.39 94.8661 -0.486236 85.9666 1.22183 77.3808C2.9299 68.795 7.14557 60.9086 13.3357 54.7187C19.5259 48.5288 27.4126 44.3135 35.9984 42.6058C44.5842 40.8981 53.4836 41.7747 61.5713 45.1249C69.6589 48.475 76.5715 54.1481 81.4349 61.4268C86.2983 68.7056 88.8942 77.263 88.8942 86.0171C88.8807 97.7522 84.2129 109.003 75.9147 117.301C67.6165 125.598 56.3657 130.266 44.6306 130.279Z" fill="url(#paint0_linear_2977_10693)"/>
<path d="M94.4034 72.2145C93.6642 72.2145 92.9554 71.9209 92.4327 71.3982C91.9101 70.8756 91.6165 70.1667 91.6165 69.4276C91.6165 68.6884 91.9101 67.9796 92.4327 67.4569C92.9554 66.9343 93.6642 66.6407 94.4034 66.6407C100.415 66.6407 106.291 64.858 111.29 61.5182C116.288 58.1784 120.184 53.4313 122.484 47.8774C124.784 42.3235 125.386 36.2122 124.213 30.3163C123.04 24.4203 120.145 19.0046 115.894 14.754C111.644 10.5034 106.228 7.60884 100.332 6.4363C94.4357 5.26377 88.3244 5.86597 82.7707 8.16673C77.2169 10.4675 72.4702 14.3635 69.1307 19.362C65.7912 24.3606 64.009 30.2372 64.0094 36.2486C64.0094 36.9878 63.7157 37.6966 63.1931 38.2193C62.6705 38.7419 61.9616 39.0355 61.2225 39.0355C60.4833 39.0355 59.7745 38.7419 59.2518 38.2193C58.7292 37.6966 58.4355 36.9878 58.4355 36.2486C58.4351 29.1348 60.5443 22.1805 64.4962 16.2654C68.4482 10.3502 74.0654 5.73982 80.6377 3.01718C87.2099 0.294543 94.4419 -0.418032 101.419 0.969568C108.396 2.35717 114.805 5.78262 119.836 10.8127C124.866 15.8429 128.292 22.2517 129.68 29.2289C131.068 36.206 130.356 43.4381 127.633 50.0104C124.911 56.5828 120.301 62.2004 114.386 66.1527C108.471 70.105 101.517 72.2145 94.4034 72.2145Z" fill="url(#paint1_linear_2977_10693)"/>
<path d="M97.2097 54.6995C96.7163 54.6988 96.2434 54.5025 95.8946 54.1536C95.5457 53.8048 95.3494 53.3319 95.3487 52.8385V50.0688C95.3487 49.8278 95.253 49.5966 95.0825 49.4262C94.9121 49.2558 94.681 49.16 94.4399 49.16H91.6716C91.5521 49.1598 91.4338 49.1832 91.3234 49.2288C91.213 49.2744 91.1126 49.3413 91.0281 49.4257C90.9436 49.5101 90.8765 49.6104 90.8307 49.7207C90.785 49.8311 90.7614 49.9493 90.7614 50.0688V52.8385C90.7681 53.0871 90.725 53.3344 90.6345 53.566C90.5441 53.7975 90.4081 54.0086 90.2347 54.1868C90.0613 54.3649 89.8539 54.5065 89.6249 54.6032C89.3959 54.6999 89.1498 54.7497 88.9012 54.7497C88.6525 54.7497 88.4064 54.6999 88.1774 54.6032C87.9484 54.5065 87.741 54.3649 87.5676 54.1868C87.3942 54.0086 87.2583 53.7975 87.1678 53.566C87.0773 53.3344 87.0342 53.0871 87.0409 52.8385V50.0688C87.0409 49.8278 86.9451 49.5966 86.7747 49.4262C86.6043 49.2558 86.3731 49.16 86.1321 49.16H83.3624C83.1138 49.1667 82.8665 49.1236 82.6349 49.0331C82.4034 48.9426 82.1923 48.8067 82.0141 48.6333C81.836 48.4599 81.6944 48.2525 81.5977 48.0235C81.501 47.7944 81.4512 47.5483 81.4512 47.2997C81.4512 47.0511 81.501 46.805 81.5977 46.576C81.6944 46.3469 81.836 46.1396 82.0141 45.9662C82.1923 45.7928 82.4034 45.6568 82.6349 45.5664C82.8665 45.4759 83.1138 45.4327 83.3624 45.4394H86.1321C86.3731 45.4394 86.6043 45.3437 86.7747 45.1733C86.9451 45.0028 87.0409 44.7717 87.0409 44.5307V27.9136C87.0409 27.6726 86.9451 27.4414 86.7747 27.271C86.6043 27.1006 86.3731 27.0048 86.1321 27.0048H83.3624C82.8688 27.0048 82.3955 26.8087 82.0465 26.4597C81.6975 26.1107 81.5014 25.6374 81.5014 25.1438C81.5014 24.6503 81.6975 24.1769 82.0465 23.828C82.3955 23.479 82.8688 23.2829 83.3624 23.2829H86.1321C86.2514 23.2829 86.3696 23.2594 86.4799 23.2137C86.5901 23.168 86.6903 23.1011 86.7747 23.0167C86.8591 22.9323 86.926 22.8321 86.9717 22.7219C87.0174 22.6116 87.0409 22.4935 87.0409 22.3741V19.6044C87.054 19.1197 87.2557 18.6593 87.6031 18.3211C87.9506 17.9829 88.4163 17.7936 88.9012 17.7936C89.386 17.7936 89.8517 17.9829 90.1992 18.3211C90.5466 18.6593 90.7483 19.1197 90.7614 19.6044V22.3728C90.7614 22.4922 90.785 22.6105 90.8307 22.7208C90.8765 22.8312 90.9436 22.9314 91.0281 23.0158C91.1126 23.1002 91.213 23.1672 91.3234 23.2127C91.4338 23.2583 91.5521 23.2817 91.6716 23.2815H94.4399C94.681 23.2815 94.9121 23.1858 95.0825 23.0154C95.253 22.8449 95.3487 22.6138 95.3487 22.3728V19.6044C95.3487 19.1108 95.5448 18.6375 95.8938 18.2885C96.2428 17.9395 96.7161 17.7434 97.2097 17.7434C97.7032 17.7434 98.1766 17.9395 98.5256 18.2885C98.8746 18.6375 99.0706 19.1108 99.0706 19.6044V22.8855C99.0707 23.073 99.1287 23.2559 99.2367 23.4091C99.3448 23.5623 99.4976 23.6784 99.6742 23.7413C100.692 24.0942 101.62 24.6675 102.39 25.4203C103.161 26.1731 103.756 27.0869 104.133 28.0963C104.51 29.1057 104.659 30.1859 104.57 31.2596C104.48 32.3333 104.155 33.3741 103.617 34.3076C103.5 34.5107 103.466 34.7513 103.522 34.979C103.579 35.2067 103.721 35.4036 103.92 35.5283C105.271 36.3845 106.309 37.6562 106.876 39.1522C107.443 40.6483 107.51 42.288 107.066 43.8251C106.622 45.3623 105.691 46.7138 104.413 47.6768C103.135 48.6397 101.579 49.1621 99.9794 49.1654C99.7384 49.1654 99.5072 49.2612 99.3368 49.4316C99.1664 49.602 99.0706 49.8332 99.0706 50.0742V52.844C99.0685 53.3364 98.8716 53.8079 98.5229 54.1556C98.1742 54.5032 97.7021 54.6988 97.2097 54.6995ZM91.6716 38.0824C91.5521 38.0822 91.4338 38.1056 91.3234 38.1512C91.213 38.1968 91.1126 38.2637 91.0281 38.3481C90.9436 38.4325 90.8765 38.5328 90.8307 38.6431C90.785 38.7535 90.7614 38.8717 90.7614 38.9912V44.5307C90.7614 44.6501 90.785 44.7684 90.8307 44.8788C90.8765 44.9891 90.9436 45.0893 91.0281 45.1738C91.1126 45.2582 91.213 45.3251 91.3234 45.3707C91.4338 45.4163 91.5521 45.4396 91.6716 45.4394H99.9794C104.847 45.4394 104.842 38.0824 99.9794 38.0824H91.6716ZM91.6716 27.0048C91.5521 27.0046 91.4338 27.028 91.3234 27.0736C91.213 27.1192 91.1126 27.1861 91.0281 27.2705C90.9436 27.3549 90.8765 27.4552 90.8307 27.5655C90.785 27.6758 90.7614 27.7941 90.7614 27.9136V33.4517C90.7614 33.5712 90.785 33.6895 90.8307 33.7998C90.8765 33.9101 90.9436 34.0104 91.0281 34.0948C91.1126 34.1792 91.213 34.2461 91.3234 34.2917C91.4338 34.3373 91.5521 34.3607 91.6716 34.3605H97.2097C102.079 34.3605 102.072 27.0048 97.2097 27.0048H91.6716Z" fill="url(#paint2_linear_2977_10693)"/>
<path d="M85.9063 122.639C108.364 121.014 126.138 99.5616 124.716 75.8159C124.692 75.0904 124.952 74.3843 125.441 73.8477C125.93 73.3111 126.609 72.9865 127.334 72.9428C128.058 72.8991 128.771 73.1399 129.321 73.6139C129.871 74.0879 130.214 74.7577 130.278 75.4808C131.903 102.665 112.185 126.314 86.3105 128.199C85.5733 128.252 84.845 128.011 84.2857 127.527C83.7265 127.044 83.3822 126.358 83.3286 125.621C83.275 124.884 83.5165 124.155 83.9999 123.596C84.4833 123.037 85.1691 122.693 85.9063 122.639Z" fill="url(#paint3_linear_2977_10693)"/>
<path d="M2.45668 44.258C3.69436 32.1838 9.35527 20.9943 18.3494 12.8442C23.2961 8.31648 29.1388 4.87836 35.4989 2.7526C41.8591 0.626828 48.5948 -0.139182 55.2699 0.504189C55.9944 0.588192 56.6572 0.952914 57.1159 1.52007C57.5746 2.08722 57.7926 2.81159 57.7232 3.5377C57.6538 4.26381 57.3025 4.93377 56.7447 5.40378C56.1869 5.87379 55.4671 6.10637 54.7397 6.05162C43.4017 5.00615 32.112 8.50219 23.349 15.7723C14.5861 23.0425 9.0658 33.4926 8.00004 44.8288C7.91055 45.5526 7.54093 46.2124 6.97047 46.6668C6.40001 47.1211 5.67418 47.3338 4.94873 47.2591C4.22328 47.1844 3.55601 46.8283 3.09011 46.2672C2.62421 45.7062 2.3968 44.9848 2.45668 44.258Z" fill="url(#paint4_linear_2977_10693)"/>
<path d="M44.6336 83.7686C40.9599 83.7686 37.9681 80.7821 37.9681 77.115C37.9681 73.4478 40.9599 70.4614 44.6336 70.4614C47.1375 70.4614 49.4075 71.8428 50.5574 74.059C51.1299 75.1671 52.4938 75.5944 53.6039 75.0229C54.714 74.4515 55.1471 73.09 54.5697 71.9819C52.9916 68.9408 50.1641 66.8439 46.8936 66.173V61.671C46.8936 60.4238 45.8831 59.4151 44.6336 59.4151C43.3842 59.4151 42.3737 60.4238 42.3737 61.671V66.173C37.2862 67.2165 33.4531 71.7235 33.4531 77.105C33.4531 83.2617 38.4709 88.2655 44.6336 88.2655C48.3074 88.2655 51.2991 91.252 51.2991 94.9192C51.2991 98.5863 48.3074 101.573 44.6336 101.573C42.1297 101.573 39.8598 100.191 38.7099 97.9752C38.1374 96.867 36.7734 96.4347 35.6633 97.0111C34.5533 97.5826 34.1202 98.9441 34.6976 100.052C36.2756 103.093 39.1031 105.19 42.3737 105.861V110.363C42.3737 111.61 43.3842 112.619 44.6336 112.619C45.8831 112.619 46.8936 111.61 46.8936 110.363V105.861C51.9811 104.818 55.8141 100.311 55.8141 94.9291C55.8141 88.7724 50.7964 83.7686 44.6336 83.7686Z" fill="white"/>
<defs>
<linearGradient id="paint0_linear_2977_10693" x1="0.371094" y1="41.7554" x2="103.943" y2="66.0047" gradientUnits="userSpaceOnUse">
<stop stop-color="#832FEE"/>
<stop offset="1" stop-color="#EE2FB8"/>
</linearGradient>
<linearGradient id="paint1_linear_2977_10693" x1="58.4355" y1="0.278687" x2="142.6" y2="19.9841" gradientUnits="userSpaceOnUse">
<stop stop-color="#832FEE"/>
<stop offset="1" stop-color="#EE2FB8"/>
</linearGradient>
<linearGradient id="paint2_linear_2977_10693" x1="81.4512" y1="17.7434" x2="112.585" y2="22.8461" gradientUnits="userSpaceOnUse">
<stop stop-color="#832FEE"/>
<stop offset="1" stop-color="#EE2FB8"/>
</linearGradient>
<linearGradient id="paint3_linear_2977_10693" x1="83.3213" y1="72.9377" x2="139.168" y2="84.069" gradientUnits="userSpaceOnUse">
<stop stop-color="#832FEE"/>
<stop offset="1" stop-color="#EE2FB8"/>
</linearGradient>
<linearGradient id="paint4_linear_2977_10693" x1="2.44727" y1="0.283325" x2="65.8678" y2="17.7542" gradientUnits="userSpaceOnUse">
<stop stop-color="#832FEE"/>
<stop offset="1" stop-color="#EE2FB8"/>
</linearGradient>
</defs>
</svg>
