<svg width="51" height="51" viewBox="0 0 51 51" fill="none" xmlns="http://www.w3.org/2000/svg">
<path fill-rule="evenodd" clip-rule="evenodd" d="M2.31651 8.99403V32.659V44.4084C2.31651 46.678 4.15644 48.518 6.4261 48.518H44.0973C46.367 48.518 48.2069 46.678 48.2069 44.4084V8.99403H2.31651ZM6.4261 0.572754C3.02161 0.572754 0.261719 3.33264 0.261719 6.73714V32.659V44.4084C0.261719 47.8129 3.02161 50.5728 6.4261 50.5728H44.0973C47.5018 50.5728 50.2617 47.8129 50.2617 44.4084V6.73714C50.2617 3.33264 47.5018 0.572754 44.0973 0.572754H6.4261ZM13.3585 37.559H37.5077H38.7893C39.2621 37.559 39.6454 37.1757 39.6454 36.7029C39.6454 36.23 39.2621 35.8467 38.7893 35.8467H37.5077H13.3585H12.077C11.6041 35.8467 11.2208 36.23 11.2208 36.7029C11.2208 37.1757 11.6041 37.559 12.077 37.559H13.3585ZM33.3984 41.3261H17.4684H16.1868C15.7139 41.3261 15.3306 40.9428 15.3306 40.47C15.3306 39.9971 15.7139 39.6138 16.1868 39.6138H17.4684H33.3984H34.6799C35.1528 39.6138 35.5361 39.9971 35.5361 40.47C35.5361 40.9428 35.1528 41.3261 34.6799 41.3261H33.3984ZM28.3437 20.7782C28.3437 22.4804 26.9638 23.8603 25.2616 23.8603C23.5593 23.8603 22.1794 22.4804 22.1794 20.7782C22.1794 19.0759 23.5593 17.696 25.2616 17.696C26.9638 17.696 28.3437 19.0759 28.3437 20.7782ZM34.1749 22.2051C34.1749 27.0427 30.2533 30.9643 25.4157 30.9643C20.5781 30.9643 16.6565 27.0427 16.6565 22.2051C16.6565 17.3675 20.5781 13.4459 25.4157 13.4459C30.2533 13.4459 34.1749 17.3675 34.1749 22.2051ZM17.9737 22.2051C17.9737 24.1302 18.7047 25.8846 19.9042 27.2059C19.9613 26.3678 20.8481 25.5673 22.6383 25.2452C23.6509 25.063 24.5645 24.9531 25.2439 24.9531C25.8917 24.9531 26.6915 25.0505 27.5664 25.2168C29.7913 25.6397 30.6212 26.8134 30.2492 27.864C31.8458 26.499 32.8578 24.4702 32.8578 22.2051C32.8578 18.095 29.5258 14.763 25.4157 14.763C21.3056 14.763 17.9737 18.095 17.9737 22.2051Z" fill="url(#paint0_linear_3276_4200)"/>
<defs>
<linearGradient id="paint0_linear_3276_4200" x1="0.261719" y1="0.572754" x2="58.7615" y2="14.2694" gradientUnits="userSpaceOnUse">
<stop stop-color="#832FEE"/>
<stop offset="1" stop-color="#EE2FB8"/>
</linearGradient>
</defs>
</svg>
