<svg width="139" height="131" viewBox="0 0 139 131" fill="none" xmlns="http://www.w3.org/2000/svg">
<path d="M70.104 88.4423C70.104 89.6698 26.4521 57.5135 25.2246 57.5135C23.9971 57.5135 23.002 56.5184 23.002 55.2908V9.34634C23.002 4.19071 27.1814 0.0112305 32.337 0.0112305H109.645C114.801 0.0112305 118.98 4.1907 118.98 9.34633V56.0515C118.98 57.279 117.985 58.2741 116.758 58.2741C115.53 58.2741 70.104 89.6698 70.104 88.4423Z" fill="url(#paint0_linear_2977_10628)"/>
<path d="M72.0693 15.1943C57.8533 15.1943 46.2861 26.7616 46.2861 40.9776C46.2861 55.1936 57.8533 66.7608 72.0693 66.7608C86.2853 66.7608 97.8525 55.1936 97.8525 40.9776C97.8525 26.7616 86.2853 15.1943 72.0693 15.1943ZM72.0693 62.0708C60.4373 62.0708 50.9762 52.6096 50.9762 40.9776C50.9762 29.3456 60.4373 19.8844 72.0693 19.8844C83.7013 19.8844 93.1624 29.3456 93.1624 40.9776C93.1624 52.6096 83.7013 62.0708 72.0693 62.0708Z" fill="white"/>
<path d="M79.7801 32.2859L67.3786 44.6874L64.3491 41.6579C63.4338 40.7426 61.9514 40.7426 61.0361 41.6579C60.1208 42.5732 60.1208 44.0556 61.0361 44.9709L65.7261 49.661C66.1798 50.1146 66.7792 50.3495 67.3867 50.3495C67.9943 50.3495 68.5856 50.1227 69.0473 49.661L83.1093 35.5989C84.0247 34.6836 84.0247 33.2012 83.1093 32.2859C82.194 31.3705 80.7116 31.3705 79.7963 32.2859H79.7801Z" fill="white"/>
<path fill-rule="evenodd" clip-rule="evenodd" d="M5.17184 46.7857C5.17184 46.2062 5.51834 45.7077 6.01546 45.486L46.0945 75.6092C46.0336 75.6656 45.9748 75.7254 45.9184 75.7884L5.17184 121.329V46.7857ZM8.5778 125.522C8.77186 125.551 8.97048 125.566 9.17259 125.566H129.57C129.714 125.566 129.857 125.558 129.997 125.544L91.3718 78.2471L75.2122 90.0177C72.2107 92.204 68.1333 92.1735 65.1649 89.9424L50.2907 78.7631C50.1872 78.9692 50.055 79.1652 49.8938 79.3453L8.58241 125.517C8.58088 125.519 8.57934 125.52 8.5778 125.522ZM95.6902 75.1016L133.571 121.486V47.5093L95.6902 75.1016ZM0.726562 46.7857C0.726562 43.5451 3.35365 40.918 6.59432 40.918H22.3898C23.6174 40.918 24.6125 41.9131 24.6125 43.1406C24.6125 44.3681 23.6174 45.3632 22.3898 45.3632H13.2509L67.8357 86.3889C69.2418 87.4457 71.1732 87.4602 72.5949 86.4246L128.967 45.3632H116.353C115.125 45.3632 114.13 44.3681 114.13 43.1406C114.13 41.9131 115.125 40.918 116.353 40.918H135.794C137.021 40.918 138.016 41.9131 138.016 43.1406V121.565C138.016 126.23 134.235 130.011 129.57 130.011H9.17259C4.50798 130.011 0.726562 126.23 0.726562 121.565V46.7857Z" fill="url(#paint1_linear_2977_10628)"/>
<defs>
<linearGradient id="paint0_linear_2977_10628" x1="23.002" y1="0.0112305" x2="134.272" y2="28.2753" gradientUnits="userSpaceOnUse">
<stop stop-color="#832FEE"/>
<stop offset="1" stop-color="#EE2FB8"/>
</linearGradient>
<linearGradient id="paint1_linear_2977_10628" x1="0.726562" y1="40.918" x2="150.645" y2="95.0068" gradientUnits="userSpaceOnUse">
<stop stop-color="#832FEE"/>
<stop offset="1" stop-color="#EE2FB8"/>
</linearGradient>
</defs>
</svg>
