<svg width="128" height="134" viewBox="0 0 128 134" fill="none" xmlns="http://www.w3.org/2000/svg">
<path d="M38.0644 57.1681H41.4325C46.3928 57.1681 50.414 53.1469 50.414 48.1866V39.205C50.414 34.2446 46.3928 30.2234 41.4325 30.2234H38.0644C36.2042 30.2234 34.6963 31.7313 34.6963 33.5915V53.8C34.6963 55.6602 36.2042 57.1681 38.0644 57.1681ZM39.1871 34.7142H41.4325C43.9126 34.7142 45.9232 36.7248 45.9232 39.205V48.1866C45.9232 50.6667 43.9126 52.6773 41.4325 52.6773H39.1871V34.7142Z" fill="url(#paint0_linear_2977_10700)"/>
<path d="M57.1507 57.1681C58.3908 57.1681 59.3961 56.1628 59.3961 54.9227V45.9412H62.7641C67.1045 45.9412 70.623 42.4226 70.623 38.0823C70.623 33.7419 67.1045 30.2234 62.7641 30.2234H58.2734C56.4132 30.2234 54.9053 31.7313 54.9053 33.5915V54.9227C54.9053 56.1628 55.9106 57.1681 57.1507 57.1681ZM59.3961 34.7142H62.7641C64.6243 34.7142 66.1322 36.2221 66.1322 38.0823C66.1322 39.9424 64.6243 41.4504 62.7641 41.4504H59.3961V34.7142Z" fill="url(#paint1_linear_2977_10700)"/>
<path d="M22.3462 57.1681C26.6865 57.1681 30.2051 53.6496 30.2051 49.3093V47.0639C30.2051 45.2037 28.6971 43.6958 26.837 43.6958H25.7143C24.4742 43.6958 23.4689 44.7011 23.4689 45.9412C23.4689 47.1813 24.4742 48.1866 25.7143 48.1866V49.3093C25.7143 51.1694 24.2063 52.6774 22.3462 52.6774C20.486 52.6774 18.9781 51.1694 18.9781 49.3093V38.0823C18.9764 36.3519 20.2861 34.9018 22.0077 34.7279C23.7293 34.554 25.3026 35.7129 25.6469 37.4087C25.8949 38.6246 27.0817 39.4092 28.2976 39.1612C29.5135 38.9132 30.2981 37.7264 30.0501 36.5105C29.2516 32.5483 25.5779 29.8379 21.5565 30.2441C17.5351 30.6502 14.4775 34.0404 14.4873 38.0823V49.3093C14.4873 53.6496 18.0059 57.1681 22.3462 57.1681Z" fill="#8D2FE9"/>
<path d="M77.3587 57.1681C78.5988 57.1681 79.6041 56.1628 79.6041 54.9228V45.9412H81.8494C83.0895 45.9412 84.0948 46.9465 84.0948 48.1866V54.9228C84.0948 56.1628 85.1001 57.1681 86.3402 57.1681C87.5803 57.1681 88.5856 56.1628 88.5856 54.9228V48.1866C88.5842 46.8763 88.1986 45.5952 87.4764 44.5019C90.2878 42.5393 91.4992 38.9784 90.4677 35.7086C89.4362 32.4387 86.4008 30.2175 82.9721 30.2234H78.4814C76.6212 30.2234 75.1133 31.7313 75.1133 33.5915V54.9228C75.1133 56.1628 76.1186 57.1681 77.3587 57.1681ZM79.6041 34.7142H82.9721C84.8323 34.7142 86.3402 36.2221 86.3402 38.0823C86.3402 39.9424 84.8323 41.4504 82.9721 41.4504H79.6041V34.7142Z" fill="url(#paint2_linear_2977_10700)"/>
<path d="M18.4173 87.7617H54.3435C55.5836 87.7617 56.5889 86.7564 56.5889 85.5163C56.5889 84.2762 55.5836 83.2709 54.3435 83.2709H18.4173C17.1772 83.2709 16.1719 84.2762 16.1719 85.5163C16.1719 86.7564 17.1772 87.7617 18.4173 87.7617Z" fill="#8D2FE9"/>
<rect x="15.8906" y="73.1666" width="27.7867" height="4.21012" rx="2.10506" fill="#8D2FE9"/>
<path d="M101.777 68.1145V23.5302C101.777 21.361 100.848 19.2957 99.2238 17.8574L84.9164 5.18413C83.5304 3.95648 81.743 3.27869 79.8915 3.27869H10.839C6.65363 3.27869 3.26074 6.67156 3.26074 10.8569V114.426C3.26074 118.611 6.65362 122.004 10.8389 122.004H77.1481" stroke="url(#paint3_linear_2977_10700)" stroke-width="5.05213" stroke-linecap="round" stroke-linejoin="round"/>
<path d="M104.539 76.5637C110.726 79.9846 117.582 82.1085 124.665 82.7986C126.508 83.0313 127.885 84.5594 127.879 86.3649V93.9821C128.001 110.162 118.956 125.098 104.339 132.855C103.265 133.42 101.97 133.42 100.895 132.855C96.1491 130.356 91.9141 127.034 88.4002 123.052C88.2255 122.801 84.8259 118.47 84.6554 118.214C79.8729 110.987 77.3396 102.573 77.3595 93.9821V86.3649C77.3535 84.5594 78.7308 83.0313 80.5738 82.7986C83.754 82.4195 91.111 80.4595 94.1995 79.631C96.4657 78.8209 98.6432 77.7934 100.7 76.5637C101.871 75.8403 103.368 75.8403 104.539 76.5637Z" fill="url(#paint4_linear_2977_10700)"/>
<path d="M109.263 94.2892L98.574 104.871L95.9629 102.286C95.1739 101.505 93.8963 101.505 93.1073 102.286C92.3184 103.067 92.3184 104.332 93.1073 105.113L97.1497 109.114C97.5407 109.501 98.0574 109.702 98.581 109.702C99.1046 109.702 99.6143 109.508 100.012 109.114L112.132 97.1161C112.921 96.335 112.921 95.0702 112.132 94.2892C111.344 93.5082 110.066 93.5082 109.277 94.2892H109.263Z" fill="white"/>
<defs>
<linearGradient id="paint0_linear_2977_10700" x1="34.4156" y1="42.0117" x2="83.6738" y2="43.6958" gradientUnits="userSpaceOnUse">
<stop stop-color="#8D2FE9"/>
<stop offset="1" stop-color="#CB2FCA"/>
</linearGradient>
<linearGradient id="paint1_linear_2977_10700" x1="56.7296" y1="41.5907" x2="67.6759" y2="43.6958" gradientUnits="userSpaceOnUse">
<stop stop-color="#8D2FE9"/>
<stop offset="1" stop-color="#CB2FCA"/>
</linearGradient>
<linearGradient id="paint2_linear_2977_10700" x1="55.4661" y1="51.695" x2="81.5687" y2="50.853" gradientUnits="userSpaceOnUse">
<stop stop-color="#8D2FE9"/>
<stop offset="1" stop-color="#CB2FCA"/>
</linearGradient>
<linearGradient id="paint3_linear_2977_10700" x1="3.26074" y1="3.27869" x2="120.421" y2="26.0404" gradientUnits="userSpaceOnUse">
<stop stop-color="#832FEE"/>
<stop offset="1" stop-color="#EE2FB8"/>
</linearGradient>
<linearGradient id="paint4_linear_2977_10700" x1="77.3594" y1="76.0211" x2="137.157" y2="88.3745" gradientUnits="userSpaceOnUse">
<stop stop-color="#832FEE"/>
<stop offset="1" stop-color="#EE2FB8"/>
</linearGradient>
</defs>
</svg>
