<svg width="159" height="131" viewBox="0 0 159 131" fill="none" xmlns="http://www.w3.org/2000/svg">
<path d="M155.438 42.6321H134.241V9.89706C134.237 7.41757 133.251 5.04063 131.497 3.28766C129.744 1.53469 127.366 0.548842 124.887 0.546387H9.54022C7.0605 0.548024 4.68278 1.53361 2.92906 3.28676C1.17535 5.0399 0.188981 7.41732 0.186523 9.89706L0.186523 114.647C0.187342 115.474 0.516097 116.267 1.10064 116.851C1.68518 117.436 2.47776 117.765 3.30442 117.765H24.5018V127.428C24.5018 128.255 24.8303 129.048 25.415 129.633C25.9997 130.218 26.7928 130.546 27.6197 130.546H155.438C156.265 130.546 157.058 130.218 157.643 129.633C158.228 129.048 158.556 128.255 158.556 127.428V45.7501C158.556 45.3406 158.475 44.9352 158.319 44.5569C158.162 44.1786 157.932 43.8349 157.643 43.5454C157.353 43.2558 157.01 43.0262 156.631 42.8695C156.253 42.7128 155.848 42.6321 155.438 42.6321ZM3.30442 9.89706C3.30442 9.0783 3.46574 8.26757 3.77916 7.51117C4.09257 6.75478 4.55195 6.06755 5.13103 5.48874C5.71012 4.90994 6.39757 4.4509 7.15412 4.13786C7.91066 3.82482 8.72147 3.6639 9.54022 3.66431H124.887C126.54 3.66431 128.126 4.32087 129.295 5.48965C130.465 6.65843 131.122 8.24374 131.123 9.89706V28.6046H3.30442V9.89706ZM24.5018 45.7501V111.53H6.42232V31.7256H128.005V42.6352H27.6197C26.7933 42.6352 26.0007 42.9633 25.4161 43.5474C24.8315 44.1314 24.5026 44.9237 24.5018 45.7501ZM152.32 124.317H30.7376V48.868H152.32V124.317ZM124.887 6.77604H9.54022C8.71302 6.77686 7.91998 7.10604 7.33535 7.69126C6.75071 8.27647 6.42232 9.06985 6.42232 9.89706V25.4867H128.005V9.89706C128.005 9.06985 127.677 8.27647 127.092 7.69126C126.507 7.10604 125.714 6.77686 124.887 6.77604ZM15.7729 19.2508C15.1563 19.2508 14.5535 19.068 14.0407 18.7254C13.528 18.3828 13.1284 17.8958 12.8924 17.3261C12.6564 16.7564 12.5946 16.1294 12.7149 15.5246C12.8352 14.9198 13.1322 14.3642 13.5682 13.9282C14.0043 13.4921 14.5598 13.1952 15.1647 13.0749C15.7695 12.9546 16.3964 13.0163 16.9661 13.2523C17.5358 13.4883 18.0228 13.8879 18.3654 14.4007C18.708 14.9134 18.8908 15.5162 18.8908 16.1329C18.8908 16.9598 18.5623 17.7529 17.9776 18.3376C17.3929 18.9223 16.5998 19.2508 15.7729 19.2508ZM29.8035 19.2508C29.1868 19.2508 28.584 19.068 28.0713 18.7254C27.5585 18.3828 27.1589 17.8958 26.9229 17.3261C26.6869 16.7564 26.6252 16.1294 26.7455 15.5246C26.8658 14.9198 27.1627 14.3642 27.5988 13.9282C28.0348 13.4921 28.5904 13.1952 29.1952 13.0749C29.8 12.9546 30.4269 13.0163 30.9966 13.2523C31.5664 13.4883 32.0533 13.8879 32.3959 14.4007C32.7385 14.9134 32.9214 15.5162 32.9214 16.1329C32.9214 16.9598 32.5929 17.7529 32.0082 18.3376C31.4234 18.9223 30.6304 19.2508 29.8035 19.2508ZM43.8309 19.2508C43.2143 19.2508 42.6115 19.068 42.0987 18.7254C41.586 18.3828 41.1864 17.8958 40.9504 17.3261C40.7144 16.7564 40.6526 16.1294 40.7729 15.5246C40.8932 14.9198 41.1902 14.3642 41.6262 13.9282C42.0623 13.4921 42.6178 13.1952 43.2227 13.0749C43.8275 12.9546 44.4544 13.0163 45.0241 13.2523C45.5938 13.4883 46.0808 13.8879 46.4234 14.4007C46.766 14.9134 46.9488 15.5162 46.9488 16.1329C46.9488 16.5424 46.8682 16.9478 46.7115 17.3261C46.5548 17.7044 46.3251 18.0481 46.0356 18.3376C45.7461 18.6271 45.4024 18.8568 45.0241 19.0135C44.6458 19.1702 44.2404 19.2508 43.8309 19.2508Z" fill="url(#paint0_linear_2996_14047)"/>
<path d="M79.8533 105.807H73.3635C72.581 105.807 72.1089 105.37 71.8971 105.11C71.5316 104.66 71.39 104.075 71.5089 103.504C73.4125 94.3608 81.4817 87.6833 90.797 87.4667C90.9522 87.4724 91.1077 87.4763 91.2642 87.4763C91.422 87.4763 91.5789 87.4723 91.7355 87.4665C94.0133 87.5184 96.2383 87.9467 98.3562 88.742C99.3039 89.0981 100.361 88.6181 100.717 87.6703C101.073 86.7226 100.593 85.6657 99.6449 85.3099C99.3415 85.1958 99.0359 85.0892 98.7289 84.988C101.763 82.7122 103.729 79.0871 103.729 75.0113C103.729 68.1382 98.1374 62.5464 91.2642 62.5464C84.391 62.5464 78.7992 68.1382 78.7992 75.0113C78.7992 79.0908 80.7691 82.7187 83.8075 84.9941C81.0239 85.9105 78.4117 87.3355 76.1257 89.2159C71.9342 92.6636 69.0198 97.4726 67.9197 102.757C67.5749 104.413 67.9879 106.114 69.0528 107.423C70.1124 108.726 71.6836 109.473 73.3635 109.473H79.8533C80.8657 109.473 81.6863 108.653 81.6863 107.64C81.6863 106.628 80.8657 105.807 79.8533 105.807ZM82.4654 75.0113C82.4654 70.1596 86.4125 66.2125 91.2642 66.2125C96.1159 66.2125 100.063 70.1596 100.063 75.0113C100.063 79.7193 96.346 83.5753 91.6926 83.7996C91.5499 83.797 91.4072 83.7948 91.2642 83.7948C91.1208 83.7948 90.9776 83.7969 90.8344 83.7995C86.1816 83.5746 82.4654 79.7189 82.4654 75.0113Z" fill="url(#paint1_linear_2996_14047)"/>
<path d="M113.325 94.131C112.54 92.3758 110.773 91.2386 108.818 91.2341H103.101C103.097 91.2341 103.093 91.2341 103.089 91.2341C101.026 91.2341 99.2273 92.4494 98.5033 94.3326C98.407 94.5832 98.2892 94.8989 98.1663 95.2668H86.1646C85.669 95.2668 85.1946 95.4675 84.8494 95.823L81.7005 99.0665C81.007 99.7808 81.0104 100.918 81.7083 101.628L84.9162 104.892C85.2608 105.243 85.7319 105.44 86.2235 105.44H92.1811C93.1935 105.44 94.0141 104.62 94.0141 103.607C94.0141 102.595 93.1935 101.774 92.1811 101.774H86.9922L85.5781 100.335L86.9398 98.933H99.5414C100.386 98.933 101.121 98.356 101.322 97.5358C101.47 96.9303 101.656 96.3481 101.925 95.6481C102.103 95.1866 102.548 94.9002 103.093 94.9002C103.094 94.9002 103.095 94.9002 103.097 94.9002H108.813C109.332 94.9014 109.778 95.1801 109.978 95.6272C110.47 96.7282 111.057 98.4326 111.062 100.3C111.066 102.182 110.479 103.925 109.986 105.057C109.787 105.513 109.337 105.807 108.835 105.807C108.834 105.807 108.833 105.807 108.832 105.807H103.046C102.539 105.806 102.064 105.48 101.864 104.995C101.65 104.475 101.464 103.882 101.296 103.181C101.06 102.196 100.071 101.589 99.0867 101.825C98.1021 102.06 97.495 103.049 97.7306 104.034C97.9433 104.923 98.1869 105.695 98.4749 106.393C99.2447 108.259 101.036 109.468 103.042 109.473H108.827C108.831 109.473 108.835 109.473 108.839 109.473C110.796 109.473 112.564 108.316 113.347 106.522C113.98 105.069 114.734 102.809 114.728 100.292C114.722 97.7813 113.962 95.5558 113.325 94.131Z" fill="url(#paint2_linear_2996_14047)"/>
<path d="M107.304 102.141C108.316 102.141 109.137 101.32 109.137 100.308C109.137 99.2954 108.316 98.4747 107.304 98.4747C106.291 98.4747 105.471 99.2954 105.471 100.308C105.471 101.32 106.291 102.141 107.304 102.141Z" fill="url(#paint3_linear_2996_14047)"/>
<defs>
<linearGradient id="paint0_linear_2996_14047" x1="0.186523" y1="0.546387" x2="130.304" y2="10.8828" gradientUnits="userSpaceOnUse">
<stop stop-color="#832FEE"/>
<stop offset="1" stop-color="#EE2FB8"/>
</linearGradient>
<linearGradient id="paint1_linear_2996_14047" x1="67.8008" y1="62.5464" x2="97.4322" y2="64.0257" gradientUnits="userSpaceOnUse">
<stop stop-color="#832FEE"/>
<stop offset="1" stop-color="#EE2FB8"/>
</linearGradient>
<linearGradient id="paint2_linear_2996_14047" x1="81.1826" y1="91.2341" x2="108.524" y2="94.5132" gradientUnits="userSpaceOnUse">
<stop stop-color="#832FEE"/>
<stop offset="1" stop-color="#EE2FB8"/>
</linearGradient>
<linearGradient id="paint3_linear_2996_14047" x1="105.471" y1="98.4747" x2="108.489" y2="98.6716" gradientUnits="userSpaceOnUse">
<stop stop-color="#832FEE"/>
<stop offset="1" stop-color="#EE2FB8"/>
</linearGradient>
</defs>
</svg>
