<svg width="111" height="133" viewBox="0 0 111 133" fill="none" xmlns="http://www.w3.org/2000/svg">
<path d="M77.6138 2.10018L77.614 24.0246" stroke="url(#paint0_linear_2977_10665)" stroke-width="3.91769" stroke-miterlimit="10" stroke-linecap="round" stroke-linejoin="round"/>
<path d="M72.4273 37.5299C69.7497 34.6653 69.9012 30.1726 72.766 27.4948C75.6306 24.8173 80.1235 24.9689 82.801 27.8335C85.4786 30.6981 85.327 35.191 82.4624 37.8686C79.5975 40.5463 75.1048 40.3945 72.4273 37.5299Z" stroke="#D92EC3" stroke-width="3.91769" stroke-miterlimit="10" stroke-linecap="round" stroke-linejoin="round"/>
<path d="M38.6233 28.3277L2.39071 91.0563C0.878903 93.6748 0.46921 96.7867 1.25175 99.7074C2.0343 102.628 3.94498 105.118 6.5635 106.63L41.1315 126.605C40.3774 124.727 39.9904 122.722 39.9914 120.699V48.2567C39.9877 41.7593 42.5054 35.514 47.0145 30.8359L61.5622 15.8093L50.7084 18.8648C45.6077 20.3372 41.276 23.7289 38.6233 28.3277Z" fill="url(#paint1_linear_2977_10665)"/>
<path fill-rule="evenodd" clip-rule="evenodd" d="M50.2979 34.0511C46.6201 37.8668 44.5611 42.9572 44.5518 48.2568V120.699C44.5518 123.723 45.7529 126.623 47.8911 128.761C50.0292 130.899 52.9291 132.1 55.9528 132.1H99.2768C102.301 132.1 105.2 130.899 107.339 128.761C109.477 126.623 110.678 123.723 110.678 120.699V48.2568C110.669 42.9572 108.61 37.8668 104.932 34.0511L85.7324 14.1448C84.6699 13.052 83.399 12.1832 81.9949 11.59C80.5908 10.9968 79.0821 10.6912 77.5578 10.6912C76.0336 10.6912 74.5248 10.9968 73.1207 11.59C71.7166 12.1832 70.4458 13.052 69.3833 14.1448L50.2979 34.0511ZM73.1393 17.7751L54.0589 37.6761C51.3182 40.5196 49.7834 44.3126 49.7754 48.2617V120.699C49.7754 122.337 50.4262 123.909 51.5847 125.067C52.7432 126.226 54.3144 126.877 55.9528 126.877H99.2768C100.915 126.877 102.486 126.226 103.645 125.067C104.803 123.909 105.454 122.337 105.454 120.699V48.2608C105.446 44.312 103.911 40.5193 101.171 37.6761L81.9871 17.7861C81.985 17.7839 81.9829 17.7818 81.9808 17.7796C81.4064 17.1905 80.72 16.722 79.962 16.4018C79.2012 16.0804 78.3837 15.9148 77.5578 15.9148C76.7319 15.9148 75.9144 16.0804 75.1537 16.4018C74.3976 16.7212 73.7128 17.1881 73.1393 17.7751Z" fill="url(#paint2_linear_2977_10665)"/>
<path d="M70.9918 94.5743C70.992 94.5747 70.9921 94.5751 70.9923 94.5755L70.9918 94.5743ZM84.2378 71.7272C84.2371 71.7258 84.2364 71.7245 84.2357 71.7231L84.2378 71.7272Z" fill="url(#paint3_linear_2977_10665)" stroke="url(#paint4_linear_2977_10665)" stroke-width="5.22359"/>
<defs>
<linearGradient id="paint0_linear_2977_10665" x1="88.5762" y1="13.0625" x2="72.7473" y2="3.23963" gradientUnits="userSpaceOnUse">
<stop stop-color="#832FEE"/>
<stop offset="1" stop-color="#EE2FB8"/>
</linearGradient>
<linearGradient id="paint1_linear_2977_10665" x1="0.863281" y1="15.8093" x2="74.5612" y2="25.2624" gradientUnits="userSpaceOnUse">
<stop stop-color="#832FEE"/>
<stop offset="1" stop-color="#EE2FB8"/>
</linearGradient>
<linearGradient id="paint2_linear_2977_10665" x1="44.5518" y1="10.6912" x2="124.854" y2="20.9314" gradientUnits="userSpaceOnUse">
<stop stop-color="#832FEE"/>
<stop offset="1" stop-color="#EE2FB8"/>
</linearGradient>
<linearGradient id="paint3_linear_2977_10665" x1="67.5537" y1="83.1555" x2="87.6737" y2="83.1555" gradientUnits="userSpaceOnUse">
<stop stop-color="#9747FF"/>
<stop offset="1" stop-color="#EE2FB8"/>
</linearGradient>
<linearGradient id="paint4_linear_2977_10665" x1="68.462" y1="81.2797" x2="86.0869" y2="81.8933" gradientUnits="userSpaceOnUse">
<stop stop-color="#A044F7"/>
<stop offset="1" stop-color="#DF33C4"/>
</linearGradient>
</defs>
</svg>
