<svg width="125" height="131" viewBox="0 0 125 131" fill="none" xmlns="http://www.w3.org/2000/svg">
<path fill-rule="evenodd" clip-rule="evenodd" d="M42.844 9.71125C43.4306 8.55681 44.842 8.09649 45.9965 8.6831L101.531 36.9022C102.686 37.4888 103.146 38.9002 102.559 40.0547C101.973 41.2091 100.561 41.6694 99.4069 41.0828L43.8722 12.8637C42.7177 12.2771 42.2574 10.8657 42.844 9.71125ZM26.2911 18.1459C26.8747 16.9899 28.2848 16.5258 29.4408 17.1094L85.3433 45.3285C86.4993 45.912 86.9634 47.3222 86.3799 48.4782C85.7963 49.6342 84.3862 50.0982 83.2302 49.5147L27.3277 21.2956C26.1717 20.7121 25.7076 19.3019 26.2911 18.1459Z" fill="url(#paint0_linear_2977_10657)"/>
<path fill-rule="evenodd" clip-rule="evenodd" d="M57.7319 5.7667C60.3293 4.47799 63.3767 4.46313 65.9866 5.72643L114.385 29.1538C115.047 29.4742 115.659 29.8662 116.215 30.3179L59.1663 56.9821C57.9932 57.5304 57.4867 58.9259 58.035 60.099C58.5833 61.2721 59.9788 61.7786 61.1519 61.2303L119.032 34.1773C119.452 35.2482 119.677 36.4045 119.677 37.5955V94.0674C119.677 97.7473 117.525 101.087 114.174 102.608L65.7728 124.572C63.2819 125.703 60.4217 125.689 57.9416 124.536L10.8871 102.649C7.57933 101.11 5.46389 97.793 5.46388 94.1449L5.46377 37.5161C5.46376 33.9533 7.48249 30.6981 10.6741 29.1146L57.7319 5.7667ZM68.0297 1.50557C64.1149 -0.389386 59.5438 -0.367087 55.6477 1.56597L8.58986 24.9139C3.8025 27.2892 0.774404 32.1719 0.774414 37.5161L0.774525 94.1449C0.774536 99.617 3.94771 104.593 8.90935 106.901L55.9638 128.788C59.6841 130.518 63.9743 130.538 67.7106 128.843L116.112 106.878C121.139 104.597 124.367 99.5872 124.367 94.0674V37.5955C124.367 32.2018 121.283 27.2829 116.428 24.9329L68.0297 1.50557Z" fill="url(#paint1_linear_2977_10657)"/>
<path fill-rule="evenodd" clip-rule="evenodd" d="M2.80349 30.8157C3.35564 29.6444 4.75279 29.1424 5.9241 29.6946L57.6003 54.0547C61.1581 55.7318 63.4283 59.3118 63.4283 63.245V126.704C63.4283 127.999 62.3785 129.048 61.0836 129.048C59.7887 129.048 58.7389 127.999 58.7389 126.704V63.245C58.7389 61.1271 57.5165 59.1995 55.6008 58.2964L3.92457 33.9363C2.75326 33.3841 2.25133 31.987 2.80349 30.8157Z" fill="url(#paint2_linear_2977_10657)"/>
<path fill-rule="evenodd" clip-rule="evenodd" d="M1.79069 59.4649C2.39775 58.3211 3.81712 57.886 4.96094 58.4931L61.1061 88.2916L118.822 61.6864C121.412 60.4929 124.366 62.3842 124.366 65.2353V78.8816C124.366 80.4112 123.474 81.8002 122.082 82.4359L62.7134 109.564C61.6013 110.072 60.3156 110.03 59.2387 109.451L2.75142 79.0803C1.61089 78.4671 1.18342 77.0454 1.79663 75.9049C2.40985 74.7643 3.83154 74.3369 4.97207 74.9501L61.1175 105.137C60.0097 105.648 62.195 105.709 61.1175 105.137L4.97207 74.9501C3.82825 74.343 1.18362 60.6088 1.79069 59.4649Z" fill="url(#paint3_linear_2977_10657)"/>
<defs>
<linearGradient id="paint0_linear_2977_10657" x1="26.0391" y1="8.42822" x2="105.723" y2="43.0776" gradientUnits="userSpaceOnUse">
<stop stop-color="#832FEE"/>
<stop offset="1" stop-color="#EE2FB8"/>
</linearGradient>
<linearGradient id="paint1_linear_2977_10657" x1="0.774414" y1="0.100098" x2="146.103" y2="32.4489" gradientUnits="userSpaceOnUse">
<stop stop-color="#832FEE"/>
<stop offset="1" stop-color="#EE2FB8"/>
</linearGradient>
<linearGradient id="paint2_linear_2977_10657" x1="2.5791" y1="29.4702" x2="76.1686" y2="39.9987" gradientUnits="userSpaceOnUse">
<stop stop-color="#832FEE"/>
<stop offset="1" stop-color="#EE2FB8"/>
</linearGradient>
<linearGradient id="paint3_linear_2977_10657" x1="1.5166" y1="58.219" x2="100.706" y2="73.5887" gradientUnits="userSpaceOnUse">
<stop stop-color="#832FEE"/>
<stop offset="1" stop-color="#EE2FB8"/>
</linearGradient>
</defs>
</svg>
