<svg width="135" height="131" viewBox="0 0 135 131" fill="none" xmlns="http://www.w3.org/2000/svg">
<path d="M98.5765 95.3454C97.0452 93.8141 94.5686 93.7676 92.9386 95.2392C85.9186 101.579 76.8385 105.07 67.3712 105.07C59.121 105.07 51.2795 102.468 44.6945 97.5451C38.7121 93.0729 34.2392 87.0681 31.6807 80.0997L39.125 76.7682C39.7975 76.4674 40.244 75.8141 40.2803 75.0785C40.3168 74.3426 39.9368 73.6487 39.2972 73.2828L10.4174 56.7628C9.87509 56.4528 9.21667 56.4199 8.64594 56.6754C8.07521 56.9306 7.66105 57.4432 7.53109 58.0546L0.606348 90.5971C0.453161 91.3176 0.717259 92.0635 1.29034 92.5267C1.86342 92.9899 2.64789 93.0922 3.3204 92.7911L8.72788 90.3714C13.222 101.625 20.7903 111.271 30.7156 118.367C41.4525 126.043 54.1277 130.1 67.3709 130.1C83.4183 130.1 98.7172 124.077 110.449 113.141C111.252 112.393 111.705 111.372 111.724 110.265C111.744 109.159 111.306 108.076 110.525 107.295L98.5765 95.3454ZM107.78 110.278C96.7753 120.536 82.4245 126.185 67.3712 126.185C54.9489 126.185 43.0609 122.38 32.9923 115.183C23.1413 108.14 15.7651 98.4198 11.6606 87.0725C11.4756 86.561 11.0857 86.1492 10.5849 85.9365C10.0841 85.7241 9.51757 85.7293 9.02069 85.9517L5.23694 87.6448L10.8018 61.4926L34.0106 74.7687L28.4515 77.2565C27.543 77.6631 27.0843 78.6864 27.3854 79.635C30.0679 88.0895 35.2426 95.3671 42.3508 100.681C49.6177 106.113 58.2695 108.985 67.3712 108.985C77.8096 108.985 87.821 105.135 95.5618 98.1451C95.6208 98.0921 95.7346 98.0401 95.8087 98.1137L107.758 110.063C107.805 110.11 107.811 110.167 107.811 110.197C107.81 110.25 107.788 110.27 107.78 110.278Z" fill="url(#paint0_linear_2977_10653)"/>
<path d="M8.21904 50.9144C9.25377 51.2304 27.5439 61.6734 27.8597 60.6397C33.2703 42.9253 38.1369 30.7441 55.6159 24.4172C56.1274 24.2322 56.5389 23.8423 56.7513 23.3415C56.9638 22.8407 56.9583 22.2739 56.7362 21.7773L55.0329 17.9706L37.9953 21.136L59.5112 33.5476L57.0028 27.9423C56.5962 27.0336 56.7719 19.3768 55.823 19.6782C41.3135 24.2918 29.2052 43.5779 26.1545 58.4221C25.9371 59.4809 26.6187 60.5156 27.6777 60.7333C27.8106 60.7604 27.9431 60.7737 28.0739 60.7737C28.9836 60.7737 29.7986 60.1359 29.9891 59.21C32.6382 46.3201 41.8263 35.722 54.1603 31.1728L57.5117 38.6618C57.8126 39.3343 58.4658 39.7808 59.2014 39.8171C59.9358 39.8549 60.6313 39.4736 60.9971 38.834L77.5171 9.95388C77.8274 9.41133 77.86 8.75292 77.6045 8.18244C77.3493 7.61171 76.8367 7.19756 76.2253 7.0676L43.6828 0.14285C42.9623 -0.0100765 42.2167 0.254021 41.7532 0.826843C41.29 1.39966 41.1877 2.18439 41.4889 2.85664L43.9195 8.28813C26.2322 15.3731 12.4827 30.2545 6.91891 48.471C6.60314 49.5047 7.18509 50.5986 8.21904 50.9144Z" fill="url(#paint1_linear_2977_10653)"/>
<path d="M133.451 41.2898C132.878 40.8266 132.094 40.7245 131.421 41.0254L126.04 43.4336C118.949 25.7297 104.025 11.9798 85.7427 6.43039C84.709 6.11697 83.6156 6.70049 83.3014 7.73496C82.9874 8.76917 83.5715 9.86236 84.6059 10.1763C102.384 15.5728 116.778 29.2386 123.109 46.7322C123.294 47.2437 123.684 47.6553 124.184 47.868C124.685 48.0804 125.252 48.0752 125.749 47.8528L129.505 46.1719L123.94 72.3242L100.732 59.048L106.329 56.5433C107.237 56.1367 107.696 55.1126 107.395 54.1638C102.764 39.5971 90.6277 28.6762 75.7203 25.6636C74.661 25.4504 73.6281 26.1349 73.4141 27.1945C73.2001 28.254 73.8854 29.2866 74.945 29.5006C87.8915 32.1171 98.5345 41.3161 103.099 53.7003L95.6174 57.0482C94.9449 57.3491 94.4984 58.0021 94.4621 58.738C94.4256 59.4739 94.8055 60.1678 95.4452 60.5337L124.325 77.0539C124.868 77.3647 125.527 77.3966 126.096 77.1414C126.667 76.8861 127.081 76.3736 127.211 75.7621L134.136 43.2196C134.289 42.4986 134.024 41.753 133.451 41.2898Z" fill="url(#paint2_linear_2977_10653)"/>
<defs>
<linearGradient id="paint0_linear_2977_10653" x1="0.563477" y1="56.5046" x2="122.501" y2="99.6268" gradientUnits="userSpaceOnUse">
<stop stop-color="#832FEE"/>
<stop offset="1" stop-color="#EE2FB8"/>
</linearGradient>
<linearGradient id="paint1_linear_2977_10653" x1="6.83301" y1="0.100098" x2="88.2812" y2="22.3971" gradientUnits="userSpaceOnUse">
<stop stop-color="#832FEE"/>
<stop offset="1" stop-color="#EE2FB8"/>
</linearGradient>
<linearGradient id="paint2_linear_2977_10653" x1="73.375" y1="6.3457" x2="145.512" y2="20.8165" gradientUnits="userSpaceOnUse">
<stop stop-color="#832FEE"/>
<stop offset="1" stop-color="#EE2FB8"/>
</linearGradient>
</defs>
</svg>
