<svg width="112" height="131" viewBox="0 0 112 131" fill="none" xmlns="http://www.w3.org/2000/svg">
<path d="M77.1388 89.5409C76.5863 89.5409 76.0264 89.3273 75.6065 88.9074L65.5068 78.8077C62.5528 75.8536 61.0942 72.5165 61.19 68.8921C61.352 62.1221 66.9655 56.9581 67.2012 56.7445C68.041 55.971 69.3448 55.993 70.1625 56.7886L95.1872 81.0618C96.0417 81.8943 96.0637 83.2645 95.2313 84.1264C94.3989 84.9809 93.0286 85.0031 92.1667 84.1706L68.7334 61.4443C67.4001 63.0797 65.5731 65.8938 65.5068 69.0173C65.4553 71.4409 66.4498 73.6362 68.564 75.7505L78.6637 85.8502C79.5109 86.6974 79.5109 88.0676 78.6637 88.9147C78.2438 89.3273 77.6913 89.5409 77.1314 89.5409H77.1388Z" fill="url(#paint0_linear_2977_10712)"/>
<path d="M78.9662 107.361C78.3695 107.361 77.7801 107.118 77.3528 106.639C74.4725 103.442 72.8887 99.3239 72.8887 95.0291C72.8887 91.9866 73.6916 88.9958 75.2018 86.3806C75.7985 85.3419 77.1245 84.9882 78.1632 85.5923C79.2019 86.1964 79.5555 87.515 78.9514 88.5537C77.817 90.5059 77.2203 92.7454 77.2203 95.0291C77.2203 98.2483 78.4063 101.342 80.5721 103.736C81.375 104.628 81.3014 105.991 80.41 106.794C80.0048 107.169 79.4818 107.354 78.9662 107.354V107.361Z" fill="url(#paint1_linear_2977_10712)"/>
<path d="M108.853 130.279C107.66 130.279 106.688 129.306 106.688 128.113V80.1778C106.688 78.3435 105.56 75.5736 104.271 74.2697L77.4344 47.3077C76.5873 46.4605 76.5946 45.0903 77.4418 44.2431C78.289 43.3959 79.6592 43.4033 80.5064 44.2505L107.351 71.2199C109.443 73.3489 111.019 77.1943 111.019 80.1705V128.106C111.019 129.299 110.047 130.271 108.853 130.271V130.279Z" fill="url(#paint2_linear_2977_10712)"/>
<path d="M67.6872 104.282H30.8539C24.8795 104.282 20.0176 99.4196 20.0176 93.4452V89.1136C20.0176 87.9202 20.9899 86.9478 22.1833 86.9478C23.3767 86.9478 24.3492 87.9202 24.3492 89.1136V93.4452C24.3492 97.0254 27.2663 99.9426 30.8465 99.9426H67.6799C68.8733 99.9426 69.8457 100.915 69.8457 102.108C69.8457 103.302 68.8733 104.274 67.6799 104.274L67.6872 104.282Z" fill="url(#paint3_linear_2977_10712)"/>
<path d="M78.5167 60.9508C77.3233 60.9508 76.3509 59.9784 76.3509 58.785V11.1151C76.3509 7.53491 73.4337 4.61774 69.8535 4.61774H30.8544C27.2742 4.61774 24.357 7.53491 24.357 11.1151V15.4467C24.357 16.6401 23.3845 17.6125 22.1911 17.6125C20.9977 17.6125 20.0254 16.6401 20.0254 15.4467V11.1151C20.0254 5.14074 24.8874 0.278748 30.8617 0.278748H69.8609C75.8353 0.278748 80.6972 5.14074 80.6972 11.1151V58.785C80.6972 59.9784 79.7249 60.9508 78.5315 60.9508H78.5167Z" fill="url(#paint4_linear_2977_10712)"/>
<path d="M69.854 130.279C68.6606 130.279 67.6882 129.306 67.6882 128.113V114.308C65.6992 113.276 63.8649 111.928 62.2074 110.286C61.3602 109.446 61.3528 108.068 62.1926 107.221C63.0398 106.374 64.41 106.374 65.2572 107.206C66.8852 108.82 68.7268 110.079 70.7232 110.949C71.5114 111.295 72.0198 112.076 72.0198 112.93V128.098C72.0198 129.299 71.0474 130.271 69.854 130.271V130.279Z" fill="url(#paint5_linear_2977_10712)"/>
<path d="M52.5198 95.611H48.1882C46.9948 95.611 46.0225 94.6387 46.0225 93.4453C46.0225 92.2519 46.9948 91.2794 48.1882 91.2794H52.5198C53.7132 91.2794 54.6857 92.2519 54.6857 93.4453C54.6857 94.6387 53.7132 95.611 52.5198 95.611Z" fill="url(#paint6_linear_2977_10712)"/>
<path d="M56.8515 13.281H43.8494C42.656 13.281 41.6836 12.3085 41.6836 11.1151C41.6836 9.9217 42.656 8.94934 43.8494 8.94934H56.8515C58.0449 8.94934 59.0173 9.9217 59.0173 11.1151C59.0173 12.3085 58.0449 13.281 56.8515 13.281Z" fill="url(#paint7_linear_2977_10712)"/>
<path d="M22.1839 82.6163C21.5651 82.6163 20.9831 82.3584 20.5706 81.8943C19.7529 80.9882 0.518555 59.4185 0.518555 42.8656C0.518555 31.3293 10.2351 21.9442 22.1839 21.9442C34.1326 21.9442 43.8492 31.3293 43.8492 42.8656C43.8492 59.4185 24.6149 80.9808 23.7972 81.8943C23.3847 82.351 22.8027 82.6163 22.1839 82.6163Z" fill="url(#paint8_linear_2977_10712)"/>
<path d="M22.1251 52.2655C17.2514 52.2655 13.2852 48.2992 13.2852 43.4254C13.2852 38.5517 17.2514 34.5854 22.1251 34.5854C26.9988 34.5854 30.9652 38.5517 30.9652 43.4254C30.9652 48.2992 26.9988 52.2655 22.1251 52.2655Z" fill="white"/>
<defs>
<linearGradient id="paint0_linear_2977_10712" x1="61.1826" y1="72.8554" x2="95.8501" y2="72.8554" gradientUnits="userSpaceOnUse">
<stop stop-color="#9747FF"/>
<stop offset="1" stop-color="#EE2FB8"/>
</linearGradient>
<linearGradient id="paint1_linear_2977_10712" x1="72.896" y1="96.333" x2="81.1319" y2="96.333" gradientUnits="userSpaceOnUse">
<stop stop-color="#9747FF"/>
<stop offset="1" stop-color="#EE2FB8"/>
</linearGradient>
<linearGradient id="paint2_linear_2977_10712" x1="76.8009" y1="86.9478" x2="111.019" y2="86.9478" gradientUnits="userSpaceOnUse">
<stop stop-color="#9747FF"/>
<stop offset="1" stop-color="#EE2FB8"/>
</linearGradient>
<linearGradient id="paint3_linear_2977_10712" x1="20.0176" y1="95.611" x2="69.8531" y2="95.611" gradientUnits="userSpaceOnUse">
<stop stop-color="#9747FF"/>
<stop offset="1" stop-color="#EE2FB8"/>
</linearGradient>
<linearGradient id="paint4_linear_2977_10712" x1="20.018" y1="30.6148" x2="80.6825" y2="30.6148" gradientUnits="userSpaceOnUse">
<stop stop-color="#9747FF"/>
<stop offset="1" stop-color="#EE2FB8"/>
</linearGradient>
<linearGradient id="paint5_linear_2977_10712" x1="61.5665" y1="118.433" x2="72.0198" y2="118.433" gradientUnits="userSpaceOnUse">
<stop stop-color="#9747FF"/>
<stop offset="1" stop-color="#EE2FB8"/>
</linearGradient>
<linearGradient id="paint6_linear_2977_10712" x1="46.0151" y1="93.4452" x2="54.6857" y2="93.4452" gradientUnits="userSpaceOnUse">
<stop stop-color="#9747FF"/>
<stop offset="1" stop-color="#EE2FB8"/>
</linearGradient>
<linearGradient id="paint7_linear_2977_10712" x1="41.6836" y1="11.1152" x2="59.0173" y2="11.1152" gradientUnits="userSpaceOnUse">
<stop stop-color="#9747FF"/>
<stop offset="1" stop-color="#EE2FB8"/>
</linearGradient>
<linearGradient id="paint8_linear_2977_10712" x1="0.518555" y1="52.2802" x2="43.8492" y2="52.2802" gradientUnits="userSpaceOnUse">
<stop stop-color="#9747FF"/>
<stop offset="1" stop-color="#EE2FB8"/>
</linearGradient>
</defs>
</svg>
