<svg width="121" height="131" viewBox="0 0 121 131" fill="none" xmlns="http://www.w3.org/2000/svg">
<ellipse cx="58.0209" cy="29.9009" rx="26.267" ry="26.2669" fill="url(#paint0_linear_2977_10638)"/>
<path fill-rule="evenodd" clip-rule="evenodd" d="M57.8937 5.95539C44.762 5.95539 34.1163 16.601 34.1163 29.733C34.1163 42.865 44.762 53.5105 57.8937 53.5105C71.0262 53.5105 81.6715 42.865 81.6715 29.733C81.6715 16.601 71.0262 5.95539 57.8937 5.95539ZM28.1719 29.733C28.1719 13.318 41.479 0.0109863 57.8937 0.0109863C74.3093 0.0109863 87.6159 13.318 87.6159 29.733C87.6159 46.148 74.3093 59.4549 57.8937 59.4549C41.479 59.4549 28.1719 46.148 28.1719 29.733Z" fill="url(#paint1_linear_2977_10638)"/>
<path fill-rule="evenodd" clip-rule="evenodd" d="M54.7178 78.1933C54.8039 79.8328 53.5449 81.2315 51.906 81.3183C36.8407 82.1119 21.9083 86.1535 8.18944 93.4437C7.39805 93.864 6.90342 94.6873 6.90342 95.5831V117.41C6.90342 119.052 8.23408 120.383 9.87563 120.383H51.7497C53.391 120.383 54.7219 121.713 54.7219 123.355C54.7219 124.997 53.391 126.327 51.7497 126.327H9.87563C4.95109 126.327 0.958984 122.335 0.958984 117.41V95.5831C0.958984 92.4884 2.66712 89.6464 5.39995 88.1942C19.8956 80.4914 35.6748 76.2204 51.5934 75.3816C53.2322 75.2954 54.631 76.5544 54.7178 78.1933Z" fill="url(#paint2_linear_2977_10638)"/>
<path fill-rule="evenodd" clip-rule="evenodd" d="M83.7877 66.5289C86.4062 63.562 90.2469 61.6836 94.5227 61.6836H105.865C113.771 61.6836 120.18 68.0929 120.18 75.9983V115.696C120.18 123.602 113.771 130.011 105.865 130.011H94.5227C90.2469 130.011 86.4062 128.133 83.7877 125.166C82.7016 123.935 82.8187 122.057 84.0492 120.971C85.2797 119.884 87.1582 120.001 88.2442 121.232C89.7826 122.975 92.0231 124.067 94.5227 124.067H105.865C110.488 124.067 114.236 120.319 114.236 115.696V75.9983C114.236 71.3754 110.488 67.628 105.865 67.628H94.5227C92.0231 67.628 89.7826 68.72 88.2442 70.4629C87.1582 71.6934 85.2797 71.8105 84.0492 70.7244C82.8187 69.6378 82.7016 67.76 83.7877 66.5289Z" fill="url(#paint3_linear_2977_10638)"/>
<path fill-rule="evenodd" clip-rule="evenodd" d="M94.7969 93.7445C95.9578 94.9055 95.9578 96.7875 94.7969 97.9484L82.908 109.837C81.7471 110.998 79.8656 110.998 78.7047 109.837C77.5437 108.676 77.5437 106.794 78.7047 105.633L90.5936 93.7445C91.7545 92.5842 93.6359 92.5842 94.7969 93.7445Z" fill="url(#paint4_linear_2977_10638)"/>
<path fill-rule="evenodd" clip-rule="evenodd" d="M94.7969 97.9493C95.9578 96.7883 95.9578 94.9063 94.7969 93.7454L82.908 81.8566C81.7471 80.6962 79.8656 80.6962 78.7047 81.8566C77.5437 83.0175 77.5437 84.8995 78.7047 86.0605L90.5936 97.9493C91.7545 99.1096 93.6359 99.1096 94.7969 97.9493Z" fill="url(#paint5_linear_2977_10638)"/>
<path fill-rule="evenodd" clip-rule="evenodd" d="M57.0293 95.8465C57.0293 94.2052 58.3597 92.8743 60.0015 92.8743H89.7237C91.3649 92.8743 92.6959 94.2052 92.6959 95.8465C92.6959 97.4877 91.3649 98.8187 89.7237 98.8187H60.0015C58.3597 98.8187 57.0293 97.4877 57.0293 95.8465Z" fill="url(#paint6_linear_2977_10638)"/>
<defs>
<linearGradient id="paint0_linear_2977_10638" x1="31.7539" y1="3.63403" x2="93.2184" y2="18.0248" gradientUnits="userSpaceOnUse">
<stop stop-color="#832FEE"/>
<stop offset="1" stop-color="#EE2FB8"/>
</linearGradient>
<linearGradient id="paint1_linear_2977_10638" x1="28.1719" y1="0.0109863" x2="97.7211" y2="16.2947" gradientUnits="userSpaceOnUse">
<stop stop-color="#832FEE"/>
<stop offset="1" stop-color="#EE2FB8"/>
</linearGradient>
<linearGradient id="paint2_linear_2977_10638" x1="0.958984" y1="75.3774" x2="63.4925" y2="90.827" gradientUnits="userSpaceOnUse">
<stop stop-color="#832FEE"/>
<stop offset="1" stop-color="#EE2FB8"/>
</linearGradient>
<linearGradient id="paint3_linear_2977_10638" x1="83.0439" y1="61.6836" x2="128.144" y2="67.4227" gradientUnits="userSpaceOnUse">
<stop stop-color="#832FEE"/>
<stop offset="1" stop-color="#EE2FB8"/>
</linearGradient>
<linearGradient id="paint4_linear_2977_10638" x1="77.834" y1="92.8743" x2="98.6992" y2="97.7596" gradientUnits="userSpaceOnUse">
<stop stop-color="#832FEE"/>
<stop offset="1" stop-color="#EE2FB8"/>
</linearGradient>
<linearGradient id="paint5_linear_2977_10638" x1="77.834" y1="80.9863" x2="98.6992" y2="85.8716" gradientUnits="userSpaceOnUse">
<stop stop-color="#832FEE"/>
<stop offset="1" stop-color="#EE2FB8"/>
</linearGradient>
<linearGradient id="paint6_linear_2977_10638" x1="57.0293" y1="92.8743" x2="71.8328" y2="113.67" gradientUnits="userSpaceOnUse">
<stop stop-color="#832FEE"/>
<stop offset="1" stop-color="#EE2FB8"/>
</linearGradient>
</defs>
</svg>
