<svg width="112" height="134" viewBox="0 0 112 134" fill="none" xmlns="http://www.w3.org/2000/svg">
<path d="M96.7653 64.4389V16.8396C96.7653 9.39946 90.7339 3.36807 83.2938 3.36807H16.8348C9.39466 3.36807 3.36328 9.39946 3.36328 16.8396V110.242C3.36328 117.682 9.39467 123.714 16.8348 123.714H58.642" stroke="url(#paint0_linear_2977_10733)" stroke-width="5.38859" stroke-linecap="round" stroke-linejoin="round"/>
<path d="M50.5136 54.1859C46.2347 54.1859 42.75 50.7075 42.75 46.4362C42.75 42.1649 46.2347 38.6864 50.5136 38.6864C53.43 38.6864 56.0739 40.2954 57.4133 42.8767C58.0801 44.1674 59.6687 44.6651 60.9617 43.9995C62.2546 43.3339 62.7591 41.7481 62.0865 40.4574C60.2485 36.9154 56.9552 34.473 53.1459 33.6916V28.4479C53.1459 26.9952 51.9689 25.8204 50.5136 25.8204C49.0583 25.8204 47.8813 26.9952 47.8813 28.4479V33.6916C41.9557 34.9071 37.4912 40.1565 37.4912 46.4246C37.4912 53.5956 43.3356 59.4238 50.5136 59.4238C54.7926 59.4238 58.2772 62.9022 58.2772 67.1735C58.2772 71.4448 54.7926 74.9232 50.5136 74.9232C47.5972 74.9232 44.9533 73.3143 43.614 70.733C42.9472 69.4423 41.3585 68.9387 40.0655 69.6101C38.7726 70.2757 38.2681 71.8615 38.9407 73.1522C40.7787 76.6942 44.072 79.1367 47.8813 79.918V85.1617C47.8813 86.6144 49.0583 87.7893 50.5136 87.7893C51.9689 87.7893 53.1459 86.6144 53.1459 85.1617V79.918C59.0715 78.7026 63.536 73.4532 63.536 67.1851C63.536 60.0141 57.6916 54.1859 50.5136 54.1859Z" fill="url(#paint1_linear_2977_10733)"/>
<path fill-rule="evenodd" clip-rule="evenodd" d="M82.561 67.255C82.2124 67.255 81.8686 67.3362 81.5568 67.492L79.0322 68.7544C78.5395 69.0007 78.1545 69.4196 77.9506 69.9313L76.7965 72.8272C76.6911 73.0916 76.6369 73.3737 76.6369 73.6584V107.574L73.7366 100.953C73.7171 100.909 73.6963 100.865 73.674 100.822C72.4894 98.5333 70.1537 97.1828 67.7214 97.1828C66.7651 97.1828 65.8326 97.378 64.9215 97.7956L64.9075 97.802C62.7157 98.8249 61.6352 101.361 62.4686 103.665L62.4689 103.666L67.6024 117.841C67.6078 117.855 67.6134 117.87 67.6191 117.885C68.6157 120.465 70.199 122.751 72.2467 124.593L72.2576 124.603L77.1507 128.95C77.2292 129.034 77.3184 129.116 77.4196 129.194C80.0333 131.543 83.3888 133.368 87.2847 133.368H97.6538C104.364 133.368 110.128 128.521 111.258 121.897L111.258 121.895C111.538 120.238 111.775 118.537 111.775 117.306V117.284V117.262V117.24V117.218V117.195V117.173V117.15V117.127V117.103V117.08V117.056V117.032V117.008V116.983V116.959V116.934V116.909V116.884V116.858V116.833V116.807V116.781V116.755V116.729V116.702V116.675V116.648V116.621V116.594V116.566V116.539V116.511V116.483V116.454V116.426V116.397V116.369V116.34V116.31V116.281V116.252V116.222V116.192V116.162V116.132V116.102V116.071V116.04V116.009V115.978V115.947V115.916V115.884V115.853V115.821V115.789V115.756V115.724V115.692V115.659V115.626V115.593V115.56V115.527V115.493V115.46V115.426V115.392V115.358V115.324V115.29V115.255V115.22V115.186V115.151V115.116V115.081V115.045V115.01V114.974V114.938V114.903V114.867V114.831V114.794V114.758V114.721V114.685V114.648V114.611V114.574V114.537V114.5V114.462V114.425V114.387V114.349V114.311V114.273V114.235V114.197V114.159V114.12V114.082V114.043V114.004V113.965V113.926V113.887V113.848V113.808V113.769V113.729V113.69V113.65V113.61V113.57V113.53V113.49V113.45V113.409V113.369V113.328V113.288V113.247V113.206V113.165V113.124V113.083V113.042V113.001V112.96V112.918V112.877V112.835V112.794V112.752V112.71V112.668V112.626V112.584V112.542V112.5V112.458V112.415V112.373V112.33V112.288V112.245V112.203V112.16V112.117V112.074V112.031V111.988V111.945V111.902V111.859V111.816V111.773V111.729V111.686V111.642V111.599V111.555V111.512V111.468V111.424V111.381V111.337V111.293V111.249V111.205V111.161V111.117V111.073V111.029V110.985V110.941V110.897V110.853V110.808V110.764V110.72V110.675V110.631V110.587V110.542V110.498V110.453V110.409V110.364V110.32V110.275V110.231V110.186V110.141V110.097V110.052V110.007V109.963V109.918V109.873V109.828V109.784V109.739V109.694V109.649V109.605V109.56V109.515V109.47V109.425V109.381V109.336V109.291V109.246V109.201V109.157V109.112V109.067V109.022V108.978V108.933V108.888V108.843V108.799V108.754V108.709V108.665V108.62V108.575V108.531V108.486V108.441V108.397V108.352V108.308V108.263V108.219V108.174V108.13V108.086V108.041V107.997V107.952V107.908V107.864V107.82V107.776V107.731V107.687V107.643V107.599V107.555V107.511V107.467V107.424V107.38V107.336V107.292V107.249V107.205V107.161V107.118V107.074V107.031V106.988V106.944V106.901V106.858V106.815V106.772V106.729V106.686V106.643V106.6V106.557V106.514V106.472V106.429V106.387V106.344V106.302V106.259V106.217V106.175V106.133V106.091V106.049V106.007V105.965V105.924V105.882V105.84V105.799V105.758V105.716V105.675V105.634V105.593V105.552V105.511V105.47V105.43V105.389V105.348V105.308V105.268V105.227V105.187V105.147V105.107V105.068V105.028V104.988V104.949V104.909V104.87V104.831V104.792V104.753V104.714V104.675V104.636V104.598V104.559V104.521V104.483V104.445V104.407V104.369V104.331V104.294V104.256V104.219V104.181V104.144V104.107V104.07V104.034V103.997V103.96V103.924V103.888V103.852V103.816V103.78V103.744V103.709V103.673V103.638V103.603V103.568V103.533V103.498V103.464V103.429V103.395V103.361V103.327V103.293V103.259V103.226V103.192V103.159V103.126V103.093V103.06V103.028V102.995V102.963V102.931V102.899V102.867V102.835V102.804V102.772V102.741V102.71V102.679V102.649V102.618V102.588V102.558V102.528V102.498V102.468V102.439V102.409V102.38V102.351V102.323V102.294V102.266V102.237V102.209V102.182V102.154V102.126V102.099V102.072V102.045V102.018V101.992V101.966V101.939V101.914V101.888V101.862V101.837V101.812V101.787V101.762V101.738V101.713V101.689V101.665V101.641V101.618V101.595V101.571V101.549V101.526V101.503V101.481V101.459V101.437V101.416V101.394V101.373V101.352V101.331V101.311V101.291V101.271V101.251V101.231V101.212V101.193V101.174V101.155V101.136V101.118V101.1V101.082V101.065V101.047V101.03V101.014V100.997V100.981V100.964V100.949V100.933V100.918V100.902V100.888V100.873V100.858V100.844V100.83V100.817V100.803V100.79V100.777V100.765V100.752V100.74V100.728V100.717V100.705V100.694V100.683V100.673V100.662V100.652V100.643V100.633V100.624V100.615V100.606V100.598V100.589V100.582V100.574V100.567V100.56V100.553V100.546V100.54V100.534V100.528V100.523V100.518V100.513V100.508V100.504V100.5V100.497V100.493V100.49V100.487V100.485V100.482V100.481V100.479V100.478V100.476V100.476V100.475C111.775 100.475 111.775 100.475 109.609 100.475H111.775C111.775 97.1153 109.059 94.3989 105.699 94.3989C104.848 94.3989 104.039 94.573 103.305 94.8875C102.256 93.0679 100.291 91.845 98.0369 91.845C96.9194 91.845 95.8732 92.1454 94.9743 92.6701C93.8608 91.3821 92.2143 90.568 90.375 90.568C89.8263 90.568 89.2947 90.6404 88.7893 90.7763V73.6584C88.7893 71.9521 88.0509 70.3781 86.9805 69.2436C85.9085 68.1073 84.3503 67.255 82.561 67.255Z" fill="url(#paint2_linear_2977_10733)"/>
<defs>
<linearGradient id="paint0_linear_2977_10733" x1="3.36328" y1="3.36807" x2="114.949" y2="23.6447" gradientUnits="userSpaceOnUse">
<stop stop-color="#832FEE"/>
<stop offset="1" stop-color="#EE2FB8"/>
</linearGradient>
<linearGradient id="paint1_linear_2977_10733" x1="37.4912" y1="56.8135" x2="63.536" y2="56.8135" gradientUnits="userSpaceOnUse">
<stop stop-color="#9747FF"/>
<stop offset="1" stop-color="#EE2FB8"/>
</linearGradient>
<linearGradient id="paint2_linear_2977_10733" x1="-0.521306" y1="100.19" x2="74.1036" y2="61.2237" gradientUnits="userSpaceOnUse">
<stop stop-color="#832FEE"/>
<stop offset="1" stop-color="#EE2FB8"/>
</linearGradient>
</defs>
</svg>
