<svg width="94" height="133" viewBox="0 0 94 133" fill="none" xmlns="http://www.w3.org/2000/svg">
<path d="M89.4287 96.5687L90.8485 120.041C90.8485 125.646 86.305 130.189 80.7003 130.189H12.8387C7.23397 130.189 2.69043 125.646 2.69043 120.041L7.77202 36.3296C7.77202 30.7249 12.3156 26.1813 17.9203 26.1813H75.6262C81.2309 26.1813 85.7744 30.7249 85.7744 36.3296L89.4287 96.5687Z" stroke="url(#paint0_linear_2977_10689)" stroke-width="5.32622" stroke-miterlimit="10" stroke-linecap="round"/>
<path d="M27.6455 18.5372C29.471 14.9064 32.3894 11.7857 36.2479 9.73063C46.1415 4.46119 58.4336 8.20978 63.703 18.1034" stroke="url(#paint1_linear_2977_10689)" stroke-width="5.32622" stroke-miterlimit="10" stroke-linecap="round"/>
<path fill-rule="evenodd" clip-rule="evenodd" d="M29.9778 63.7089C32.3332 61.4638 35.4959 60.3182 38.8126 60.3182C41.8336 60.3182 44.5993 61.3847 46.7645 63.1495C48.9318 61.3769 51.7071 60.3182 54.7203 60.3182C61.159 60.3182 66.5274 65.0239 67.2143 71.4931L67.2975 71.5764V72.9136C67.2975 74.2697 66.8431 75.5664 66.3431 76.6306C65.8214 77.7409 65.1166 78.8739 64.341 79.9708C62.7888 82.166 60.7616 84.4832 58.7777 86.5761C54.8728 90.6955 50.7616 94.3323 50.0483 94.8704C49.2593 95.4641 48.1836 96.0223 46.8629 96.0474C45.4947 96.0734 44.3707 95.5197 43.537 94.8434C43.0545 94.4521 38.9282 90.9664 34.8945 86.8094C32.8811 84.7343 30.8152 82.4152 29.2312 80.1786C28.4389 79.0599 27.7202 77.8964 27.1894 76.7425C26.6743 75.6227 26.2354 74.2976 26.2354 72.9136C26.2354 69.186 27.5981 65.9771 29.9778 63.7089Z" fill="url(#paint2_linear_2977_10689)"/>
<defs>
<linearGradient id="paint0_linear_2977_10689" x1="0.0749057" y1="78.1853" x2="93.4641" y2="78.1853" gradientUnits="userSpaceOnUse">
<stop stop-color="#9747FF"/>
<stop offset="1" stop-color="#EE2FB8"/>
</linearGradient>
<linearGradient id="paint1_linear_2977_10689" x1="28.3511" y1="25.4259" x2="61.2375" y2="7.9103" gradientUnits="userSpaceOnUse">
<stop stop-color="#9747FF"/>
<stop offset="1" stop-color="#EE2FB8"/>
</linearGradient>
<linearGradient id="paint2_linear_2977_10689" x1="26.3021" y1="78.186" x2="67.2399" y2="78.186" gradientUnits="userSpaceOnUse">
<stop stop-color="#9747FF"/>
<stop offset="1" stop-color="#EE2FB8"/>
</linearGradient>
</defs>
</svg>
