<svg width="125" height="131" viewBox="0 0 125 131" fill="none" xmlns="http://www.w3.org/2000/svg">
<path d="M18.0646 129.382C20.3053 129.261 22.4054 128.265 23.9095 126.598L56.8279 90.0313C57.6033 89.1583 57.5311 87.8223 56.666 87.038L40.8627 72.8403C39.9892 72.0565 38.6528 72.1203 37.8605 72.9942C37.8605 72.9942 37.8605 72.9942 37.8525 73.0031L12.0168 101.596C11.2414 102.469 3.32593 115.001 4.19094 115.785C5.06439 116.569 13.5601 125.974 14.3524 125.1C14.3524 125.1 21.1267 126.83 22.6381 121.753L33.571 109.592L52.2487 88.7779L20.7599 123.868C19.1922 125.615 16.5118 125.76 14.7649 124.192L8.43681 118.514C6.68989 116.946 6.54491 114.265 8.11255 112.519L15.1804 104.436C15.9642 103.563 15.9004 102.226 15.0265 101.434C15.0265 101.434 15.0265 101.434 15.0176 101.426C14.1446 100.651 12.8086 100.723 12.0244 101.588L4.84199 109.592C1.70625 113.077 1.99711 118.455 5.49095 121.59L11.8191 127.269C13.5294 128.788 15.7759 129.556 18.057 129.399L18.0646 129.382Z" fill="url(#paint0_linear_2977_10681)"/>
<path d="M75.16 71.3199C76.7966 71.3199 78.1238 70.1165 78.1238 68.6327V28.2803C78.1238 26.7964 76.7966 25.5931 75.16 25.5931C73.5235 25.5931 72.1963 26.7964 72.1963 28.2803V68.6327C72.1963 70.1165 73.5235 71.3199 75.16 71.3199Z" fill="url(#paint1_linear_2977_10681)"/>
<path d="M54.6099 50.9969H95.7094C97.2207 50.9969 98.4463 49.8592 98.4463 48.4565C98.4463 47.0537 97.2207 45.9161 95.7094 45.9161H54.6099C53.0987 45.9161 51.873 47.0537 51.873 48.4565C51.873 49.8592 53.0987 50.9969 54.6099 50.9969Z" fill="url(#paint2_linear_2977_10681)"/>
<path d="M76.8528 95.8768C50.4296 95.8768 29.0094 74.4565 29.0094 48.0331C29.0094 21.6098 50.4296 0.18945 76.8528 0.189451C103.276 0.189452 124.696 21.6098 124.696 48.0331C124.696 74.4565 103.276 95.8768 76.8528 95.8768ZM76.8528 5.30072C53.2525 5.30072 34.1206 24.4327 34.1206 48.0331C34.1206 71.6336 53.2525 90.7656 76.8528 90.7656C100.453 90.7656 119.585 71.6336 119.585 48.0331C119.585 24.4327 100.453 5.30072 76.8528 5.30072Z" fill="url(#paint3_linear_2977_10681)"/>
<defs>
<linearGradient id="paint0_linear_2977_10681" x1="1.96207" y1="102.285" x2="57.946" y2="99.2567" gradientUnits="userSpaceOnUse">
<stop stop-color="#9747FF"/>
<stop offset="1" stop-color="#EE2FB8"/>
</linearGradient>
<linearGradient id="paint1_linear_2977_10681" x1="72.1963" y1="48.4565" x2="78.1238" y2="48.4565" gradientUnits="userSpaceOnUse">
<stop stop-color="#9747FF"/>
<stop offset="1" stop-color="#EE2FB8"/>
</linearGradient>
<linearGradient id="paint2_linear_2977_10681" x1="51.873" y1="48.4565" x2="98.4463" y2="48.4565" gradientUnits="userSpaceOnUse">
<stop stop-color="#9747FF"/>
<stop offset="1" stop-color="#EE2FB8"/>
</linearGradient>
<linearGradient id="paint3_linear_2977_10681" x1="124.696" y1="0.189453" x2="98.4843" y2="112.143" gradientUnits="userSpaceOnUse">
<stop stop-color="#832FEE"/>
<stop offset="1" stop-color="#EE2FB8"/>
</linearGradient>
</defs>
</svg>
