<svg width="46" height="46" viewBox="0 0 46 46" fill="none" xmlns="http://www.w3.org/2000/svg">
<path d="M3.56732 18.6571H9.5121C11.3195 12.6373 16.9079 8.23716 23.5067 8.22988L25.5522 5.29496L23.5067 2.46667C13.6926 2.47431 5.50193 9.416 3.56732 18.6571Z" fill="#EE2FB8" fill-opacity="0.2"/>
<path d="M45.9999 20.8111L45.9859 6.36874H40.2226V11.1595C36.5353 5.90326 30.4313 2.46655 23.5229 2.46655C23.5175 2.46655 23.5121 2.46673 23.5066 2.46673V8.23003C23.5121 8.23003 23.5175 8.22985 23.5229 8.22985C28.7187 8.22985 33.2892 10.9536 35.8839 15.0479H31.5435V20.8112L45.9859 20.8252V20.8112L45.9999 20.8111Z" fill="url(#paint0_linear_3055_133831)"/>
<path d="M22.4664 37.7702C17.2707 37.7702 12.7001 35.0465 10.1054 30.9521H14.4459V25.1853H0V39.6312H5.7668V34.8405C9.45408 40.0967 15.5581 43.5334 22.4664 43.5334C22.4727 43.5334 22.479 43.5332 22.4853 43.5332L25.1752 40.6826L22.4853 37.7699C22.479 37.77 22.4727 37.7702 22.4664 37.7702Z" fill="url(#paint1_linear_3055_133831)"/>
<path d="M42.4222 27.3428H36.4774C34.6703 33.3619 29.0831 37.7616 22.4853 37.7699V43.5332C32.2983 43.5244 40.4876 36.5831 42.4222 27.3428Z" fill="#EE2FB8" fill-opacity="0.2"/>
<defs>
<linearGradient id="paint0_linear_3055_133831" x1="23.5066" y1="2.46655" x2="41.9859" y2="3.94294" gradientUnits="userSpaceOnUse">
<stop stop-color="#832FEE"/>
<stop offset="1" stop-color="#EE2FB8"/>
</linearGradient>
<linearGradient id="paint1_linear_3055_133831" x1="0" y1="25.1853" x2="20.6493" y2="27.0328" gradientUnits="userSpaceOnUse">
<stop stop-color="#832FEE"/>
<stop offset="1" stop-color="#EE2FB8"/>
</linearGradient>
</defs>
</svg>
