<svg width="37" height="37" viewBox="0 0 37 37" fill="none" xmlns="http://www.w3.org/2000/svg">
<circle cx="18.4724" cy="18.3026" r="17.2917" stroke="url(#paint0_linear_3309_2831)" stroke-width="1.58682"/>
<path d="M24.4812 13.2854C24.4812 12.7377 24.0372 12.2937 23.4894 12.2937L14.5636 12.2937C14.0159 12.2937 13.5718 12.7377 13.5718 13.2854C13.5718 13.8332 14.0159 14.2772 14.5636 14.2772L22.4977 14.2772L22.4977 22.2113C22.4977 22.759 22.9417 23.203 23.4894 23.203C24.0372 23.203 24.4812 22.759 24.4812 22.2113L24.4812 13.2854ZM14.1568 24.0206L24.1907 13.9867L22.7881 12.5841L12.7542 22.6181L14.1568 24.0206Z" fill="url(#paint1_linear_3309_2831)"/>
<defs>
<linearGradient id="paint0_linear_3309_2831" x1="0.387329" y1="0.217529" x2="42.7062" y2="10.1257" gradientUnits="userSpaceOnUse">
<stop stop-color="#832FEE"/>
<stop offset="1" stop-color="#EE2FB8"/>
</linearGradient>
<linearGradient id="paint1_linear_3309_2831" x1="13.4555" y1="23.3193" x2="17.9018" y2="25.7083" gradientUnits="userSpaceOnUse">
<stop stop-color="#832FEE"/>
<stop offset="1" stop-color="#EE2FB8"/>
</linearGradient>
</defs>
</svg>
