<svg width="45" height="46" viewBox="0 0 45 46" fill="none" xmlns="http://www.w3.org/2000/svg">
<path fill-rule="evenodd" clip-rule="evenodd" d="M26.8936 43.1778L26.88 34.1736C26.8775 32.4837 27.1006 30.8957 28.3558 29.7645C29.755 28.5033 32.2986 26.5931 34.2567 24.278C35.1215 23.4983 36.4273 23.4549 37.2504 24.2781C38.0738 25.1014 38.1008 26.2145 37.2507 27.272L37.9168 26.4522C38.6801 25.5126 39.0872 24.4801 39.0827 23.2694L39.0497 14.6007C39.0242 7.86239 43.97 9.73033 44.0342 12.003L44.4864 27.9609C44.5278 29.4285 43.9994 30.7031 42.961 31.7413L35.743 38.9593V43.1757C35.743 43.9864 35.0818 44.6477 34.271 44.6477H28.3655C27.5556 44.6477 26.8948 43.9878 26.8936 43.1778Z" fill="#EE2FB8" fill-opacity="0.2"/>
<path fill-rule="evenodd" clip-rule="evenodd" d="M37.5656 24.6653C38.0621 25.4327 37.9739 26.3724 37.2507 27.2721C36.0733 28.4572 34.8873 29.6355 33.706 30.8168C33.3895 31.1333 32.8765 31.1333 32.5601 30.8168C32.2436 30.5004 32.2436 29.9874 32.5601 29.6709L37.5656 24.6653Z" fill="url(#paint0_linear_3055_133848)"/>
<path fill-rule="evenodd" clip-rule="evenodd" d="M25.4014 41.2716L37.946 41.3794C38.5526 41.3846 39.0446 41.8852 39.0394 42.4917L39.0187 44.9066C39.0135 45.5131 38.5129 46.0052 37.9064 46L25.3617 45.8922C24.7552 45.887 24.2631 45.3864 24.2684 44.7799L24.2891 42.365C24.2943 41.7585 24.7949 41.2664 25.4014 41.2716Z" fill="url(#paint1_linear_3055_133848)"/>
<path fill-rule="evenodd" clip-rule="evenodd" d="M18.1067 43.1778L18.1202 34.1736C18.1228 32.4837 17.8996 30.8957 16.6444 29.7645C15.2452 28.5033 12.7017 26.5931 10.7435 24.278C9.87864 23.4983 8.57288 23.4549 7.74972 24.2781C6.92637 25.1014 6.89933 26.2145 7.74944 27.272L7.08331 26.4522C6.32008 25.5126 5.91293 24.4801 5.9174 23.2694L5.95047 14.6007C5.97596 7.86239 1.03014 9.73033 0.965918 12.003L0.513732 27.9609C0.47235 29.4285 1.00072 30.7031 2.03911 31.7413L9.25718 38.9593V43.1757C9.25718 43.9864 9.91838 44.6477 10.7291 44.6477H16.6347C17.4448 44.6477 18.1055 43.9878 18.1067 43.1778Z" fill="#EE2FB8" fill-opacity="0.2"/>
<path fill-rule="evenodd" clip-rule="evenodd" d="M7.43462 24.6653C6.93813 25.4327 7.02638 26.3724 7.7496 27.2721C8.92702 28.4572 10.1129 29.6355 11.2943 30.8168C11.6107 31.1333 12.1237 31.1333 12.4402 30.8168C12.7566 30.5004 12.7566 29.9874 12.4402 29.6709L7.43462 24.6653Z" fill="url(#paint2_linear_3055_133848)"/>
<path fill-rule="evenodd" clip-rule="evenodd" d="M19.5989 41.2716L7.05423 41.3794C6.44766 41.3846 5.95565 41.8852 5.96086 42.4917L5.98159 44.9066C5.9868 45.5131 6.48731 46.0052 7.09388 46L19.6385 45.8922C20.2451 45.887 20.7371 45.3864 20.7319 44.7799L20.7112 42.365C20.706 41.7585 20.2054 41.2664 19.5989 41.2716Z" fill="url(#paint3_linear_3055_133848)"/>
<path d="M24.9005 26.3383C31.5131 25.0172 35.8026 18.5856 34.4815 11.973C33.1603 5.36048 26.7287 1.07096 20.1162 2.39212C13.5036 3.71329 9.21408 10.1448 10.5352 16.7574C11.8564 23.37 18.288 27.6595 24.9005 26.3383Z" fill="url(#paint4_linear_3055_133848)"/>
<path fill-rule="evenodd" clip-rule="evenodd" d="M31.5244 14.3605C31.5244 14.3593 31.5244 14.3581 31.5244 14.3569H34.705C34.705 18.84 32.288 22.7585 28.686 24.8803L26.9063 21.8528C26.9064 21.8527 26.9065 21.8527 26.9066 21.8526L25.9727 20.2638C27.9938 19.0731 29.3503 16.8747 29.3514 14.3595L31.5244 14.3605Z" fill="#EE2FB8" fill-opacity="0.2"/>
<path fill-rule="evenodd" clip-rule="evenodd" d="M34.7051 14.3568H33.2435V14.3615L29.3514 14.3598V14.3568C29.3514 10.5729 26.284 7.50546 22.5001 7.50546V5.32644V3.61338V2.15173C29.2407 2.15182 34.7051 7.61614 34.7051 14.3568Z" fill="#EE2FB8"/>
<path d="M24.0735 21.014C27.7552 20.1437 30.0343 16.4536 29.1641 12.7719C28.2938 9.09021 24.6036 6.81111 20.9219 7.6814C17.2402 8.55169 14.9611 12.2418 15.8314 15.9235C16.7017 19.6052 20.3918 21.8843 24.0735 21.014Z" fill="#F3EAFD"/>
<defs>
<linearGradient id="paint0_linear_3055_133848" x1="32.3228" y1="24.6653" x2="38.9059" y2="26.0055" gradientUnits="userSpaceOnUse">
<stop stop-color="#832FEE"/>
<stop offset="1" stop-color="#EE2FB8"/>
</linearGradient>
<linearGradient id="paint1_linear_3055_133848" x1="24.2683" y1="41.2716" x2="35.9944" y2="43.6603" gradientUnits="userSpaceOnUse">
<stop stop-color="#832FEE"/>
<stop offset="1" stop-color="#EE2FB8"/>
</linearGradient>
<linearGradient id="paint2_linear_3055_133848" x1="7.12219" y1="24.6653" x2="13.7053" y2="26.0055" gradientUnits="userSpaceOnUse">
<stop stop-color="#832FEE"/>
<stop offset="1" stop-color="#EE2FB8"/>
</linearGradient>
<linearGradient id="paint3_linear_3055_133848" x1="5.96082" y1="41.2716" x2="17.6869" y2="43.6603" gradientUnits="userSpaceOnUse">
<stop stop-color="#832FEE"/>
<stop offset="1" stop-color="#EE2FB8"/>
</linearGradient>
<linearGradient id="paint4_linear_3055_133848" x1="8.14307" y1="4.7843" x2="28.1146" y2="2.13095" gradientUnits="userSpaceOnUse">
<stop stop-color="#832FEE"/>
<stop offset="1" stop-color="#EE2FB8"/>
</linearGradient>
</defs>
</svg>
