<svg width="25" height="24" viewBox="0 0 25 24" fill="none" xmlns="http://www.w3.org/2000/svg">
<path d="M24.041 13.2797C23.0368 13.022 22.0635 12.6561 21.1382 12.1883C20.8525 12.0455 20.5896 11.9083 20.3496 11.7769C19.8753 11.514 19.4982 11.2797 19.2525 11.1197C19.2385 11.1099 19.223 11.1022 19.2068 11.0969C19.0256 10.9913 18.8189 10.9376 18.6093 10.9416C18.3996 10.9456 18.1951 11.0073 18.0182 11.1197C16.5438 12.0839 14.9282 12.8126 13.2296 13.2797C12.9795 13.3405 12.757 13.4832 12.5975 13.6852C12.438 13.8871 12.3508 14.1367 12.3496 14.394V15.3712C12.349 16.7823 12.6972 18.1718 13.3631 19.416C14.0291 20.6601 14.9922 21.7204 16.1668 22.5026L16.6982 22.8569L18.001 23.7254C18.1043 23.7935 18.2183 23.8437 18.3382 23.874H18.3439C18.4376 23.9063 18.5362 23.9218 18.6353 23.9197C18.8611 23.9178 19.0815 23.8503 19.2696 23.7254L21.1039 22.5026C22.2785 21.7204 23.2416 20.6601 23.9075 19.416C24.5735 18.1718 24.9216 16.7823 24.921 15.3712V14.394C24.9199 14.1367 24.8326 13.8871 24.6731 13.6852C24.5136 13.4832 24.2911 13.3405 24.041 13.2797ZM20.7553 16.4054L18.4696 18.6912C18.3613 18.7974 18.2156 18.8569 18.0639 18.8569C17.9122 18.8569 17.7665 18.7974 17.6582 18.6912L16.5153 17.5483C16.4077 17.4407 16.3473 17.2948 16.3473 17.1426C16.3473 16.9904 16.4077 16.8445 16.5153 16.7369C16.6229 16.6293 16.7689 16.5688 16.921 16.5688C17.0732 16.5688 17.2191 16.6293 17.3268 16.7369L18.0639 17.4797L19.9439 15.594C19.9972 15.5407 20.0604 15.4985 20.13 15.4696C20.1996 15.4408 20.2743 15.426 20.3496 15.426C20.425 15.426 20.4996 15.4408 20.5692 15.4696C20.6388 15.4985 20.702 15.5407 20.7553 15.594C20.8086 15.6473 20.8509 15.7106 20.8797 15.7802C20.9085 15.8498 20.9234 15.9244 20.9234 15.9997C20.9234 16.0751 20.9085 16.1497 20.8797 16.2193C20.8509 16.2889 20.8086 16.3522 20.7553 16.4054Z" fill="url(#paint0_linear_3221_34175)"/>
<path d="M19.538 5.85148L14.6523 0.857214C14.477 0.679761 14.2791 0.526071 14.0638 0.400073V4.57149C14.0651 5.02573 14.2462 5.46097 14.5674 5.78217C14.8885 6.10337 15.3238 6.28441 15.778 6.28577H19.8866C19.7835 6.13096 19.6669 5.98563 19.538 5.85148ZM20.3152 7.42862H15.778C15.0203 7.42862 14.2935 7.1276 13.7577 6.59179C13.2219 6.05597 12.9209 5.32925 12.9209 4.57149V0.0229311C12.8188 0.00679972 12.7156 -0.000845456 12.6123 7.40511e-05H3.77804C3.02028 7.40511e-05 2.29355 0.301093 1.75774 0.836909C1.22192 1.37273 0.920898 2.09945 0.920898 2.85721V21.1429C0.920898 21.9006 1.22192 22.6273 1.75774 23.1632C2.29355 23.699 3.02028 24 3.77804 24H16.3552L15.5323 23.4514C14.2009 22.5658 13.1092 21.3646 12.3545 19.9548C11.5997 18.5451 11.2054 16.9705 11.2066 15.3715V14.3943C11.2068 14.0409 11.289 13.6924 11.4466 13.3761C11.6043 13.0598 11.8331 12.7844 12.1152 12.5715H4.9209C4.76934 12.5715 4.624 12.5113 4.51684 12.4041C4.40967 12.2969 4.34947 12.1516 4.34947 12C4.34947 11.8485 4.40967 11.7031 4.51684 11.596C4.624 11.4888 4.76934 11.4286 4.9209 11.4286H15.058C15.8672 11.0637 16.6483 10.6397 17.3952 10.16C17.7302 9.94719 18.1145 9.82432 18.5109 9.8033C18.9073 9.78228 19.3024 9.86382 19.658 10.04L19.698 10.0572L19.8695 10.16C19.9895 10.24 20.1495 10.3372 20.3495 10.4572V7.85148C20.3496 7.70983 20.3382 7.5684 20.3152 7.42862ZM11.2066 18.8572C11.2066 19.0087 11.1464 19.1541 11.0392 19.2612C10.9321 19.3684 10.7867 19.4286 10.6352 19.4286H4.9209C4.76934 19.4286 4.624 19.3684 4.51684 19.2612C4.40967 19.1541 4.34947 19.0087 4.34947 18.8572C4.34947 18.7056 4.40967 18.5603 4.51684 18.4531C4.624 18.3459 4.76934 18.2857 4.9209 18.2857H10.6352C10.7867 18.2857 10.9321 18.3459 11.0392 18.4531C11.1464 18.5603 11.2066 18.7056 11.2066 18.8572ZM4.9209 14.8572H9.49232C9.64388 14.8572 9.78922 14.9174 9.89639 15.0245C10.0035 15.1317 10.0638 15.277 10.0638 15.4286C10.0638 15.5802 10.0035 15.7255 9.89639 15.8327C9.78922 15.9398 9.64388 16 9.49232 16H4.9209C4.76934 16 4.624 15.9398 4.51684 15.8327C4.40967 15.7255 4.34947 15.5802 4.34947 15.4286C4.34947 15.277 4.40967 15.1317 4.51684 15.0245C4.624 14.9174 4.76934 14.8572 4.9209 14.8572ZM4.9209 4.57149H9.49232C9.64388 4.57149 9.78922 4.63169 9.89639 4.73886C10.0035 4.84602 10.0638 4.99136 10.0638 5.14292C10.0638 5.29447 10.0035 5.43981 9.89639 5.54697C9.78922 5.65414 9.64388 5.71434 9.49232 5.71434H4.9209C4.76934 5.71434 4.624 5.65414 4.51684 5.54697C4.40967 5.43981 4.34947 5.29447 4.34947 5.14292C4.34947 4.99136 4.40967 4.84602 4.51684 4.73886C4.624 4.63169 4.76934 4.57149 4.9209 4.57149ZM12.9209 9.1429H4.9209C4.76934 9.1429 4.624 9.0827 4.51684 8.97554C4.40967 8.86837 4.34947 8.72303 4.34947 8.57148C4.34947 8.41992 4.40967 8.27458 4.51684 8.16742C4.624 8.06025 4.76934 8.00005 4.9209 8.00005H12.9209C13.0724 8.00005 13.2178 8.06025 13.325 8.16742C13.4321 8.27458 13.4923 8.41992 13.4923 8.57148C13.4923 8.72303 13.4321 8.86837 13.325 8.97554C13.2178 9.0827 13.0724 9.1429 12.9209 9.1429Z" fill="url(#paint1_linear_3221_34175)"/>
<defs>
<linearGradient id="paint0_linear_3221_34175" x1="12.3496" y1="10.9414" x2="22.7022" y2="11.5953" gradientUnits="userSpaceOnUse">
<stop stop-color="#832FEE"/>
<stop offset="1" stop-color="#EE2FB8"/>
</linearGradient>
<linearGradient id="paint1_linear_3221_34175" x1="0.920898" y1="0" x2="16.9396" y2="0.845594" gradientUnits="userSpaceOnUse">
<stop stop-color="#832FEE"/>
<stop offset="1" stop-color="#EE2FB8"/>
</linearGradient>
</defs>
</svg>
