<svg width="25" height="25" viewBox="0 0 25 25" fill="none" xmlns="http://www.w3.org/2000/svg">
<path d="M17.1182 9.03149C12.8534 9.03149 9.38379 12.5011 9.38379 16.7659C9.38379 21.0306 12.8534 24.5002 17.1182 24.5002C21.3829 24.5002 24.8525 21.0306 24.8525 16.7659C24.8525 12.5011 21.3829 9.03149 17.1182 9.03149ZM17.1182 16.0627C18.2813 16.0627 19.2275 17.009 19.2275 18.1721C19.2275 19.0876 18.6379 19.8607 17.8213 20.152V21.6877H16.415V20.152C15.5984 19.8607 15.0088 19.0876 15.0088 18.1721H16.415C16.415 18.5601 16.7302 18.8752 17.1182 18.8752C17.5061 18.8752 17.8213 18.5601 17.8213 18.1721C17.8213 17.7842 17.5061 17.469 17.1182 17.469C15.955 17.469 15.0088 16.5228 15.0088 15.3596C15.0088 14.4442 15.5984 13.671 16.415 13.3798V11.844H17.8213V13.3798C18.6379 13.671 19.2275 14.4442 19.2275 15.3596H17.8213C17.8213 14.9717 17.5061 14.6565 17.1182 14.6565C16.7302 14.6565 16.415 14.9717 16.415 15.3596C16.415 15.7476 16.7302 16.0627 17.1182 16.0627Z" fill="url(#paint0_linear_3221_31180)"/>
<path d="M8.68066 9.03125C13.0175 9.03125 16.415 7.178 16.415 4.8125C16.415 2.447 13.0175 0.5 8.68066 0.5C4.34379 0.5 0.852539 2.447 0.852539 4.8125C0.852539 7.178 4.34379 9.03125 8.68066 9.03125Z" fill="url(#paint1_linear_3221_31180)"/>
<path d="M0.852539 16.323V17.4687C0.852539 19.8342 4.34379 21.6874 8.68066 21.6874C8.92666 21.6874 9.16502 21.6648 9.40723 21.6529C8.86788 20.8049 8.46565 19.8639 8.22879 18.858C5.09262 18.7714 2.36951 17.8077 0.852539 16.323Z" fill="url(#paint2_linear_3221_31180)"/>
<path d="M8.01134 17.4329C7.99521 17.2117 7.97754 16.9908 7.97754 16.7655C7.97754 16.0326 8.07359 15.3232 8.23737 14.6396C5.0973 14.5545 2.37087 13.5903 0.852539 12.1042V13.2499C0.852539 15.4899 4.00545 17.2503 8.01134 17.4329Z" fill="url(#paint3_linear_3221_31180)"/>
<path d="M8.68066 13.2499C8.68141 13.2499 8.68202 13.2498 8.68282 13.2498C9.14655 12.1415 9.82066 11.1424 10.6578 10.3053C10.0228 10.3856 9.36654 10.4374 8.68066 10.4374C5.34237 10.4374 2.44282 9.44194 0.852539 7.8855V9.03117C0.852539 11.3967 4.34379 13.2499 8.68066 13.2499Z" fill="url(#paint4_linear_3221_31180)"/>
<defs>
<linearGradient id="paint0_linear_3221_31180" x1="9.38379" y1="9.03149" x2="22.1191" y2="9.86194" gradientUnits="userSpaceOnUse">
<stop stop-color="#832FEE"/>
<stop offset="1" stop-color="#EE2FB8"/>
</linearGradient>
<linearGradient id="paint1_linear_3221_31180" x1="0.852539" y1="0.5" x2="13.54" y2="2.00919" gradientUnits="userSpaceOnUse">
<stop stop-color="#832FEE"/>
<stop offset="1" stop-color="#EE2FB8"/>
</linearGradient>
<linearGradient id="paint2_linear_3221_31180" x1="0.852539" y1="16.323" x2="7.84981" y2="17.0506" gradientUnits="userSpaceOnUse">
<stop stop-color="#832FEE"/>
<stop offset="1" stop-color="#EE2FB8"/>
</linearGradient>
<linearGradient id="paint3_linear_3221_31180" x1="0.852539" y1="12.1042" x2="6.90879" y2="12.6516" gradientUnits="userSpaceOnUse">
<stop stop-color="#832FEE"/>
<stop offset="1" stop-color="#EE2FB8"/>
</linearGradient>
<linearGradient id="paint4_linear_3221_31180" x1="0.852539" y1="7.8855" x2="8.84589" y2="8.83823" gradientUnits="userSpaceOnUse">
<stop stop-color="#832FEE"/>
<stop offset="1" stop-color="#EE2FB8"/>
</linearGradient>
</defs>
</svg>
