<svg width="22" height="25" viewBox="0 0 22 25" fill="none" xmlns="http://www.w3.org/2000/svg">
<path d="M7.25752 16.0999C7.25752 14.5399 6.29753 13.2199 4.85755 12.7399V1.69999C4.85755 0.979998 4.37756 0.5 3.65757 0.5C2.93758 0.5 2.45759 0.979998 2.45759 1.69999V12.7399C1.0176 13.2199 0.0576172 14.5399 0.0576172 16.0999C0.0576172 17.6599 1.0176 18.9799 2.45759 19.4599V23.2999C2.45759 24.0199 2.93758 24.4999 3.65757 24.4999C4.37756 24.4999 4.85755 24.0199 4.85755 23.2999V19.4599C6.29753 18.9799 7.25752 17.6599 7.25752 16.0999Z" fill="url(#paint0_linear_3221_40153)"/>
<path d="M14.4567 8.9002C14.4567 7.34021 13.4968 6.02022 12.0568 5.54022V1.70024C12.0568 0.980242 11.5768 0.500244 10.8568 0.500244C10.1368 0.500244 9.6568 0.980242 9.6568 1.70024V5.54022C8.21682 6.02022 7.25684 7.34021 7.25684 8.9002C7.25684 10.4602 8.21682 11.7802 9.6568 12.2602V23.3001C9.6568 24.0201 10.1368 24.5001 10.8568 24.5001C11.5768 24.5001 12.0568 24.0201 12.0568 23.3001V12.2602C13.4968 11.7802 14.4567 10.4602 14.4567 8.9002Z" fill="url(#paint1_linear_3221_40153)"/>
<path d="M21.6579 16.0999C21.6579 14.5399 20.6979 13.2199 19.2579 12.7399V1.69999C19.2579 0.979998 18.778 0.5 18.058 0.5C17.338 0.5 16.858 0.979998 16.858 1.69999V12.7399C15.418 13.2199 14.458 14.5399 14.458 16.0999C14.458 17.6599 15.418 18.9799 16.858 19.4599V23.2999C16.858 24.0199 17.338 24.4999 18.058 24.4999C18.778 24.4999 19.2579 24.0199 19.2579 23.2999V19.4599C20.6979 18.9799 21.6579 17.6599 21.6579 16.0999Z" fill="url(#paint2_linear_3221_40153)"/>
<defs>
<linearGradient id="paint0_linear_3221_40153" x1="0.0576172" y1="0.5" x2="6.00816" y2="0.616407" gradientUnits="userSpaceOnUse">
<stop stop-color="#832FEE"/>
<stop offset="1" stop-color="#EE2FB8"/>
</linearGradient>
<linearGradient id="paint1_linear_3221_40153" x1="7.25684" y1="0.500244" x2="13.2074" y2="0.616651" gradientUnits="userSpaceOnUse">
<stop stop-color="#832FEE"/>
<stop offset="1" stop-color="#EE2FB8"/>
</linearGradient>
<linearGradient id="paint2_linear_3221_40153" x1="14.458" y1="0.5" x2="20.4085" y2="0.616407" gradientUnits="userSpaceOnUse">
<stop stop-color="#832FEE"/>
<stop offset="1" stop-color="#EE2FB8"/>
</linearGradient>
</defs>
</svg>
