<svg width="25" height="25" viewBox="0 0 25 25" fill="none" xmlns="http://www.w3.org/2000/svg">
<path d="M11.5876 11.354C11.5999 11.3417 11.6103 11.3295 11.6208 11.3173C11.6208 11.3155 11.6243 11.3138 11.6243 11.312C11.6331 11.3015 11.6418 11.2893 11.6506 11.2771C11.6506 11.2771 11.6523 11.2736 11.6541 11.2718C11.7048 11.1931 11.7345 11.1005 11.7345 11.0008C11.7345 10.8574 11.6733 10.7281 11.5771 10.6372L7.58731 6.64735C7.39149 6.45153 7.07502 6.45153 6.88095 6.64735C6.68513 6.84317 6.68513 7.15963 6.88095 7.3537L10.0281 10.499H1.23539C0.959143 10.499 0.735352 10.7228 0.735352 10.999C0.735352 11.2753 0.959143 11.4991 1.23539 11.4991H10.0281L6.88095 14.6462C6.68513 14.842 6.68513 15.1585 6.88095 15.3525C6.97886 15.4487 7.1065 15.4994 7.23413 15.4994C7.36176 15.4994 7.4894 15.4504 7.58731 15.3525L11.5876 11.3522V11.354Z" fill="url(#paint0_linear_3221_25197)"/>
<path fill-rule="evenodd" clip-rule="evenodd" d="M11.2375 0.5H22.7367H22.7384C23.8416 0.5 24.7386 1.39691 24.7386 2.50014V20.4997C24.7386 21.3581 24.1878 22.1204 23.3661 22.3932L17.3656 24.3933C17.1733 24.4633 16.9582 24.5 16.7379 24.5C15.6347 24.5 14.7378 23.6031 14.7378 22.4998V21.4998H11.2375C9.85978 21.4998 8.7373 20.3773 8.7373 18.9996V16.9994C8.7373 16.7232 8.9611 16.4994 9.23734 16.4994C9.51359 16.4994 9.73738 16.7232 9.73738 16.9994V18.9996C9.73738 19.8265 10.4105 20.4997 11.2375 20.4997H14.7378V4.50027C14.7378 3.64007 15.2885 2.87951 16.1103 2.60501L19.4252 1.50007H11.2375C10.4105 1.50007 9.73738 2.17316 9.73738 3.00015V5.00033C9.73738 5.27657 9.51359 5.50034 9.23734 5.50034C8.9611 5.50034 8.7373 5.27657 8.7373 5.00033V3.00015C8.7373 1.62243 9.85978 0.5 11.2375 0.5Z" fill="url(#paint1_linear_3221_25197)"/>
<defs>
<linearGradient id="paint0_linear_3221_25197" x1="0.735352" y1="6.50049" x2="9.77193" y2="7.22073" gradientUnits="userSpaceOnUse">
<stop stop-color="#832FEE"/>
<stop offset="1" stop-color="#EE2FB8"/>
</linearGradient>
<linearGradient id="paint1_linear_3221_25197" x1="8.7373" y1="0.5" x2="21.9421" y2="1.07409" gradientUnits="userSpaceOnUse">
<stop stop-color="#832FEE"/>
<stop offset="1" stop-color="#EE2FB8"/>
</linearGradient>
</defs>
</svg>
