<svg width="19" height="25" viewBox="0 0 19 25" fill="none" xmlns="http://www.w3.org/2000/svg">
<path d="M12.1661 22.8538C11.6861 23.828 10.6781 24.5 9.51639 24.5C8.35467 24.5 7.34219 23.828 6.8622 22.8538C7.66393 22.916 8.43641 22.94 9.13727 22.94H9.891C10.5919 22.94 11.3647 22.916 12.1661 22.8538ZM17.8768 15.3875C15.9644 13.1 16.1894 10.6625 16.0394 9.05C15.8331 6.608 15.4656 3.19063 10.8645 2.6405V1.85C10.8645 1.1 10.2645 0.5 9.51451 0.5C8.76453 0.5 8.16454 1.1 8.16454 1.85V2.64088C3.5634 3.191 3.19591 6.61137 2.98967 9.0875C2.83967 10.6625 3.06467 13.1375 1.15221 15.425C-0.347751 17.1875 0.0647386 19.1375 1.33971 19.9625C3.13966 21.0875 6.21459 21.5375 9.51451 21.5C12.8144 21.5375 15.8894 21.0875 17.6893 19.9625C18.9643 19.1 19.3393 17.15 17.8768 15.3875Z" fill="url(#paint0_linear_3221_49121)"/>
<defs>
<linearGradient id="paint0_linear_3221_49121" x1="0.193359" y1="0.5" x2="15.5546" y2="1.27743" gradientUnits="userSpaceOnUse">
<stop stop-color="#832FEE"/>
<stop offset="1" stop-color="#EE2FB8"/>
</linearGradient>
</defs>
</svg>
