<svg width="27" height="25" viewBox="0 0 27 25" fill="none" xmlns="http://www.w3.org/2000/svg">
<path fill-rule="evenodd" clip-rule="evenodd" d="M6.78951 20.0305C7.24662 20.0305 7.68967 20.1893 8.04277 20.4798C9.38542 21.5846 12.4766 24.128 12.4766 24.128C13.0795 24.624 13.949 24.624 14.5518 24.128C14.5518 24.128 17.6429 21.5846 18.9857 20.4798C19.3386 20.1893 19.7817 20.0305 20.2389 20.0305H24.0542C24.7735 20.0305 25.4635 19.7447 25.9721 19.236C26.4809 18.7273 26.7666 18.0374 26.7666 17.3179C26.7666 13.0236 26.7666 7.50688 26.7666 3.21262C26.7666 2.49312 26.4809 1.80319 25.9721 1.2945C25.4635 0.785815 24.7735 0.5 24.0542 0.5C19.082 0.5 7.94635 0.5 2.97426 0.5C2.25489 0.5 1.56498 0.785815 1.0562 1.2945C0.547525 1.80319 0.261719 2.49312 0.261719 3.21262V17.3179C0.261719 18.0374 0.547525 18.7273 1.0562 19.236C1.56498 19.7447 2.25489 20.0305 2.97426 20.0305H6.78951Z" fill="url(#paint0_linear_3221_49131)"/>
<path fill-rule="evenodd" clip-rule="evenodd" d="M15.5689 3.11553C15.5689 3.62915 15.1525 4.04552 14.6389 4.04552C14.1253 4.04552 13.709 3.62915 13.709 3.11553C13.709 2.60192 14.1253 2.18555 14.6389 2.18555C15.1525 2.18555 15.5689 2.60192 15.5689 3.11553ZM18.5158 4.04564C19.0294 4.04564 19.4457 3.62927 19.4457 3.11566C19.4457 2.60204 19.0294 2.18567 18.5158 2.18567C18.0022 2.18567 17.5858 2.60204 17.5858 3.11566C17.5858 3.62927 18.0022 4.04564 18.5158 4.04564ZM22.3908 4.04613C22.9044 4.04613 23.3207 3.62976 23.3207 3.11615C23.3207 2.60253 22.9044 2.18616 22.3908 2.18616C21.8772 2.18616 21.4608 2.60253 21.4608 3.11615C21.4608 3.62976 21.8772 4.04613 22.3908 4.04613Z" fill="white"/>
<path fill-rule="evenodd" clip-rule="evenodd" d="M3.94145 3.34786H7.35137C7.47971 3.34786 7.58394 3.24363 7.58394 3.11528C7.58394 2.98694 7.47971 2.88281 7.35137 2.88281H3.94145C3.81311 2.88281 3.70898 2.98694 3.70898 3.11528C3.70898 3.24363 3.81311 3.34786 3.94145 3.34786Z" fill="white"/>
<defs>
<linearGradient id="paint0_linear_3221_49131" x1="0.261719" y1="0.5" x2="22.0627" y2="2.06998" gradientUnits="userSpaceOnUse">
<stop stop-color="#832FEE"/>
<stop offset="1" stop-color="#EE2FB8"/>
</linearGradient>
</defs>
</svg>
