<svg width="30" height="24" viewBox="0 0 30 24" fill="none" xmlns="http://www.w3.org/2000/svg">
<path d="M0.78418 9.4003L11.0228 15.2622L13.6827 11.9248L2.9017 6.23242L0.78418 9.4003Z" fill="url(#paint0_linear_3221_28188)"/>
<path d="M16.2207 11.9111L18.8905 15.261L29.1479 9.3883L27.0015 6L16.2207 11.9111Z" fill="url(#paint1_linear_3221_28188)"/>
<path d="M4.45605 5.1743L14.9499 10.7151L25.4587 4.95309L14.9727 0L4.45605 5.1743Z" fill="url(#paint2_linear_3221_28188)"/>
<path d="M3.45703 18.3668L14.1259 24.0001V14.0319L11.8766 16.8542C11.6213 17.1745 11.1707 17.2608 10.8152 17.0572L3.45703 12.8445V18.3668Z" fill="url(#paint3_linear_3221_28188)"/>
<path d="M15.7871 14.032V23.9744L26.456 18.1164V12.8445L19.0979 17.0572C18.7424 17.2607 18.2917 17.1745 18.0365 16.8542L15.7871 14.032Z" fill="url(#paint4_linear_3221_28188)"/>
<defs>
<linearGradient id="paint0_linear_3221_28188" x1="0.78418" y1="6.23242" x2="11.3568" y2="7.21723" gradientUnits="userSpaceOnUse">
<stop stop-color="#832FEE"/>
<stop offset="1" stop-color="#EE2FB8"/>
</linearGradient>
<linearGradient id="paint1_linear_3221_28188" x1="16.2207" y1="6" x2="26.8209" y2="6.96486" gradientUnits="userSpaceOnUse">
<stop stop-color="#832FEE"/>
<stop offset="1" stop-color="#EE2FB8"/>
</linearGradient>
<linearGradient id="paint2_linear_3221_28188" x1="4.45605" y1="0" x2="21.5417" y2="2.18381" gradientUnits="userSpaceOnUse">
<stop stop-color="#832FEE"/>
<stop offset="1" stop-color="#EE2FB8"/>
</linearGradient>
<linearGradient id="paint3_linear_3221_28188" x1="3.45703" y1="12.8445" x2="12.2438" y2="13.3925" gradientUnits="userSpaceOnUse">
<stop stop-color="#832FEE"/>
<stop offset="1" stop-color="#EE2FB8"/>
</linearGradient>
<linearGradient id="paint4_linear_3221_28188" x1="15.7871" y1="12.8445" x2="24.5737" y2="13.3937" gradientUnits="userSpaceOnUse">
<stop stop-color="#832FEE"/>
<stop offset="1" stop-color="#EE2FB8"/>
</linearGradient>
</defs>
</svg>
