<svg width="35" height="24" viewBox="0 0 35 24" fill="none" xmlns="http://www.w3.org/2000/svg">
<path d="M34.4816 11.52L31.8296 5.52C31.7368 5.30721 31.5842 5.12593 31.3903 4.99814C31.1965 4.87034 30.9698 4.80151 30.7376 4.8H24.3176L24.7016 1.332C24.7205 1.16365 24.7035 0.993201 24.6518 0.831875C24.6001 0.670549 24.5148 0.522 24.4016 0.396C24.2894 0.271689 24.1524 0.172235 23.9995 0.104034C23.8465 0.0358334 23.681 0.000395795 23.5136 0H6.98948C6.67122 0 6.36599 0.126428 6.14095 0.351472C5.9159 0.576515 5.78947 0.88174 5.78947 1.2C5.78947 1.51826 5.9159 1.82348 6.14095 2.04853C6.36599 2.27357 6.67122 2.4 6.98948 2.4H12.9895C13.3078 2.4 13.613 2.52643 13.838 2.75147C14.0631 2.97651 14.1895 3.28174 14.1895 3.6C14.1895 3.91826 14.0631 4.22348 13.838 4.44853C13.613 4.67357 13.3078 4.8 12.9895 4.8H4.58947C4.2712 4.8 3.96598 4.92643 3.74093 5.15147C3.51589 5.37651 3.38946 5.68174 3.38946 6C3.38946 6.31826 3.51589 6.62348 3.74093 6.84852C3.96598 7.07357 4.2712 7.2 4.58947 7.2H16.5895C16.9078 7.2 17.213 7.32643 17.4381 7.55147C17.6631 7.77651 17.7895 8.08174 17.7895 8.4C17.7895 8.71826 17.6631 9.02348 17.4381 9.24852C17.213 9.47357 16.9078 9.6 16.5895 9.6H8.18949C7.87123 9.6 7.566 9.72642 7.34095 9.95147C7.11591 10.1765 6.98948 10.4817 6.98948 10.8C6.98948 11.1183 7.11591 11.4235 7.34095 11.6485C7.566 11.8736 7.87123 12 8.18949 12H12.9895C13.3078 12 13.613 12.1264 13.838 12.3515C14.0631 12.5765 14.1895 12.8817 14.1895 13.2C14.1895 13.5183 14.0631 13.8235 13.838 14.0485C13.613 14.2736 13.3078 14.4 12.9895 14.4H3.38946C3.0712 14.4 2.76597 14.5264 2.54093 14.7515C2.31588 14.9765 2.18945 15.2817 2.18945 15.6C2.18945 15.9183 2.31588 16.2235 2.54093 16.4485C2.76597 16.6736 3.0712 16.8 3.38946 16.8H5.78947C6.10773 16.8 6.41296 16.9264 6.63801 17.1515C6.86305 17.3765 6.98948 17.6817 6.98948 18C6.98948 18.3183 6.86305 18.6235 6.63801 18.8485C6.41296 19.0736 6.10773 19.2 5.78947 19.2H4.58947C4.2712 19.2 3.96598 19.3264 3.74093 19.5515C3.51589 19.7765 3.38946 20.0817 3.38946 20.4C3.38946 20.7183 3.51589 21.0235 3.74093 21.2485C3.96598 21.4736 4.2712 21.6 4.58947 21.6H8.00949C8.13906 22.1061 8.38569 22.5747 8.72949 22.968C9.02083 23.2937 9.37783 23.5541 9.77701 23.732C10.1762 23.9098 10.6085 24.0012 11.0455 24C11.785 23.9789 12.5018 23.7398 13.106 23.3129C13.7101 22.8859 14.1747 22.29 14.4415 21.6H23.6096C23.7392 22.1061 23.9858 22.5747 24.3296 22.968C24.6209 23.2937 24.9779 23.5541 25.3771 23.732C25.7763 23.9098 26.2086 24.0012 26.6456 24C27.3851 23.9789 28.1019 23.7398 28.706 23.3129C29.3102 22.8859 29.7748 22.29 30.0416 21.6H32.4416C32.7383 21.6018 33.0251 21.4936 33.2467 21.2964C33.4683 21.0992 33.609 20.8269 33.6416 20.532L34.5656 12.132C34.5985 11.9242 34.5693 11.7113 34.4816 11.52ZM11.0455 21.6C10.946 21.6043 10.8468 21.586 10.7554 21.5465C10.6639 21.507 10.5826 21.4474 10.5175 21.372C10.4233 21.2555 10.3544 21.1206 10.3151 20.976C10.2759 20.8314 10.2671 20.6802 10.2895 20.532C10.3201 20.1951 10.4656 19.8789 10.7015 19.6364C10.9375 19.3939 11.2495 19.2399 11.5855 19.2C11.685 19.1957 11.7842 19.214 11.8756 19.2535C11.9671 19.2929 12.0484 19.3526 12.1135 19.428C12.2077 19.5445 12.2766 19.6794 12.3159 19.824C12.3551 19.9686 12.3639 20.1198 12.3415 20.268C12.3109 20.6049 12.1654 20.9211 11.9295 21.1636C11.6935 21.4061 11.3815 21.5601 11.0455 21.6ZM26.6456 21.6C26.5461 21.6043 26.4469 21.586 26.3554 21.5465C26.264 21.507 26.1827 21.4474 26.1176 21.372C26.0234 21.2555 25.9545 21.1206 25.9152 20.976C25.876 20.8314 25.8672 20.6802 25.8896 20.532C25.9202 20.1951 26.0657 19.8789 26.3016 19.6364C26.5376 19.3939 26.8496 19.2399 27.1856 19.2C27.2851 19.1957 27.3843 19.214 27.4757 19.2535C27.5672 19.2929 27.6485 19.3526 27.7136 19.428C27.8078 19.5445 27.8767 19.6794 27.916 19.824C27.9552 19.9686 27.9639 20.1198 27.9416 20.268C27.9109 20.6049 27.7655 20.9211 27.5296 21.1636C27.2936 21.4061 26.9816 21.5601 26.6456 21.6ZM32.0456 13.2H26.7416C26.5741 13.1996 26.4086 13.1642 26.2557 13.096C26.1027 13.0278 25.9658 12.9283 25.8536 12.804C25.7403 12.678 25.6551 12.5294 25.6034 12.3681C25.5516 12.2068 25.5347 12.0363 25.5536 11.868L25.9496 8.268C25.985 7.9753 26.1268 7.70588 26.3482 7.51111C26.5695 7.31634 26.8548 7.20987 27.1496 7.212H29.9456L32.1896 12.192L32.0456 13.2Z" fill="url(#paint0_linear_3221_37164)"/>
<path d="M3.38927 12.0001C3.70753 12.0001 4.01276 11.8737 4.2378 11.6486C4.46285 11.4236 4.58928 11.1184 4.58928 10.8001C4.58928 10.4818 4.46285 10.1766 4.2378 9.95157C4.01276 9.72653 3.70753 9.6001 3.38927 9.6001H2.18926C1.871 9.6001 1.56578 9.72653 1.34073 9.95157C1.11569 10.1766 0.989258 10.4818 0.989258 10.8001C0.989258 11.1184 1.11569 11.4236 1.34073 11.6486C1.56578 11.8737 1.871 12.0001 2.18926 12.0001H3.38927Z" fill="url(#paint1_linear_3221_37164)"/>
<defs>
<linearGradient id="paint0_linear_3221_37164" x1="2.18945" y1="0" x2="28.7629" y2="2.33853" gradientUnits="userSpaceOnUse">
<stop stop-color="#832FEE"/>
<stop offset="1" stop-color="#EE2FB8"/>
</linearGradient>
<linearGradient id="paint1_linear_3221_37164" x1="0.989258" y1="9.6001" x2="3.93752" y2="9.88848" gradientUnits="userSpaceOnUse">
<stop stop-color="#832FEE"/>
<stop offset="1" stop-color="#EE2FB8"/>
</linearGradient>
</defs>
</svg>
