<svg width="25" height="25" viewBox="0 0 25 25" fill="none" xmlns="http://www.w3.org/2000/svg">
<path d="M24.6627 6.88708L17.9834 0.207888C17.8503 0.0747999 17.6698 0 17.4816 0H8.03613C7.84787 0 7.66738 0.0747526 7.53429 0.207841L0.854813 6.88708C0.721725 7.02026 0.646973 7.20076 0.646973 7.38896V16.8348C0.646973 17.023 0.721725 17.2035 0.854813 17.3366L7.53429 24.0158C7.66738 24.1489 7.84792 24.2236 8.03613 24.2236H17.4816C17.6699 24.2236 17.8503 24.1489 17.9834 24.0158L24.6627 17.3366C24.7959 17.2035 24.8707 17.023 24.8707 16.8348V7.38896C24.8706 7.20076 24.7959 7.02026 24.6627 6.88708ZM12.0491 6.03069C12.0491 5.63876 12.3668 5.32101 12.7588 5.32101C13.1507 5.32101 13.4685 5.63876 13.4685 6.03069V13.6321C13.4685 14.024 13.1507 14.3418 12.7588 14.3418C12.3668 14.3418 12.0491 14.024 12.0491 13.6321V6.03069ZM13.2604 18.6948C13.1285 18.8268 12.9453 18.9025 12.759 18.9025C12.572 18.9025 12.389 18.8268 12.257 18.6948C12.125 18.5628 12.0493 18.3797 12.0493 18.1928C12.0493 18.0064 12.125 17.8233 12.257 17.6913C12.389 17.5588 12.572 17.4831 12.759 17.4831C12.9453 17.4831 13.1285 17.5589 13.2604 17.6913C13.3925 17.8233 13.4686 18.0059 13.4686 18.1928C13.4687 18.3797 13.3925 18.5628 13.2604 18.6948Z" fill="url(#paint0_linear_3221_22205)"/>
<defs>
<linearGradient id="paint0_linear_3221_22205" x1="0.646973" y1="0" x2="20.5901" y2="1.30046" gradientUnits="userSpaceOnUse">
<stop stop-color="#832FEE"/>
<stop offset="1" stop-color="#EE2FB8"/>
</linearGradient>
</defs>
</svg>
