<svg width="26" height="25" viewBox="0 0 26 25" fill="none" xmlns="http://www.w3.org/2000/svg">
<path fill-rule="evenodd" clip-rule="evenodd" d="M0.125 20.9463C0.125 22.909 1.71588 24.5 3.67832 24.5H16.0574C18.0199 24.5 19.6107 22.909 19.6107 20.9463V4.05368C19.6107 2.09104 18.0199 0.5 16.0574 0.5H3.67832C1.71588 0.5 0.125 2.09104 0.125 4.05368V20.9463ZM12.6374 7.85358C12.0748 7.39421 11.4423 7.10103 10.8033 6.96036V6.01522C10.8033 5.53383 10.4131 5.14356 9.93177 5.14356C9.45039 5.14356 9.0602 5.53383 9.0602 6.01522V6.95191C8.13305 7.15578 7.27774 7.71026 6.84671 8.62375C6.40285 9.56447 6.42836 10.5358 6.98606 11.3972C7.50304 12.1957 8.415 12.8031 9.53983 13.2698C10.5661 13.6956 11.1159 14.1484 11.3712 14.5409C11.5962 14.8869 11.6397 15.2544 11.4665 15.72C11.311 16.1381 10.8477 16.461 10.059 16.489C9.27933 16.5167 8.43645 16.226 7.90909 15.7218C7.56113 15.3891 7.00943 15.4016 6.67682 15.7495C6.34419 16.0975 6.35662 16.6493 6.70455 16.9819C7.3489 17.598 8.19825 17.9889 9.0602 18.1498V18.9847C9.0602 19.4661 9.45039 19.8563 9.93177 19.8563C10.4131 19.8563 10.8033 19.4661 10.8033 18.9847V18.1517C11.7677 17.9581 12.699 17.4063 13.1002 16.3279C13.4454 15.3999 13.3892 14.4463 12.8324 13.5903C12.3058 12.7808 11.3916 12.1507 10.2078 11.6595C9.22402 11.2514 8.68857 10.8194 8.44926 10.4497C8.25068 10.143 8.21105 9.81725 8.42315 9.36771C8.59488 9.0038 9.01102 8.69868 9.62233 8.62231C10.2229 8.54725 10.9327 8.71226 11.535 9.20401C11.9079 9.50845 12.4569 9.45294 12.7613 9.08003C13.0657 8.70713 13.0102 8.15802 12.6374 7.85358Z" fill="url(#paint0_linear_3221_49118)"/>
<path d="M21.2793 21.0986C21.2793 21.58 21.6695 21.9702 22.1509 21.9702H23.3838C24.6057 21.9702 25.5962 20.9796 25.5962 19.7576V9.01516C25.5962 7.79313 24.6057 6.80249 23.3838 6.80249H22.1509C21.9197 6.80249 21.698 6.89432 21.5346 7.05779C21.3711 7.22126 21.2793 7.44296 21.2793 7.67415V21.0986Z" fill="url(#paint1_linear_3221_49118)"/>
<defs>
<linearGradient id="paint0_linear_3221_49118" x1="0.125" y1="0.5" x2="16.1906" y2="1.35056" gradientUnits="userSpaceOnUse">
<stop stop-color="#832FEE"/>
<stop offset="1" stop-color="#EE2FB8"/>
</linearGradient>
<linearGradient id="paint1_linear_3221_49118" x1="21.2793" y1="6.80249" x2="24.8473" y2="6.86871" gradientUnits="userSpaceOnUse">
<stop stop-color="#832FEE"/>
<stop offset="1" stop-color="#EE2FB8"/>
</linearGradient>
</defs>
</svg>
